SourceCodePro_0.ufo
<glyph name="percent" format="1">
  <advance width="600"/>
  <unicode hex="0025"/>
  <outline>
    <contour>
      <point x="160" y="328" type="curve" smooth="yes"/>
      <point x="238" y="328"/>
      <point x="292" y="387"/>
      <point x="292" y="492" type="curve" smooth="yes"/>
      <point x="292" y="596"/>
      <point x="238" y="652"/>
      <point x="160" y="652" type="curve" smooth="yes"/>
      <point x="82" y="652"/>
      <point x="28" y="596"/>
      <point x="28" y="492" type="curve" smooth="yes"/>
      <point x="28" y="387"/>
      <point x="82" y="328"/>
    </contour>
    <contour>
      <point x="160" y="354" type="curve" smooth="yes"/>
      <point x="102" y="354"/>
      <point x="58" y="405"/>
      <point x="58" y="492" type="curve" smooth="yes"/>
      <point x="58" y="581"/>
      <point x="102" y="626"/>
      <point x="160" y="626" type="curve" smooth="yes"/>
      <point x="218" y="626"/>
      <point x="262" y="581"/>
      <point x="262" y="492" type="curve" smooth="yes"/>
      <point x="262" y="405"/>
      <point x="218" y="354"/>
    </contour>
    <contour>
      <point x="64" y="36" type="line"/>
      <point x="236" y="242" type="line"/>
      <point x="218" y="258" type="line"/>
      <point x="38" y="58" type="line"/>
    </contour>
    <contour>
      <point x="536" y="624" type="line"/>
      <point x="364" y="418" type="line"/>
      <point x="382" y="402" type="line"/>
      <point x="562" y="602" type="line"/>
    </contour>
    <contour>
      <point x="440" y="-12" type="curve" smooth="yes"/>
      <point x="518" y="-12"/>
      <point x="572" y="47"/>
      <point x="572" y="152" type="curve" smooth="yes"/>
      <point x="572" y="256"/>
      <point x="518" y="312"/>
      <point x="440" y="312" type="curve" smooth="yes"/>
      <point x="362" y="312"/>
      <point x="308" y="256"/>
      <point x="308" y="152" type="curve" smooth="yes"/>
      <point x="308" y="47"/>
      <point x="362" y="-12"/>
    </contour>
    <contour>
      <point x="440" y="14" type="curve" smooth="yes"/>
      <point x="382" y="14"/>
      <point x="338" y="65"/>
      <point x="338" y="152" type="curve" smooth="yes"/>
      <point x="338" y="241"/>
      <point x="382" y="286"/>
      <point x="440" y="286" type="curve" smooth="yes"/>
      <point x="498" y="286"/>
      <point x="542" y="241"/>
      <point x="542" y="152" type="curve" smooth="yes"/>
      <point x="542" y="65"/>
      <point x="498" y="14"/>
    </contour>
  </outline>
</glyph>
<glyph name="quotesingle" format="1">
  <advance width="600"/>
  <unicode hex="0027"/>
  <outline>
    <contour>
      <point x="286" y="392" type="line"/>
      <point x="314" y="392" type="line"/>
      <point x="332" y="607" type="line"/>
      <point x="331" y="688" type="line"/>
      <point x="269" y="688" type="line"/>
      <point x="268" y="607" type="line"/>
    </contour>
  </outline>
</glyph>
<glyph name="three" format="1">
  <advance width="600"/>
  <unicode hex="0033"/>
  <outline>
    <contour>
      <point x="70" y="78" type="line"/>
      <point x="114" y="36"/>
      <point x="182" y="-12"/>
      <point x="294" y="-12" type="curve" smooth="yes"/>
      <point x="414" y="-12"/>
      <point x="508" y="58"/>
      <point x="508" y="168" type="curve" smooth="yes"/>
      <point x="508" y="260"/>
      <point x="426" y="320"/>
      <point x="336" y="336" type="curve"/>
      <point x="336" y="340" type="line"/>
      <point x="418" y="363"/>
      <point x="484" y="414"/>
      <point x="484" y="500" type="curve" smooth="yes"/>
      <point x="484" y="596"/>
      <point x="398" y="652"/>
      <point x="292" y="652" type="curve" smooth="yes"/>
      <point x="210" y="652"/>
      <point x="144" y="616"/>
      <point x="98" y="574" type="curve"/>
      <point x="118" y="552" type="line"/>
      <point x="158" y="592"/>
      <point x="224" y="624"/>
      <point x="292" y="624" type="curve" smooth="yes"/>
      <point x="386" y="624"/>
      <point x="452" y="574"/>
      <point x="452" y="498" type="curve" smooth="yes"/>
      <point x="452" y="418"/>
      <point x="385" y="352"/>
      <point x="212" y="352" type="curve"/>
      <point x="212" y="322" type="line"/>
      <point x="395" y="322"/>
      <point x="476" y="258"/>
      <point x="476" y="166" type="curve" smooth="yes"/>
      <point x="476" y="76"/>
      <point x="398" y="16"/>
      <point x="296" y="16" type="curve" smooth="yes"/>
      <point x="194" y="16"/>
      <point x="132" y="58"/>
      <point x="90" y="100" type="curve"/>
    </contour>
  </outline>
</glyph>
<glyph name="four" format="1">
  <advance width="600"/>
  <unicode hex="0034"/>
  <outline>
    <contour>
      <point x="92" y="225" type="line"/>
      <point x="328" y="506" type="line"/>
      <point x="348" y="533"/>
      <point x="369" y="560"/>
      <point x="389" y="587" type="curve"/>
      <point x="395" y="587" type="line"/>
      <point x="393" y="557"/>
      <point x="392" y="526"/>
      <point x="390" y="496" type="curve"/>
      <point x="390" y="225" type="line"/>
    </contour>
    <contour>
      <point x="535" y="225" type="line"/>
      <point x="420" y="225" type="line"/>
      <point x="420" y="641" type="line"/>
      <point x="405" y="641" type="line"/>
      <point x="43" y="213" type="line"/>
      <point x="43" y="196" type="line"/>
      <point x="390" y="196" type="line"/>
      <point x="390" y="0" type="line"/>
      <point x="420" y="0" type="line"/>
      <point x="420" y="196" type="line"/>
      <point x="535" y="196" type="line"/>
    </contour>
  </outline>
</glyph>
<glyph name="seven" format="1">
  <advance width="600"/>
  <unicode hex="0037"/>
  <outline>
    <contour>
      <point x="252" y="0" type="curve"/>
      <point x="288" y="0" type="line"/>
      <point x="296" y="252"/>
      <point x="350" y="416"/>
      <point x="526" y="622" type="curve"/>
      <point x="526" y="640" type="line"/>
      <point x="76" y="640" type="line"/>
      <point x="76" y="612" type="line"/>
      <point x="484" y="612" type="line"/>
      <point x="328" y="424"/>
      <point x="262" y="266"/>
    </contour>
  </outline>
</glyph>
<glyph name="eight" format="1">
  <advance width="600"/>
  <unicode hex="0038"/>
  <outline>
    <contour>
      <point x="106" y="164" type="curve" smooth="yes"/>
      <point x="106" y="248"/>
      <point x="170" y="294"/>
      <point x="254" y="334" type="curve"/>
      <point x="382" y="293"/>
      <point x="492" y="268"/>
      <point x="492" y="154" type="curve" smooth="yes"/>
      <point x="492" y="78"/>
      <point x="428" y="16"/>
      <point x="305" y="16" type="curve" smooth="yes"/>
      <point x="180" y="16"/>
      <point x="106" y="82"/>
    </contour>
    <contour>
      <point x="359" y="330" type="curve"/>
      <point x="248" y="364"/>
      <point x="156" y="402"/>
      <point x="156" y="498" type="curve" smooth="yes"/>
      <point x="156" y="570"/>
      <point x="215" y="624"/>
      <point x="305" y="624" type="curve" smooth="yes"/>
      <point x="409" y="624"/>
      <point x="464" y="560"/>
      <point x="464" y="486" type="curve" smooth="yes"/>
      <point x="464" y="428"/>
      <point x="428" y="376"/>
    </contour>
    <contour>
      <point x="74" y="164" type="curve" smooth="yes"/>
      <point x="74" y="64"/>
      <point x="163" y="-12"/>
      <point x="305" y="-12" type="curve" smooth="yes"/>
      <point x="444" y="-12"/>
      <point x="524" y="62"/>
      <point x="524" y="154" type="curve" smooth="yes"/>
      <point x="524" y="248"/>
      <point x="466" y="282"/>
      <point x="393" y="318" type="curve"/>
      <point x="393" y="322" type="line"/>
      <point x="450" y="364"/>
      <point x="496" y="424"/>
      <point x="496" y="486" type="curve" smooth="yes"/>
      <point x="496" y="580"/>
      <point x="429" y="652"/>
      <point x="305" y="652" type="curve" smooth="yes"/>
      <point x="202" y="652"/>
      <point x="124" y="588"/>
      <point x="124" y="498" type="curve" smooth="yes"/>
      <point x="124" y="430"/>
      <point x="172" y="380"/>
      <point x="225" y="350" type="curve"/>
      <point x="225" y="346" type="line"/>
      <point x="154" y="314"/>
      <point x="74" y="260"/>
    </contour>
  </outline>
</glyph>
<glyph name="nine" format="1">
  <advance width="600"/>
  <unicode hex="0039"/>
  <outline>
    <contour>
      <point x="280" y="284" type="curve" smooth="yes"/>
      <point x="166" y="284"/>
      <point x="110" y="348"/>
      <point x="110" y="454" type="curve" smooth="yes"/>
      <point x="110" y="548"/>
      <point x="180" y="624"/>
      <point x="276" y="624" type="curve" smooth="yes"/>
      <point x="408" y="624"/>
      <point x="470" y="525"/>
      <point x="479" y="386" type="curve"/>
      <point x="412" y="313"/>
      <point x="339" y="284"/>
    </contour>
    <contour>
      <point x="92" y="48" type="line"/>
      <point x="133" y="12"/>
      <point x="182" y="-12"/>
      <point x="250" y="-12" type="curve" smooth="yes"/>
      <point x="387" y="-12"/>
      <point x="512" y="80"/>
      <point x="512" y="352" type="curve" smooth="yes"/>
      <point x="512" y="542"/>
      <point x="424" y="652"/>
      <point x="278" y="652" type="curve" smooth="yes"/>
      <point x="171" y="652"/>
      <point x="78" y="568"/>
      <point x="78" y="454" type="curve" smooth="yes"/>
      <point x="78" y="326"/>
      <point x="154" y="256"/>
      <point x="278" y="256" type="curve" smooth="yes"/>
      <point x="356" y="256"/>
      <point x="423" y="292"/>
      <point x="480" y="348" type="curve"/>
      <point x="479" y="101"/>
      <point x="372" y="16"/>
      <point x="252" y="16" type="curve" smooth="yes"/>
      <point x="198" y="16"/>
      <point x="150" y="34"/>
      <point x="112" y="70" type="curve"/>
    </contour>
  </outline>
</glyph>
<glyph name="colon" format="1">
  <advance width="600"/>
  <unicode hex="003A"/>
  <outline>
    <contour>
      <point x="248" y="432" type="curve" smooth="yes"/>
      <point x="248" y="394"/>
      <point x="274" y="374"/>
      <point x="300" y="374" type="curve" smooth="yes"/>
      <point x="326" y="374"/>
      <point x="352" y="394"/>
      <point x="352" y="432" type="curve" smooth="yes"/>
      <point x="352" y="470"/>
      <point x="326" y="490"/>
      <point x="300" y="490" type="curve" smooth="yes"/>
      <point x="274" y="490"/>
      <point x="248" y="470"/>
    </contour>
    <contour>
      <point x="248" y="46" type="curve" smooth="yes"/>
      <point x="248" y="8"/>
      <point x="274" y="-12"/>
      <point x="300" y="-12" type="curve" smooth="yes"/>
      <point x="326" y="-12"/>
      <point x="352" y="8"/>
      <point x="352" y="46" type="curve" smooth="yes"/>
      <point x="352" y="84"/>
      <point x="326" y="104"/>
      <point x="300" y="104" type="curve" smooth="yes"/>
      <point x="274" y="104"/>
      <point x="248" y="84"/>
    </contour>
  </outline>
</glyph>
<glyph name="semicolon" format="1">
  <advance width="600"/>
  <unicode hex="003B"/>
  <outline>
    <contour>
      <point x="300" y="374" type="curve" smooth="yes"/>
      <point x="326" y="374"/>
      <point x="352" y="394"/>
      <point x="352" y="432" type="curve" smooth="yes"/>
      <point x="352" y="470"/>
      <point x="326" y="490"/>
      <point x="300" y="490" type="curve" smooth="yes"/>
      <point x="274" y="490"/>
      <point x="248" y="470"/>
      <point x="248" y="432" type="curve" smooth="yes"/>
      <point x="248" y="394"/>
      <point x="274" y="374"/>
    </contour>
    <contour>
      <point x="221" y="-210" type="line"/>
      <point x="308" y="-170"/>
      <point x="369" y="-96"/>
      <point x="369" y="13" type="curve" smooth="yes"/>
      <point x="369" y="69"/>
      <point x="347" y="106"/>
      <point x="306" y="106" type="curve" smooth="yes"/>
      <point x="279" y="106"/>
      <point x="253" y="90"/>
      <point x="253" y="52" type="curve" smooth="yes"/>
      <point x="253" y="15"/>
      <point x="275" y="-1"/>
      <point x="307" y="-1" type="curve" smooth="yes"/>
      <point x="315" y="-1"/>
      <point x="323" y="0"/>
      <point x="331" y="3" type="curve"/>
      <point x="328" y="-89"/>
      <point x="287" y="-144"/>
      <point x="208" y="-185" type="curve"/>
    </contour>
  </outline>
</glyph>
<glyph name="at" format="1">
  <advance width="600"/>
  <unicode hex="0040"/>
  <outline>
    <contour>
      <point x="542" y="396" type="line" smooth="yes"/>
      <point x="542" y="528"/>
      <point x="480" y="628"/>
      <point x="352" y="628" type="curve" smooth="yes"/>
      <point x="186" y="628"/>
      <point x="64" y="489"/>
      <point x="64" y="248" type="curve" smooth="yes"/>
      <point x="64" y="2"/>
      <point x="187" y="-142"/>
      <point x="342" y="-142" type="curve" smooth="yes"/>
      <point x="405" y="-142"/>
      <point x="458" y="-124"/>
      <point x="506" y="-86" type="curve"/>
      <point x="490" y="-64" type="line"/>
      <point x="450" y="-97"/>
      <point x="402" y="-114"/>
      <point x="342" y="-114" type="curve" smooth="yes"/>
      <point x="196" y="-114"/>
      <point x="96" y="26"/>
      <point x="96" y="246" type="curve" smooth="yes"/>
      <point x="96" y="467"/>
      <point x="206" y="600"/>
      <point x="349" y="600" type="curve" smooth="yes"/>
      <point x="466" y="600"/>
      <point x="512" y="508"/>
      <point x="512" y="395" type="curve" smooth="yes"/>
      <point x="512" y="382" type="line"/>
      <point x="328" y="360"/>
      <point x="236" y="308"/>
      <point x="236" y="212" type="curve" smooth="yes"/>
      <point x="236" y="128"/>
      <point x="297" y="88"/>
      <point x="366" y="88" type="curve" smooth="yes"/>
      <point x="416" y="88"/>
      <point x="476" y="126"/>
      <point x="508" y="164" type="curve"/>
      <point x="512" y="164" type="line"/>
      <point x="516" y="100" type="line"/>
      <point x="542" y="100" type="line"/>
    </contour>
    <contour>
      <point x="268" y="212" type="curve" smooth="yes"/>
      <point x="268" y="287"/>
      <point x="339" y="332"/>
      <point x="512" y="356" type="curve"/>
      <point x="512" y="202" type="line"/>
      <point x="464" y="144"/>
      <point x="412" y="116"/>
      <point x="370" y="116" type="curve" smooth="yes"/>
      <point x="308" y="116"/>
      <point x="268" y="151"/>
    </contour>
  </outline>
</glyph>
<glyph name="J" format="1">
  <advance width="600"/>
  <unicode hex="004A"/>
  <outline>
    <contour>
      <point x="98" y="98" type="line"/>
      <point x="134" y="25"/>
      <point x="203" y="-12"/>
      <point x="278" y="-12" type="curve" smooth="yes"/>
      <point x="427" y="-12"/>
      <point x="475" y="83"/>
      <point x="475" y="201" type="curve" smooth="yes"/>
      <point x="475" y="661" type="line"/>
      <point x="152" y="661" type="line"/>
      <point x="152" y="634" type="line"/>
      <point x="443" y="634" type="line"/>
      <point x="443" y="204" type="line" smooth="yes"/>
      <point x="443" y="80"/>
      <point x="394" y="17"/>
      <point x="279" y="17" type="curve" smooth="yes"/>
      <point x="222" y="17"/>
      <point x="166" y="48"/>
      <point x="128" y="115" type="curve"/>
    </contour>
  </outline>
</glyph>
<glyph name="L" format="1">
  <advance width="600"/>
  <unicode hex="004C"/>
  <outline>
    <contour>
      <point x="156" y="0" type="line"/>
      <point x="538" y="0" type="line"/>
      <point x="538" y="28" type="line"/>
      <point x="186" y="28" type="line"/>
      <point x="186" y="660" type="line"/>
      <point x="156" y="660" type="line"/>
    </contour>
  </outline>
</glyph>
<glyph name="M" format="1">
  <advance width="600"/>
  <unicode hex="004D"/>
  <outline>
    <contour>
      <point x="95" y="0" type="line"/>
      <point x="126" y="0" type="line"/>
      <point x="126" y="495" type="line" smooth="yes"/>
      <point x="126" y="536"/>
      <point x="123" y="582"/>
      <point x="122" y="623" type="curve"/>
      <point x="124" y="623" type="line"/>
      <point x="163" y="513" type="line"/>
      <point x="287" y="181" type="line"/>
      <point x="314" y="181" type="line"/>
      <point x="437" y="513" type="line"/>
      <point x="473" y="623" type="line"/>
      <point x="476" y="623" type="line"/>
      <point x="475" y="582"/>
      <point x="473" y="536"/>
      <point x="473" y="495" type="curve" smooth="yes"/>
      <point x="473" y="0" type="line"/>
      <point x="505" y="0" type="line"/>
      <point x="505" y="660" type="line"/>
      <point x="459" y="660" type="line"/>
      <point x="343" y="342" type="line"/>
      <point x="303" y="222" type="line"/>
      <point x="299" y="222" type="line"/>
      <point x="257" y="342" type="line"/>
      <point x="141" y="660" type="line"/>
      <point x="95" y="660" type="line"/>
    </contour>
  </outline>
</glyph>
<glyph name="h" format="1">
  <advance width="600"/>
  <unicode hex="0068"/>
  <outline>
    <contour>
      <point x="110" y="0" type="line"/>
      <point x="140" y="0" type="line"/>
      <point x="140" y="346" type="line"/>
      <point x="214" y="424"/>
      <point x="264" y="462"/>
      <point x="336" y="462" type="curve" smooth="yes"/>
      <point x="437" y="462"/>
      <point x="480" y="407"/>
      <point x="480" y="294" type="curve" smooth="yes"/>
      <point x="480" y="0" type="line"/>
      <point x="510" y="0" type="line"/>
      <point x="510" y="298" type="line" smooth="yes"/>
      <point x="510" y="429"/>
      <point x="453" y="490"/>
      <point x="336" y="490" type="curve" smooth="yes"/>
      <point x="258" y="490"/>
      <point x="201" y="444"/>
      <point x="138" y="378" type="curve"/>
      <point x="140" y="508" type="line"/>
      <point x="140" y="722" type="line"/>
      <point x="110" y="722" type="line"/>
    </contour>
  </outline>
</glyph>
<glyph name="n" format="1">
  <advance width="600"/>
  <unicode hex="006E"/>
  <outline>
    <contour>
      <point x="110" y="0" type="line"/>
      <point x="140" y="0" type="line"/>
      <point x="140" y="346" type="line"/>
      <point x="214" y="424"/>
      <point x="264" y="462"/>
      <point x="336" y="462" type="curve" smooth="yes"/>
      <point x="437" y="462"/>
      <point x="480" y="407"/>
      <point x="480" y="294" type="curve" smooth="yes"/>
      <point x="480" y="0" type="line"/>
      <point x="510" y="0" type="line"/>
      <point x="510" y="298" type="line" smooth="yes"/>
      <point x="510" y="429"/>
      <point x="453" y="490"/>
      <point x="336" y="490" type="curve" smooth="yes"/>
      <point x="258" y="490"/>
      <point x="201" y="444"/>
      <point x="144" y="382" type="curve"/>
      <point x="140" y="382" type="line"/>
      <point x="136" y="478" type="line"/>
      <point x="110" y="478" type="line"/>
    </contour>
  </outline>
</glyph>
<glyph name="r" format="1">
  <advance width="600"/>
  <unicode hex="0072"/>
  <outline>
    <contour>
      <point x="170" y="0" type="line"/>
      <point x="200" y="0" type="line"/>
      <point x="200" y="306" type="line"/>
      <point x="270" y="418"/>
      <point x="344" y="460"/>
      <point x="427" y="460" type="curve" smooth="yes"/>
      <point x="465" y="460"/>
      <point x="483" y="455"/>
      <point x="519" y="442" type="curve"/>
      <point x="527" y="470" type="line"/>
      <point x="496" y="486"/>
      <point x="462" y="490"/>
      <point x="431" y="490" type="curve" smooth="yes"/>
      <point x="333" y="490"/>
      <point x="254" y="434"/>
      <point x="202" y="358" type="curve"/>
      <point x="200" y="358" type="line"/>
      <point x="196" y="478" type="line"/>
      <point x="170" y="478" type="line"/>
    </contour>
  </outline>
</glyph>
<glyph name="v" format="1">
  <advance width="600"/>
  <unicode hex="0076"/>
  <outline>
    <contour>
      <point x="286" y="0" type="line"/>
      <point x="316" y="0" type="line"/>
      <point x="534" y="478" type="line"/>
      <point x="504" y="478" type="line"/>
      <point x="364" y="168" type="line" smooth="yes"/>
      <point x="342" y="120"/>
      <point x="323" y="74"/>
      <point x="304" y="32" type="curve"/>
      <point x="300" y="32" type="line"/>
      <point x="281" y="74"/>
      <point x="260" y="120"/>
      <point x="238" y="168" type="curve" smooth="yes"/>
      <point x="98" y="478" type="line"/>
      <point x="66" y="478" type="line"/>
    </contour>
  </outline>
</glyph>
<glyph name="x" format="1">
  <advance width="600"/>
  <unicode hex="0078"/>
  <outline>
    <contour>
      <point x="86" y="0" type="line"/>
      <point x="120" y="0" type="line"/>
      <point x="226" y="136" type="line" smooth="yes"/>
      <point x="250" y="168"/>
      <point x="272" y="196"/>
      <point x="296" y="226" type="curve"/>
      <point x="300" y="226" type="line"/>
      <point x="324" y="198"/>
      <point x="348" y="164"/>
      <point x="370" y="137" type="curve" smooth="yes"/>
      <point x="478" y="0" type="line"/>
      <point x="514" y="0" type="line"/>
      <point x="317" y="248" type="line"/>
      <point x="498" y="478" type="line"/>
      <point x="464" y="478" type="line"/>
      <point x="368" y="352" type="line" smooth="yes"/>
      <point x="348" y="326"/>
      <point x="324" y="296"/>
      <point x="302" y="270" type="curve"/>
      <point x="298" y="270" type="line"/>
      <point x="276" y="296"/>
      <point x="256" y="324"/>
      <point x="236" y="350" type="curve" smooth="yes"/>
      <point x="138" y="478" type="line"/>
      <point x="102" y="478" type="line"/>
      <point x="281" y="248" type="line"/>
    </contour>
  </outline>
</glyph>
<glyph name="cent" format="1">
  <advance width="600"/>
  <unicode hex="00A2"/>
  <outline>
    <contour>
      <point x="316" y="113" type="line"/>
      <point x="220" y="124"/>
      <point x="158" y="201"/>
      <point x="158" y="312" type="curve" smooth="yes"/>
      <point x="158" y="422"/>
      <point x="226" y="499"/>
      <point x="316" y="510" type="curve"/>
    </contour>
    <contour>
      <point x="474" y="168" type="line"/>
      <point x="441" y="138"/>
      <point x="396" y="113"/>
      <point x="344" y="112" type="curve"/>
      <point x="344" y="512" type="line"/>
      <point x="392" y="511"/>
      <point x="431" y="489"/>
      <point x="462" y="460" type="curve"/>
      <point x="480" y="480" type="line"/>
      <point x="449" y="509"/>
      <point x="408" y="539"/>
      <point x="344" y="540" type="curve"/>
      <point x="344" y="652" type="line"/>
      <point x="316" y="652" type="line"/>
      <point x="316" y="539" type="line"/>
      <point x="212" y="528"/>
      <point x="126" y="450"/>
      <point x="126" y="312" type="curve" smooth="yes"/>
      <point x="126" y="176"/>
      <point x="206" y="95"/>
      <point x="316" y="85" type="curve"/>
      <point x="316" y="-26" type="line"/>
      <point x="344" y="-26" type="line"/>
      <point x="344" y="84" type="line"/>
      <point x="404" y="85"/>
      <point x="453" y="113"/>
      <point x="492" y="148" type="curve"/>
    </contour>
  </outline>
</glyph>
<glyph name="sterling" format="1">
  <advance width="600"/>
  <unicode hex="00A3"/>
  <outline>
    <contour>
      <point x="153" y="28" type="line"/>
      <point x="153" y="32" type="line"/>
      <point x="212" y="78"/>
      <point x="244" y="130"/>
      <point x="244" y="218" type="curve" smooth="yes"/>
      <point x="244" y="246"/>
      <point x="240" y="272"/>
      <point x="233" y="296" type="curve"/>
      <point x="430" y="296" type="line"/>
      <point x="430" y="324" type="line"/>
      <point x="225" y="324" type="line"/>
      <point x="206" y="380"/>
      <point x="181" y="431"/>
      <point x="181" y="488" type="curve" smooth="yes"/>
      <point x="181" y="562"/>
      <point x="236" y="624"/>
      <point x="343" y="624" type="curve" smooth="yes"/>
      <point x="413" y="624"/>
      <point x="458" y="596"/>
      <point x="492" y="562" type="curve"/>
      <point x="514" y="582" type="line"/>
      <point x="481" y="618"/>
      <point x="429" y="652"/>
      <point x="347" y="652" type="curve" smooth="yes"/>
      <point x="225" y="652"/>
      <point x="152" y="588"/>
      <point x="152" y="486" type="curve" smooth="yes"/>
      <point x="152" y="430"/>
      <point x="176" y="378"/>
      <point x="194" y="324" type="curve"/>
      <point x="82" y="322" type="line"/>
      <point x="82" y="296" type="line"/>
      <point x="203" y="296" type="line"/>
      <point x="211" y="271"/>
      <point x="216" y="245"/>
      <point x="216" y="218" type="curve" smooth="yes"/>
      <point x="216" y="140"/>
      <point x="181" y="62"/>
      <point x="87" y="18" type="curve"/>
      <point x="87" y="0" type="line"/>
      <point x="516" y="0" type="line"/>
      <point x="516" y="28" type="line"/>
    </contour>
  </outline>
</glyph>
<glyph name="dieresis" format="1">
  <advance width="600"/>
  <unicode hex="00A8"/>
  <outline>
    <contour>
      <point x="214" y="602" type="curve" smooth="yes"/>
      <point x="234" y="602"/>
      <point x="248" y="618"/>
      <point x="248" y="638" type="curve" smooth="yes"/>
      <point x="248" y="658"/>
      <point x="234" y="674"/>
      <point x="214" y="674" type="curve" smooth="yes"/>
      <point x="194" y="674"/>
      <point x="180" y="658"/>
      <point x="180" y="638" type="curve" smooth="yes"/>
      <point x="180" y="618"/>
      <point x="194" y="602"/>
    </contour>
    <contour>
      <point x="386" y="602" type="curve" smooth="yes"/>
      <point x="406" y="602"/>
      <point x="420" y="618"/>
      <point x="420" y="638" type="curve" smooth="yes"/>
      <point x="420" y="658"/>
      <point x="406" y="674"/>
      <point x="386" y="674" type="curve" smooth="yes"/>
      <point x="366" y="674"/>
      <point x="352" y="658"/>
      <point x="352" y="638" type="curve" smooth="yes"/>
      <point x="352" y="618"/>
      <point x="366" y="602"/>
    </contour>
  </outline>
</glyph>
<glyph name="logicalnot" format="1">
  <advance width="600"/>
  <unicode hex="00AC"/>
  <outline>
    <contour>
      <point x="98" y="296" type="line"/>
      <point x="470" y="296" type="line"/>
      <point x="470" y="92" type="line"/>
      <point x="502" y="92" type="line"/>
      <point x="502" y="324" type="line"/>
      <point x="98" y="324" type="line"/>
    </contour>
  </outline>
</glyph>
<glyph name="registered" format="1">
  <advance width="600"/>
  <unicode hex="00AE"/>
  <outline>
    <contour>
      <point x="300" y="326" type="curve" smooth="yes"/>
      <point x="398" y="326"/>
      <point x="480" y="402"/>
      <point x="480" y="518" type="curve" smooth="yes"/>
      <point x="480" y="634"/>
      <point x="398" y="712"/>
      <point x="300" y="712" type="curve" smooth="yes"/>
      <point x="202" y="712"/>
      <point x="120" y="634"/>
      <point x="120" y="518" type="curve" smooth="yes"/>
      <point x="120" y="402"/>
      <point x="202" y="326"/>
    </contour>
    <contour>
      <point x="300" y="352" type="curve" smooth="yes"/>
      <point x="216" y="352"/>
      <point x="148" y="422"/>
      <point x="148" y="518" type="curve" smooth="yes"/>
      <point x="148" y="614"/>
      <point x="216" y="686"/>
      <point x="300" y="686" type="curve" smooth="yes"/>
      <point x="384" y="686"/>
      <point x="452" y="614"/>
      <point x="452" y="518" type="curve" smooth="yes"/>
      <point x="452" y="422"/>
      <point x="384" y="352"/>
    </contour>
    <contour>
      <point x="234" y="418" type="line"/>
      <point x="262" y="418" type="line"/>
      <point x="262" y="496" type="line"/>
      <point x="312" y="496" type="line"/>
      <point x="352" y="418" type="line"/>
      <point x="386" y="418" type="line"/>
      <point x="336" y="506" type="line"/>
      <point x="358" y="512"/>
      <point x="376" y="536"/>
      <point x="376" y="562" type="curve" smooth="yes"/>
      <point x="376" y="612"/>
      <point x="338" y="626"/>
      <point x="300" y="626" type="curve" smooth="yes"/>
      <point x="234" y="626" type="line"/>
    </contour>
    <contour>
      <point x="262" y="522" type="line"/>
      <point x="262" y="600" type="line"/>
      <point x="296" y="600" type="line" smooth="yes"/>
      <point x="334" y="600"/>
      <point x="346" y="584"/>
      <point x="346" y="560" type="curve" smooth="yes"/>
      <point x="346" y="532"/>
      <point x="324" y="522"/>
      <point x="292" y="522" type="curve" smooth="yes"/>
    </contour>
  </outline>
</glyph>
<glyph name="periodcentered" format="1">
  <advance width="600"/>
  <unicode hex="00B7"/>
  <outline>
    <contour>
      <point x="248" y="342" type="curve" smooth="yes"/>
      <point x="248" y="304"/>
      <point x="274" y="284"/>
      <point x="300" y="284" type="curve" smooth="yes"/>
      <point x="326" y="284"/>
      <point x="352" y="304"/>
      <point x="352" y="342" type="curve" smooth="yes"/>
      <point x="352" y="380"/>
      <point x="326" y="400"/>
      <point x="300" y="400" type="curve" smooth="yes"/>
      <point x="274" y="400"/>
      <point x="248" y="380"/>
    </contour>
  </outline>
</glyph>
<glyph name="guillemotright" format="1">
  <advance width="600"/>
  <unicode hex="00BB"/>
  <outline>
    <contour>
      <point x="127" y="90" type="line"/>
      <point x="147" y="74" type="line"/>
      <point x="285" y="238" type="line"/>
      <point x="285" y="266" type="line"/>
      <point x="147" y="430" type="line"/>
      <point x="127" y="412" type="line"/>
      <point x="253" y="252" type="line"/>
    </contour>
    <contour>
      <point x="327" y="90" type="line"/>
      <point x="347" y="74" type="line"/>
      <point x="485" y="238" type="line"/>
      <point x="485" y="266" type="line"/>
      <point x="347" y="430" type="line"/>
      <point x="327" y="412" type="line"/>
      <point x="453" y="252" type="line"/>
    </contour>
  </outline>
</glyph>
<glyph name="Aacute" format="1">
  <advance width="600"/>
  <unicode hex="00C1"/>
  <outline>
    <contour>
      <point x="406" y="814" type="line"/>
      <point x="362" y="814" type="line"/>
      <point x="268" y="710" type="line"/>
      <point x="298" y="710" type="line"/>
    </contour>
    <contour>
      <point x="175" y="264" type="line"/>
      <point x="222" y="396" type="line" smooth="yes"/>
      <point x="250" y="476"/>
      <point x="274" y="544"/>
      <point x="298" y="626" type="curve"/>
      <point x="302" y="626" type="line"/>
      <point x="326" y="544"/>
      <point x="350" y="476"/>
      <point x="378" y="396" type="curve" smooth="yes"/>
      <point x="424" y="264" type="line"/>
    </contour>
    <contour>
      <point x="516" y="0" type="line"/>
      <point x="550" y="0" type="line"/>
      <point x="314" y="660" type="line"/>
      <point x="286" y="660" type="line"/>
      <point x="50" y="0" type="line"/>
      <point x="82" y="0" type="line"/>
      <point x="165" y="236" type="line"/>
      <point x="434" y="236" type="line"/>
    </contour>
  </outline>
</glyph>
<glyph name="Aring" format="1">
  <advance width="600"/>
  <unicode hex="00C5"/>
  <outline>
    <contour>
      <point x="300" y="838" type="curve" smooth="yes"/>
      <point x="328" y="838"/>
      <point x="352" y="816"/>
      <point x="352" y="780" type="curve" smooth="yes"/>
      <point x="352" y="742"/>
      <point x="328" y="722"/>
      <point x="300" y="722" type="curve" smooth="yes"/>
      <point x="270" y="722"/>
      <point x="246" y="742"/>
      <point x="246" y="780" type="curve" smooth="yes"/>
      <point x="246" y="816"/>
      <point x="270" y="838"/>
    </contour>
    <contour>
      <point x="300" y="700" type="curve" smooth="yes"/>
      <point x="342" y="700"/>
      <point x="378" y="732"/>
      <point x="378" y="780" type="curve" smooth="yes"/>
      <point x="378" y="828"/>
      <point x="342" y="860"/>
      <point x="300" y="860" type="curve" smooth="yes"/>
      <point x="256" y="860"/>
      <point x="222" y="828"/>
      <point x="222" y="780" type="curve" smooth="yes"/>
      <point x="222" y="732"/>
      <point x="256" y="700"/>
    </contour>
    <contour>
      <point x="175" y="264" type="line"/>
      <point x="222" y="396" type="line" smooth="yes"/>
      <point x="250" y="476"/>
      <point x="274" y="544"/>
      <point x="298" y="626" type="curve"/>
      <point x="302" y="626" type="line"/>
      <point x="326" y="544"/>
      <point x="350" y="476"/>
      <point x="378" y="396" type="curve" smooth="yes"/>
      <point x="424" y="264" type="line"/>
    </contour>
    <contour>
      <point x="516" y="0" type="line"/>
      <point x="550" y="0" type="line"/>
      <point x="314" y="660" type="line"/>
      <point x="286" y="660" type="line"/>
      <point x="50" y="0" type="line"/>
      <point x="82" y="0" type="line"/>
      <point x="165" y="236" type="line"/>
      <point x="434" y="236" type="line"/>
    </contour>
  </outline>
</glyph>
<glyph name="Idieresis" format="1">
  <advance width="600"/>
  <unicode hex="00CF"/>
  <outline>
    <contour>
      <point x="112" y="0" type="line"/>
      <point x="488" y="0" type="line"/>
      <point x="488" y="28" type="line"/>
      <point x="316" y="28" type="line"/>
      <point x="316" y="632" type="line"/>
      <point x="488" y="632" type="line"/>
      <point x="488" y="660" type="line"/>
      <point x="112" y="660" type="line"/>
      <point x="112" y="632" type="line"/>
      <point x="284" y="632" type="line"/>
      <point x="284" y="28" type="line"/>
      <point x="112" y="28" type="line"/>
    </contour>
    <contour>
      <point x="224" y="728" type="curve" smooth="yes"/>
      <point x="242" y="728"/>
      <point x="256" y="740"/>
      <point x="256" y="760" type="curve" smooth="yes"/>
      <point x="256" y="780"/>
      <point x="242" y="792"/>
      <point x="224" y="792" type="curve" smooth="yes"/>
      <point x="206" y="792"/>
      <point x="192" y="780"/>
      <point x="192" y="760" type="curve" smooth="yes"/>
      <point x="192" y="740"/>
      <point x="206" y="728"/>
    </contour>
    <contour>
      <point x="376" y="728" type="curve" smooth="yes"/>
      <point x="394" y="728"/>
      <point x="408" y="740"/>
      <point x="408" y="760" type="curve" smooth="yes"/>
      <point x="408" y="780"/>
      <point x="394" y="792"/>
      <point x="376" y="792" type="curve" smooth="yes"/>
      <point x="358" y="792"/>
      <point x="344" y="780"/>
      <point x="344" y="760" type="curve" smooth="yes"/>
      <point x="344" y="740"/>
      <point x="358" y="728"/>
    </contour>
  </outline>
</glyph>
<glyph name="Eth" format="1">
  <advance width="600"/>
  <unicode hex="00D0"/>
  <outline>
    <contour>
      <point x="106" y="0" type="line"/>
      <point x="254" y="0" type="line" smooth="yes"/>
      <point x="458" y="0"/>
      <point x="550" y="136"/>
      <point x="550" y="332" type="curve" smooth="yes"/>
      <point x="550" y="528"/>
      <point x="458" y="660"/>
      <point x="254" y="660" type="curve" smooth="yes"/>
      <point x="106" y="660" type="line"/>
      <point x="106" y="364" type="line"/>
      <point x="28" y="360" type="line"/>
      <point x="28" y="336" type="line"/>
      <point x="106" y="336" type="line"/>
    </contour>
    <contour>
      <point x="138" y="28" type="line"/>
      <point x="138" y="336" type="line"/>
      <point x="310" y="336" type="line"/>
      <point x="310" y="364" type="line"/>
      <point x="138" y="364" type="line"/>
      <point x="138" y="632" type="line"/>
      <point x="250" y="632" type="line" smooth="yes"/>
      <point x="438" y="632"/>
      <point x="516" y="506"/>
      <point x="516" y="332" type="curve" smooth="yes"/>
      <point x="516" y="158"/>
      <point x="438" y="28"/>
      <point x="250" y="28" type="curve" smooth="yes"/>
    </contour>
  </outline>
</glyph>
<glyph name="Ograve" format="1">
  <advance width="600"/>
  <unicode hex="00D2"/>
  <outline>
    <contour>
      <point x="300" y="-12" type="curve" smooth="yes"/>
      <point x="442" y="-12"/>
      <point x="544" y="124"/>
      <point x="544" y="332" type="curve" smooth="yes"/>
      <point x="544" y="540"/>
      <point x="442" y="672"/>
      <point x="300" y="672" type="curve" smooth="yes"/>
      <point x="158" y="672"/>
      <point x="56" y="540"/>
      <point x="56" y="332" type="curve" smooth="yes"/>
      <point x="56" y="124"/>
      <point x="158" y="-12"/>
    </contour>
    <contour>
      <point x="300" y="18" type="curve" smooth="yes"/>
      <point x="175" y="18"/>
      <point x="90" y="142"/>
      <point x="90" y="332" type="curve" smooth="yes"/>
      <point x="90" y="522"/>
      <point x="175" y="642"/>
      <point x="300" y="642" type="curve" smooth="yes"/>
      <point x="425" y="642"/>
      <point x="510" y="522"/>
      <point x="510" y="332" type="curve" smooth="yes"/>
      <point x="510" y="142"/>
      <point x="425" y="18"/>
    </contour>
    <contour>
      <point x="302" y="710" type="line"/>
      <point x="332" y="710" type="line"/>
      <point x="238" y="814" type="line"/>
      <point x="194" y="814" type="line"/>
    </contour>
  </outline>
</glyph>
<glyph name="Oacute" format="1">
  <advance width="600"/>
  <unicode hex="00D3"/>
  <outline>
    <contour>
      <point x="300" y="-12" type="curve" smooth="yes"/>
      <point x="442" y="-12"/>
      <point x="544" y="124"/>
      <point x="544" y="332" type="curve" smooth="yes"/>
      <point x="544" y="540"/>
      <point x="442" y="672"/>
      <point x="300" y="672" type="curve" smooth="yes"/>
      <point x="158" y="672"/>
      <point x="56" y="540"/>
      <point x="56" y="332" type="curve" smooth="yes"/>
      <point x="56" y="124"/>
      <point x="158" y="-12"/>
    </contour>
    <contour>
      <point x="300" y="18" type="curve" smooth="yes"/>
      <point x="175" y="18"/>
      <point x="90" y="142"/>
      <point x="90" y="332" type="curve" smooth="yes"/>
      <point x="90" y="522"/>
      <point x="175" y="642"/>
      <point x="300" y="642" type="curve" smooth="yes"/>
      <point x="425" y="642"/>
      <point x="510" y="522"/>
      <point x="510" y="332" type="curve" smooth="yes"/>
      <point x="510" y="142"/>
      <point x="425" y="18"/>
    </contour>
    <contour>
      <point x="406" y="814" type="line"/>
      <point x="362" y="814" type="line"/>
      <point x="268" y="710" type="line"/>
      <point x="298" y="710" type="line"/>
    </contour>
  </outline>
</glyph>
<glyph name="atilde" format="1">
  <advance width="600"/>
  <unicode hex="00E3"/>
  <outline>
    <contour>
      <point x="96" y="117" type="curve" smooth="yes"/>
      <point x="96" y="26"/>
      <point x="180" y="-12"/>
      <point x="264" y="-12" type="curve" smooth="yes"/>
      <point x="336" y="-12"/>
      <point x="412" y="29"/>
      <point x="468" y="74" type="curve"/>
      <point x="470" y="74" type="line"/>
      <point x="474" y="0" type="line"/>
      <point x="500" y="0" type="line"/>
      <point x="500" y="310" type="line" smooth="yes"/>
      <point x="500" y="406"/>
      <point x="451" y="490"/>
      <point x="324" y="490" type="curve" smooth="yes"/>
      <point x="238" y="490"/>
      <point x="154" y="444"/>
      <point x="120" y="418" type="curve"/>
      <point x="136" y="394" type="line"/>
      <point x="173" y="422"/>
      <point x="246" y="462"/>
      <point x="322" y="462" type="curve" smooth="yes"/>
      <point x="438" y="462"/>
      <point x="470" y="382"/>
      <point x="470" y="298" type="curve"/>
      <point x="206" y="274"/>
      <point x="96" y="224"/>
    </contour>
    <contour>
      <point x="128" y="118" type="curve" smooth="yes"/>
      <point x="128" y="200"/>
      <point x="212" y="248"/>
      <point x="470" y="272" type="curve"/>
      <point x="470" y="108" type="line"/>
      <point x="398" y="47"/>
      <point x="330" y="16"/>
      <point x="266" y="16" type="curve" smooth="yes"/>
      <point x="198" y="16"/>
      <point x="128" y="44"/>
    </contour>
    <contour>
      <point x="200" y="582" type="curve"/>
      <point x="224" y="582" type="line"/>
      <point x="228" y="617"/>
      <point x="240" y="638"/>
      <point x="262" y="638" type="curve" smooth="yes"/>
      <point x="299" y="638"/>
      <point x="324" y="582"/>
      <point x="372" y="582" type="curve" smooth="yes"/>
      <point x="419" y="582"/>
      <point x="434" y="629"/>
      <point x="436" y="664" type="curve"/>
      <point x="412" y="664" type="line"/>
      <point x="408" y="630"/>
      <point x="396" y="608"/>
      <point x="374" y="608" type="curve" smooth="yes"/>
      <point x="339" y="608"/>
      <point x="312" y="664"/>
      <point x="264" y="664" type="curve" smooth="yes"/>
      <point x="217" y="664"/>
      <point x="202" y="618"/>
    </contour>
  </outline>
</glyph>
<glyph name="ccedilla" format="1">
  <advance width="600"/>
  <unicode hex="00E7"/>
  <outline>
    <contour>
      <point x="360" y="-12" type="line"/>
      <point x="430" y="-9"/>
      <point x="487" y="22"/>
      <point x="532" y="66" type="curve"/>
      <point x="514" y="88" type="line"/>
      <point x="470" y="46"/>
      <point x="415" y="16"/>
      <point x="348" y="16" type="curve" smooth="yes"/>
      <point x="212" y="16"/>
      <point x="122" y="106"/>
      <point x="122" y="238" type="curve" smooth="yes"/>
      <point x="122" y="370"/>
      <point x="214" y="462"/>
      <point x="348" y="462" type="curve" smooth="yes"/>
      <point x="410" y="462"/>
      <point x="458" y="434"/>
      <point x="499" y="394" type="curve"/>
      <point x="519" y="416" type="line"/>
      <point x="480" y="454"/>
      <point x="429" y="490"/>
      <point x="348" y="490" type="curve" smooth="yes"/>
      <point x="206" y="490"/>
      <point x="90" y="398"/>
      <point x="90" y="238" type="curve" smooth="yes"/>
      <point x="90" y="86"/>
      <point x="192" y="-5"/>
      <point x="332" y="-12" type="curve"/>
      <point x="299" y="-74" type="line"/>
      <point x="337" y="-84"/>
      <point x="367" y="-96"/>
      <point x="367" y="-128" type="curve" smooth="yes"/>
      <point x="367" y="-156"/>
      <point x="329" y="-172"/>
      <point x="273" y="-180" type="curve"/>
      <point x="279" y="-206" type="line"/>
      <point x="339" y="-198"/>
      <point x="397" y="-174"/>
      <point x="397" y="-124" type="curve" smooth="yes"/>
      <point x="397" y="-84"/>
      <point x="369" y="-66"/>
      <point x="337" y="-56" type="curve"/>
    </contour>
  </outline>
</glyph>
<glyph name="eacute" format="1">
  <advance width="600"/>
  <unicode hex="00E9"/>
  <outline>
    <contour>
      <point x="80" y="238" type="curve" smooth="yes"/>
      <point x="80" y="82"/>
      <point x="194" y="-12"/>
      <point x="330" y="-12" type="curve" smooth="yes"/>
      <point x="417" y="-12"/>
      <point x="468" y="17"/>
      <point x="510" y="44" type="curve"/>
      <point x="496" y="70" type="line"/>
      <point x="451" y="38"/>
      <point x="398" y="16"/>
      <point x="332" y="16" type="curve" smooth="yes"/>
      <point x="200" y="16"/>
      <point x="112" y="110"/>
      <point x="112" y="238" type="curve"/>
      <point x="528" y="238" type="line"/>
      <point x="530" y="250"/>
      <point x="530" y="260"/>
      <point x="530" y="270" type="curve" smooth="yes"/>
      <point x="530" y="408"/>
      <point x="446" y="490"/>
      <point x="318" y="490" type="curve" smooth="yes"/>
      <point x="197" y="490"/>
      <point x="80" y="394"/>
    </contour>
    <contour>
      <point x="112" y="264" type="line"/>
      <point x="125" y="386"/>
      <point x="217" y="462"/>
      <point x="318" y="462" type="curve" smooth="yes"/>
      <point x="426" y="462"/>
      <point x="500" y="396"/>
      <point x="500" y="264" type="curve"/>
    </contour>
    <contour>
      <point x="396" y="706" type="line"/>
      <point x="356" y="706" type="line"/>
      <point x="264" y="572" type="line"/>
      <point x="292" y="572" type="line"/>
    </contour>
  </outline>
</glyph>
<glyph name="otilde" format="1">
  <advance width="600"/>
  <unicode hex="00F5"/>
  <outline>
    <contour>
      <point x="70" y="238" type="curve" smooth="yes"/>
      <point x="70" y="80"/>
      <point x="175" y="-12"/>
      <point x="300" y="-12" type="curve" smooth="yes"/>
      <point x="425" y="-12"/>
      <point x="530" y="80"/>
      <point x="530" y="238" type="curve" smooth="yes"/>
      <point x="530" y="398"/>
      <point x="425" y="490"/>
      <point x="300" y="490" type="curve" smooth="yes"/>
      <point x="175" y="490"/>
      <point x="70" y="398"/>
    </contour>
    <contour>
      <point x="102" y="238" type="curve" smooth="yes"/>
      <point x="102" y="370"/>
      <point x="186" y="462"/>
      <point x="300" y="462" type="curve" smooth="yes"/>
      <point x="414" y="462"/>
      <point x="498" y="370"/>
      <point x="498" y="238" type="curve" smooth="yes"/>
      <point x="498" y="106"/>
      <point x="414" y="16"/>
      <point x="300" y="16" type="curve" smooth="yes"/>
      <point x="186" y="16"/>
      <point x="102" y="106"/>
    </contour>
    <contour>
      <point x="182" y="582" type="curve"/>
      <point x="206" y="582" type="line"/>
      <point x="210" y="617"/>
      <point x="222" y="638"/>
      <point x="244" y="638" type="curve" smooth="yes"/>
      <point x="281" y="638"/>
      <point x="306" y="582"/>
      <point x="354" y="582" type="curve" smooth="yes"/>
      <point x="401" y="582"/>
      <point x="416" y="629"/>
      <point x="418" y="664" type="curve"/>
      <point x="394" y="664" type="line"/>
      <point x="390" y="630"/>
      <point x="378" y="608"/>
      <point x="356" y="608" type="curve" smooth="yes"/>
      <point x="321" y="608"/>
      <point x="294" y="664"/>
      <point x="246" y="664" type="curve" smooth="yes"/>
      <point x="199" y="664"/>
      <point x="184" y="618"/>
    </contour>
  </outline>
</glyph>
<glyph name="odieresis" format="1">
  <advance width="600"/>
  <unicode hex="00F6"/>
  <outline>
    <contour>
      <point x="70" y="238" type="curve" smooth="yes"/>
      <point x="70" y="80"/>
      <point x="175" y="-12"/>
      <point x="300" y="-12" type="curve" smooth="yes"/>
      <point x="425" y="-12"/>
      <point x="530" y="80"/>
      <point x="530" y="238" type="curve" smooth="yes"/>
      <point x="530" y="398"/>
      <point x="425" y="490"/>
      <point x="300" y="490" type="curve" smooth="yes"/>
      <point x="175" y="490"/>
      <point x="70" y="398"/>
    </contour>
    <contour>
      <point x="102" y="238" type="curve" smooth="yes"/>
      <point x="102" y="370"/>
      <point x="186" y="462"/>
      <point x="300" y="462" type="curve" smooth="yes"/>
      <point x="414" y="462"/>
      <point x="498" y="370"/>
      <point x="498" y="238" type="curve" smooth="yes"/>
      <point x="498" y="106"/>
      <point x="414" y="16"/>
      <point x="300" y="16" type="curve" smooth="yes"/>
      <point x="186" y="16"/>
      <point x="102" y="106"/>
    </contour>
    <contour>
      <point x="214" y="602" type="curve" smooth="yes"/>
      <point x="234" y="602"/>
      <point x="248" y="618"/>
      <point x="248" y="638" type="curve" smooth="yes"/>
      <point x="248" y="658"/>
      <point x="234" y="674"/>
      <point x="214" y="674" type="curve" smooth="yes"/>
      <point x="194" y="674"/>
      <point x="180" y="658"/>
      <point x="180" y="638" type="curve" smooth="yes"/>
      <point x="180" y="618"/>
      <point x="194" y="602"/>
    </contour>
    <contour>
      <point x="386" y="602" type="curve" smooth="yes"/>
      <point x="406" y="602"/>
      <point x="420" y="618"/>
      <point x="420" y="638" type="curve" smooth="yes"/>
      <point x="420" y="658"/>
      <point x="406" y="674"/>
      <point x="386" y="674" type="curve" smooth="yes"/>
      <point x="366" y="674"/>
      <point x="352" y="658"/>
      <point x="352" y="638" type="curve" smooth="yes"/>
      <point x="352" y="618"/>
      <point x="366" y="602"/>
    </contour>
  </outline>
</glyph>
<glyph name="uacute" format="1">
  <advance width="600"/>
  <unicode hex="00FA"/>
  <outline>
    <contour>
      <point x="490" y="478" type="line"/>
      <point x="460" y="478" type="line"/>
      <point x="460" y="132" type="line"/>
      <point x="390" y="53"/>
      <point x="336" y="16"/>
      <point x="264" y="16" type="curve" smooth="yes"/>
      <point x="163" y="16"/>
      <point x="120" y="71"/>
      <point x="120" y="184" type="curve" smooth="yes"/>
      <point x="120" y="478" type="line"/>
      <point x="90" y="478" type="line"/>
      <point x="90" y="180" type="line" smooth="yes"/>
      <point x="90" y="49"/>
      <point x="147" y="-12"/>
      <point x="264" y="-12" type="curve" smooth="yes"/>
      <point x="342" y="-12"/>
      <point x="403" y="34"/>
      <point x="456" y="96" type="curve"/>
      <point x="460" y="96" type="line"/>
      <point x="464" y="0" type="line"/>
      <point x="490" y="0" type="line"/>
    </contour>
    <contour>
      <point x="374" y="706" type="line"/>
      <point x="334" y="706" type="line"/>
      <point x="242" y="572" type="line"/>
      <point x="270" y="572" type="line"/>
    </contour>
  </outline>
</glyph>
<glyph name="ydieresis" format="1">
  <advance width="600"/>
  <unicode hex="00FF"/>
  <outline>
    <contour>
      <point x="77" y="-184" type="curve"/>
      <point x="67" y="-212" type="line"/>
      <point x="80" y="-218"/>
      <point x="104" y="-222"/>
      <point x="122" y="-222" type="curve" smooth="yes"/>
      <point x="220" y="-222"/>
      <point x="280" y="-142"/>
      <point x="306" y="-68" type="curve"/>
      <point x="536" y="478" type="line"/>
      <point x="506" y="478" type="line"/>
      <point x="374" y="164" type="line" smooth="yes"/>
      <point x="357" y="124"/>
      <point x="336" y="72"/>
      <point x="316" y="30" type="curve"/>
      <point x="312" y="30" type="line"/>
      <point x="288" y="72"/>
      <point x="263" y="124"/>
      <point x="244" y="164" type="curve" smooth="yes"/>
      <point x="96" y="478" type="line"/>
      <point x="64" y="478" type="line"/>
      <point x="300" y="-12" type="line"/>
      <point x="282" y="-56" type="line" smooth="yes"/>
      <point x="251" y="-134"/>
      <point x="202" y="-192"/>
      <point x="125" y="-192" type="curve" smooth="yes"/>
      <point x="107" y="-192"/>
      <point x="89" y="-188"/>
    </contour>
    <contour>
      <point x="216" y="602" type="curve" smooth="yes"/>
      <point x="236" y="602"/>
      <point x="250" y="618"/>
      <point x="250" y="638" type="curve" smooth="yes"/>
      <point x="250" y="658"/>
      <point x="236" y="674"/>
      <point x="216" y="674" type="curve" smooth="yes"/>
      <point x="196" y="674"/>
      <point x="182" y="658"/>
      <point x="182" y="638" type="curve" smooth="yes"/>
      <point x="182" y="618"/>
      <point x="196" y="602"/>
    </contour>
    <contour>
      <point x="388" y="602" type="curve" smooth="yes"/>
      <point x="408" y="602"/>
      <point x="422" y="618"/>
      <point x="422" y="638" type="curve" smooth="yes"/>
      <point x="422" y="658"/>
      <point x="408" y="674"/>
      <point x="388" y="674" type="curve" smooth="yes"/>
      <point x="368" y="674"/>
      <point x="354" y="658"/>
      <point x="354" y="638" type="curve" smooth="yes"/>
      <point x="354" y="618"/>
      <point x="368" y="602"/>
    </contour>
  </outline>
</glyph>
<glyph name="Cdotaccent" format="1">
  <advance width="600"/>
  <unicode hex="010A"/>
  <outline>
    <contour>
      <point x="74" y="332" type="curve" smooth="yes"/>
      <point x="74" y="124"/>
      <point x="185" y="-12"/>
      <point x="347" y="-12" type="curve" smooth="yes"/>
      <point x="433" y="-12"/>
      <point x="491" y="24"/>
      <point x="541" y="82" type="curve"/>
      <point x="521" y="102" type="line"/>
      <point x="471" y="46"/>
      <point x="419" y="18"/>
      <point x="349" y="18" type="curve" smooth="yes"/>
      <point x="201" y="18"/>
      <point x="108" y="142"/>
      <point x="108" y="332" type="curve" smooth="yes"/>
      <point x="108" y="522"/>
      <point x="201" y="642"/>
      <point x="353" y="642" type="curve" smooth="yes"/>
      <point x="415" y="642"/>
      <point x="465" y="614"/>
      <point x="501" y="572" type="curve"/>
      <point x="521" y="594" type="line"/>
      <point x="487" y="634"/>
      <point x="429" y="672"/>
      <point x="353" y="672" type="curve" smooth="yes"/>
      <point x="185" y="672"/>
      <point x="74" y="540"/>
    </contour>
    <contour>
      <point x="342" y="724" type="curve" smooth="yes"/>
      <point x="360" y="724"/>
      <point x="376" y="738"/>
      <point x="376" y="760" type="curve" smooth="yes"/>
      <point x="376" y="780"/>
      <point x="360" y="794"/>
      <point x="342" y="794" type="curve" smooth="yes"/>
      <point x="324" y="794"/>
      <point x="308" y="780"/>
      <point x="308" y="760" type="curve" smooth="yes"/>
      <point x="308" y="738"/>
      <point x="324" y="724"/>
    </contour>
  </outline>
</glyph>
<glyph name="dcaron" format="1">
  <advance width="600"/>
  <unicode hex="010F"/>
  <outline>
    <contour>
      <point x="70" y="238" type="curve" smooth="yes"/>
      <point x="70" y="76"/>
      <point x="156" y="-12"/>
      <point x="282" y="-12" type="curve" smooth="yes"/>
      <point x="352" y="-12"/>
      <point x="415" y="29"/>
      <point x="458" y="74" type="curve"/>
      <point x="460" y="74" type="line"/>
      <point x="464" y="0" type="line"/>
      <point x="490" y="0" type="line"/>
      <point x="490" y="722" type="line"/>
      <point x="460" y="722" type="line"/>
      <point x="460" y="520" type="line"/>
      <point x="462" y="420" type="line"/>
      <point x="409" y="464"/>
      <point x="360" y="490"/>
      <point x="298" y="490" type="curve" smooth="yes"/>
      <point x="177" y="490"/>
      <point x="70" y="392"/>
    </contour>
    <contour>
      <point x="102" y="238" type="curve" smooth="yes"/>
      <point x="102" y="362"/>
      <point x="188" y="462"/>
      <point x="296" y="462" type="curve" smooth="yes"/>
      <point x="349" y="462"/>
      <point x="402" y="441"/>
      <point x="460" y="386" type="curve"/>
      <point x="460" y="110" type="line"/>
      <point x="403" y="50"/>
      <point x="343" y="16"/>
      <point x="284" y="16" type="curve" smooth="yes"/>
      <point x="170" y="16"/>
      <point x="102" y="106"/>
    </contour>
    <contour>
      <point x="561" y="548" type="line"/>
      <point x="567" y="704" type="line"/>
      <point x="567" y="752" type="line"/>
      <point x="537" y="752" type="line"/>
      <point x="539" y="548" type="line"/>
    </contour>
  </outline>
</glyph>
<glyph name="Emacron" format="1">
  <advance width="600"/>
  <unicode hex="0112"/>
  <outline>
    <contour>
      <point x="132" y="0" type="line"/>
      <point x="526" y="0" type="line"/>
      <point x="526" y="28" type="line"/>
      <point x="164" y="28" type="line"/>
      <point x="164" y="338" type="line"/>
      <point x="460" y="338" type="line"/>
      <point x="460" y="366" type="line"/>
      <point x="164" y="366" type="line"/>
      <point x="164" y="632" type="line"/>
      <point x="516" y="632" type="line"/>
      <point x="516" y="660" type="line"/>
      <point x="132" y="660" type="line"/>
    </contour>
    <contour>
      <point x="228" y="736" type="line"/>
      <point x="448" y="736" type="line"/>
      <point x="448" y="764" type="line"/>
      <point x="228" y="764" type="line"/>
    </contour>
  </outline>
</glyph>
<glyph name="Ebreve" format="1">
  <advance width="600"/>
  <unicode hex="0114"/>
  <outline>
    <contour>
      <point x="132" y="0" type="line"/>
      <point x="526" y="0" type="line"/>
      <point x="526" y="28" type="line"/>
      <point x="164" y="28" type="line"/>
      <point x="164" y="338" type="line"/>
      <point x="460" y="338" type="line"/>
      <point x="460" y="366" type="line"/>
      <point x="164" y="366" type="line"/>
      <point x="164" y="632" type="line"/>
      <point x="516" y="632" type="line"/>
      <point x="516" y="660" type="line"/>
      <point x="132" y="660" type="line"/>
    </contour>
    <contour>
      <point x="338" y="712" type="curve" smooth="yes"/>
      <point x="412" y="712"/>
      <point x="444" y="772"/>
      <point x="450" y="814" type="curve"/>
      <point x="424" y="814" type="line"/>
      <point x="418" y="778"/>
      <point x="392" y="738"/>
      <point x="338" y="738" type="curve" smooth="yes"/>
      <point x="284" y="738"/>
      <point x="258" y="778"/>
      <point x="252" y="814" type="curve"/>
      <point x="226" y="814" type="line"/>
      <point x="232" y="772"/>
      <point x="264" y="712"/>
    </contour>
  </outline>
</glyph>
<glyph name="ebreve" format="1">
  <advance width="600"/>
  <unicode hex="0115"/>
  <outline>
    <contour>
      <point x="80" y="238" type="curve" smooth="yes"/>
      <point x="80" y="82"/>
      <point x="194" y="-12"/>
      <point x="330" y="-12" type="curve" smooth="yes"/>
      <point x="417" y="-12"/>
      <point x="468" y="17"/>
      <point x="510" y="44" type="curve"/>
      <point x="496" y="70" type="line"/>
      <point x="451" y="38"/>
      <point x="398" y="16"/>
      <point x="332" y="16" type="curve" smooth="yes"/>
      <point x="200" y="16"/>
      <point x="112" y="110"/>
      <point x="112" y="238" type="curve"/>
      <point x="528" y="238" type="line"/>
      <point x="530" y="250"/>
      <point x="530" y="260"/>
      <point x="530" y="270" type="curve" smooth="yes"/>
      <point x="530" y="408"/>
      <point x="446" y="490"/>
      <point x="318" y="490" type="curve" smooth="yes"/>
      <point x="197" y="490"/>
      <point x="80" y="394"/>
    </contour>
    <contour>
      <point x="112" y="264" type="line"/>
      <point x="125" y="386"/>
      <point x="217" y="462"/>
      <point x="318" y="462" type="curve" smooth="yes"/>
      <point x="426" y="462"/>
      <point x="500" y="396"/>
      <point x="500" y="264" type="curve"/>
    </contour>
    <contour>
      <point x="316" y="576" type="curve" smooth="yes"/>
      <point x="396" y="576"/>
      <point x="426" y="644"/>
      <point x="432" y="692" type="curve"/>
      <point x="406" y="692" type="line"/>
      <point x="400" y="648"/>
      <point x="372" y="602"/>
      <point x="316" y="602" type="curve" smooth="yes"/>
      <point x="260" y="602"/>
      <point x="232" y="648"/>
      <point x="226" y="692" type="curve"/>
      <point x="200" y="692" type="line"/>
      <point x="206" y="644"/>
      <point x="236" y="576"/>
    </contour>
  </outline>
</glyph>
<glyph name="Gcircumflex" format="1">
  <advance width="600"/>
  <unicode hex="011C"/>
  <outline>
    <contour>
      <point x="61" y="332" type="curve" smooth="yes"/>
      <point x="61" y="124"/>
      <point x="169" y="-12"/>
      <point x="333" y="-12" type="curve" smooth="yes"/>
      <point x="418" y="-12"/>
      <point x="482" y="18"/>
      <point x="522" y="62" type="curve"/>
      <point x="522" y="318" type="line"/>
      <point x="329" y="318" type="line"/>
      <point x="329" y="290" type="line"/>
      <point x="489" y="290" type="line"/>
      <point x="489" y="72" type="line"/>
      <point x="456" y="38"/>
      <point x="398" y="18"/>
      <point x="335" y="18" type="curve" smooth="yes"/>
      <point x="185" y="18"/>
      <point x="95" y="142"/>
      <point x="95" y="332" type="curve" smooth="yes"/>
      <point x="95" y="522"/>
      <point x="189" y="642"/>
      <point x="343" y="642" type="curve" smooth="yes"/>
      <point x="415" y="642"/>
      <point x="462" y="610"/>
      <point x="496" y="572" type="curve"/>
      <point x="516" y="594" type="line"/>
      <point x="482" y="630"/>
      <point x="429" y="672"/>
      <point x="343" y="672" type="curve" smooth="yes"/>
      <point x="173" y="672"/>
      <point x="61" y="540"/>
    </contour>
    <contour>
      <point x="252" y="710" type="line"/>
      <point x="330" y="784" type="line"/>
      <point x="334" y="784" type="line"/>
      <point x="412" y="710" type="line"/>
      <point x="442" y="710" type="line"/>
      <point x="346" y="814" type="line"/>
      <point x="318" y="814" type="line"/>
      <point x="222" y="710" type="line"/>
    </contour>
  </outline>
</glyph>
<glyph name="Gbreve" format="1">
  <advance width="600"/>
  <unicode hex="011E"/>
  <outline>
    <contour>
      <point x="61" y="332" type="curve" smooth="yes"/>
      <point x="61" y="124"/>
      <point x="169" y="-12"/>
      <point x="333" y="-12" type="curve" smooth="yes"/>
      <point x="418" y="-12"/>
      <point x="482" y="18"/>
      <point x="522" y="62" type="curve"/>
      <point x="522" y="318" type="line"/>
      <point x="329" y="318" type="line"/>
      <point x="329" y="290" type="line"/>
      <point x="489" y="290" type="line"/>
      <point x="489" y="72" type="line"/>
      <point x="456" y="38"/>
      <point x="398" y="18"/>
      <point x="335" y="18" type="curve" smooth="yes"/>
      <point x="185" y="18"/>
      <point x="95" y="142"/>
      <point x="95" y="332" type="curve" smooth="yes"/>
      <point x="95" y="522"/>
      <point x="189" y="642"/>
      <point x="343" y="642" type="curve" smooth="yes"/>
      <point x="415" y="642"/>
      <point x="462" y="610"/>
      <point x="496" y="572" type="curve"/>
      <point x="516" y="594" type="line"/>
      <point x="482" y="630"/>
      <point x="429" y="672"/>
      <point x="343" y="672" type="curve" smooth="yes"/>
      <point x="173" y="672"/>
      <point x="61" y="540"/>
    </contour>
    <contour>
      <point x="332" y="712" type="curve" smooth="yes"/>
      <point x="406" y="712"/>
      <point x="438" y="772"/>
      <point x="444" y="814" type="curve"/>
      <point x="418" y="814" type="line"/>
      <point x="412" y="778"/>
      <point x="386" y="738"/>
      <point x="332" y="738" type="curve" smooth="yes"/>
      <point x="278" y="738"/>
      <point x="252" y="778"/>
      <point x="246" y="814" type="curve"/>
      <point x="220" y="814" type="line"/>
      <point x="226" y="772"/>
      <point x="258" y="712"/>
    </contour>
  </outline>
</glyph>
<glyph name="Gdotaccent" format="1">
  <advance width="600"/>
  <unicode hex="0120"/>
  <outline>
    <contour>
      <point x="61" y="332" type="curve" smooth="yes"/>
      <point x="61" y="124"/>
      <point x="169" y="-12"/>
      <point x="333" y="-12" type="curve" smooth="yes"/>
      <point x="418" y="-12"/>
      <point x="482" y="18"/>
      <point x="522" y="62" type="curve"/>
      <point x="522" y="318" type="line"/>
      <point x="329" y="318" type="line"/>
      <point x="329" y="290" type="line"/>
      <point x="489" y="290" type="line"/>
      <point x="489" y="72" type="line"/>
      <point x="456" y="38"/>
      <point x="398" y="18"/>
      <point x="335" y="18" type="curve" smooth="yes"/>
      <point x="185" y="18"/>
      <point x="95" y="142"/>
      <point x="95" y="332" type="curve" smooth="yes"/>
      <point x="95" y="522"/>
      <point x="189" y="642"/>
      <point x="343" y="642" type="curve" smooth="yes"/>
      <point x="415" y="642"/>
      <point x="462" y="610"/>
      <point x="496" y="572" type="curve"/>
      <point x="516" y="594" type="line"/>
      <point x="482" y="630"/>
      <point x="429" y="672"/>
      <point x="343" y="672" type="curve" smooth="yes"/>
      <point x="173" y="672"/>
      <point x="61" y="540"/>
    </contour>
    <contour>
      <point x="332" y="724" type="curve" smooth="yes"/>
      <point x="350" y="724"/>
      <point x="366" y="738"/>
      <point x="366" y="760" type="curve" smooth="yes"/>
      <point x="366" y="780"/>
      <point x="350" y="794"/>
      <point x="332" y="794" type="curve" smooth="yes"/>
      <point x="314" y="794"/>
      <point x="298" y="780"/>
      <point x="298" y="760" type="curve" smooth="yes"/>
      <point x="298" y="738"/>
      <point x="314" y="724"/>
    </contour>
  </outline>
</glyph>
<glyph name="Hbar" format="1">
  <advance width="600"/>
  <unicode hex="0126"/>
  <outline>
    <contour>
      <point x="476" y="366" type="line"/>
      <point x="124" y="366" type="line"/>
      <point x="124" y="496" type="line"/>
      <point x="476" y="496" type="line"/>
    </contour>
    <contour>
      <point x="584" y="524" type="line"/>
      <point x="508" y="524" type="line"/>
      <point x="508" y="660" type="line"/>
      <point x="476" y="660" type="line"/>
      <point x="476" y="524" type="line"/>
      <point x="124" y="524" type="line"/>
      <point x="124" y="660" type="line"/>
      <point x="92" y="660" type="line"/>
      <point x="92" y="524" type="line"/>
      <point x="16" y="520" type="line"/>
      <point x="16" y="496" type="line"/>
      <point x="92" y="496" type="line"/>
      <point x="92" y="0" type="line"/>
      <point x="124" y="0" type="line"/>
      <point x="124" y="338" type="line"/>
      <point x="476" y="338" type="line"/>
      <point x="476" y="0" type="line"/>
      <point x="508" y="0" type="line"/>
      <point x="508" y="496" type="line"/>
      <point x="584" y="496" type="line"/>
    </contour>
  </outline>
</glyph>
<glyph name="imacron" format="1">
  <advance width="600"/>
  <unicode hex="012B"/>
  <outline>
    <contour>
      <point x="100" y="450" type="line"/>
      <point x="346" y="450" type="line"/>
      <point x="346" y="0" type="line"/>
      <point x="376" y="0" type="line"/>
      <point x="376" y="478" type="line"/>
      <point x="100" y="478" type="line"/>
    </contour>
    <contour>
      <point x="240" y="608" type="line"/>
      <point x="460" y="608" type="line"/>
      <point x="460" y="636" type="line"/>
      <point x="240" y="636" type="line"/>
    </contour>
  </outline>
</glyph>
<glyph name="ibreve" format="1">
  <advance width="600"/>
  <unicode hex="012D"/>
  <outline>
    <contour>
      <point x="100" y="450" type="line"/>
      <point x="346" y="450" type="line"/>
      <point x="346" y="0" type="line"/>
      <point x="376" y="0" type="line"/>
      <point x="376" y="478" type="line"/>
      <point x="100" y="478" type="line"/>
    </contour>
    <contour>
      <point x="350" y="576" type="curve" smooth="yes"/>
      <point x="430" y="576"/>
      <point x="460" y="644"/>
      <point x="466" y="692" type="curve"/>
      <point x="440" y="692" type="line"/>
      <point x="434" y="648"/>
      <point x="406" y="602"/>
      <point x="350" y="602" type="curve" smooth="yes"/>
      <point x="294" y="602"/>
      <point x="266" y="648"/>
      <point x="260" y="692" type="curve"/>
      <point x="234" y="692" type="line"/>
      <point x="240" y="644"/>
      <point x="270" y="576"/>
    </contour>
  </outline>
</glyph>
<glyph name="IJ" format="1">
  <advance width="464"/>
  <unicode hex="0132"/>
  <outline>
    <contour>
      <point x="100" y="0" type="line"/>
      <point x="132" y="0" type="line"/>
      <point x="132" y="660" type="line"/>
      <point x="100" y="660" type="line"/>
    </contour>
    <contour>
      <point x="264" y="-152" type="curve" smooth="yes"/>
      <point x="330" y="-152"/>
      <point x="364" y="-112"/>
      <point x="364" y="-20" type="curve" smooth="yes"/>
      <point x="364" y="660" type="line"/>
      <point x="332" y="660" type="line"/>
      <point x="332" y="-12" type="line" smooth="yes"/>
      <point x="332" y="-74"/>
      <point x="322" y="-120"/>
      <point x="266" y="-120" type="curve" smooth="yes"/>
      <point x="246" y="-120"/>
      <point x="226" y="-114"/>
      <point x="214" y="-110" type="curve"/>
      <point x="206" y="-140" type="line"/>
      <point x="220" y="-146"/>
      <point x="244" y="-152"/>
    </contour>
  </outline>
</glyph>
<glyph name="ij" format="1">
  <advance width="600"/>
  <unicode hex="0133"/>
  <outline>
    <contour>
      <point x="140" y="0" type="line"/>
      <point x="170" y="0" type="line"/>
      <point x="170" y="478" type="line"/>
      <point x="140" y="478" type="line"/>
    </contour>
    <contour>
      <point x="156" y="600" type="curve" smooth="yes"/>
      <point x="174" y="600"/>
      <point x="190" y="614"/>
      <point x="190" y="634" type="curve" smooth="yes"/>
      <point x="190" y="656"/>
      <point x="174" y="668"/>
      <point x="156" y="668" type="curve" smooth="yes"/>
      <point x="138" y="668"/>
      <point x="122" y="656"/>
      <point x="122" y="634" type="curve" smooth="yes"/>
      <point x="122" y="614"/>
      <point x="138" y="600"/>
    </contour>
    <contour>
      <point x="382" y="-234" type="curve" smooth="yes"/>
      <point x="448" y="-234"/>
      <point x="480" y="-194"/>
      <point x="480" y="-102" type="curve" smooth="yes"/>
      <point x="480" y="478" type="line"/>
      <point x="450" y="478" type="line"/>
      <point x="450" y="-98" type="line" smooth="yes"/>
      <point x="450" y="-160"/>
      <point x="440" y="-206"/>
      <point x="384" y="-206" type="curve" smooth="yes"/>
      <point x="364" y="-206"/>
      <point x="344" y="-200"/>
      <point x="332" y="-196" type="curve"/>
      <point x="324" y="-222" type="line"/>
      <point x="338" y="-228"/>
      <point x="362" y="-234"/>
    </contour>
    <contour>
      <point x="466" y="600" type="curve" smooth="yes"/>
      <point x="484" y="600"/>
      <point x="500" y="614"/>
      <point x="500" y="634" type="curve" smooth="yes"/>
      <point x="500" y="656"/>
      <point x="484" y="668"/>
      <point x="466" y="668" type="curve" smooth="yes"/>
      <point x="448" y="668"/>
      <point x="432" y="656"/>
      <point x="432" y="634" type="curve" smooth="yes"/>
      <point x="432" y="614"/>
      <point x="448" y="600"/>
    </contour>
  </outline>
</glyph>
<glyph name="Jcircumflex" format="1">
  <advance width="600"/>
  <unicode hex="0134"/>
  <outline>
    <contour>
      <point x="98" y="98" type="line"/>
      <point x="134" y="25"/>
      <point x="203" y="-12"/>
      <point x="278" y="-12" type="curve" smooth="yes"/>
      <point x="427" y="-12"/>
      <point x="475" y="83"/>
      <point x="475" y="201" type="curve" smooth="yes"/>
      <point x="475" y="661" type="line"/>
      <point x="152" y="661" type="line"/>
      <point x="152" y="634" type="line"/>
      <point x="443" y="634" type="line"/>
      <point x="443" y="204" type="line" smooth="yes"/>
      <point x="443" y="80"/>
      <point x="394" y="17"/>
      <point x="279" y="17" type="curve" smooth="yes"/>
      <point x="222" y="17"/>
      <point x="166" y="48"/>
      <point x="128" y="115" type="curve"/>
    </contour>
    <contour>
      <point x="240" y="710" type="line"/>
      <point x="318" y="784" type="line"/>
      <point x="322" y="784" type="line"/>
      <point x="400" y="710" type="line"/>
      <point x="430" y="710" type="line"/>
      <point x="334" y="814" type="line"/>
      <point x="306" y="814" type="line"/>
      <point x="210" y="710" type="line"/>
    </contour>
  </outline>
</glyph>
<glyph name="jcircumflex" format="1">
  <advance width="600"/>
  <unicode hex="0135"/>
  <outline>
    <contour>
      <point x="100" y="450" type="line"/>
      <point x="346" y="450" type="line"/>
      <point x="346" y="-52" type="line" smooth="yes"/>
      <point x="346" y="-143"/>
      <point x="316" y="-206"/>
      <point x="199" y="-206" type="curve" smooth="yes"/>
      <point x="156" y="-206"/>
      <point x="111" y="-192"/>
      <point x="80" y="-176" type="curve"/>
      <point x="66" y="-202" type="line"/>
      <point x="101" y="-220"/>
      <point x="151" y="-234"/>
      <point x="194" y="-234" type="curve" smooth="yes"/>
      <point x="332" y="-234"/>
      <point x="376" y="-164"/>
      <point x="376" y="-46" type="curve" smooth="yes"/>
      <point x="376" y="478" type="line"/>
      <point x="100" y="478" type="line"/>
    </contour>
    <contour>
      <point x="242" y="572" type="line"/>
      <point x="270" y="572" type="line"/>
      <point x="348" y="674" type="line"/>
      <point x="352" y="674" type="line"/>
      <point x="430" y="572" type="line"/>
      <point x="458" y="572" type="line"/>
      <point x="364" y="706" type="line"/>
      <point x="336" y="706" type="line"/>
    </contour>
  </outline>
</glyph>
<glyph name="kcommaaccent" format="1">
  <advance width="600"/>
  <unicode hex="0137"/>
  <outline>
    <contour>
      <point x="130" y="0" type="line"/>
      <point x="160" y="0" type="line"/>
      <point x="160" y="136" type="line"/>
      <point x="308" y="276" type="line"/>
      <point x="528" y="0" type="line"/>
      <point x="564" y="0" type="line"/>
      <point x="332" y="294" type="line"/>
      <point x="530" y="478" type="line"/>
      <point x="490" y="478" type="line"/>
      <point x="162" y="176" type="line"/>
      <point x="160" y="174" type="line"/>
      <point x="160" y="722" type="line"/>
      <point x="130" y="722" type="line"/>
    </contour>
    <contour>
      <point x="320" y="-52" type="curve"/>
      <point x="310" y="-78" type="line"/>
      <point x="338" y="-84"/>
      <point x="368" y="-96"/>
      <point x="368" y="-128" type="curve" smooth="yes"/>
      <point x="368" y="-156"/>
      <point x="330" y="-172"/>
      <point x="274" y="-180" type="curve"/>
      <point x="280" y="-206" type="line"/>
      <point x="340" y="-198"/>
      <point x="398" y="-174"/>
      <point x="398" y="-124" type="curve" smooth="yes"/>
      <point x="398" y="-84"/>
      <point x="370" y="-64"/>
    </contour>
  </outline>
</glyph>
<glyph name="kgreenlandic" format="1">
  <advance width="600"/>
  <unicode hex="0138"/>
  <outline>
    <contour>
      <point x="130" y="0" type="line"/>
      <point x="160" y="0" type="line"/>
      <point x="160" y="136" type="line"/>
      <point x="308" y="276" type="line"/>
      <point x="528" y="0" type="line"/>
      <point x="564" y="0" type="line"/>
      <point x="332" y="294" type="line"/>
      <point x="530" y="478" type="line"/>
      <point x="490" y="478" type="line"/>
      <point x="162" y="176" type="line"/>
      <point x="160" y="174" type="line"/>
      <point x="160" y="478" type="line"/>
      <point x="130" y="478" type="line"/>
    </contour>
  </outline>
</glyph>
<glyph name="lcommaaccent" format="1">
  <advance width="600"/>
  <unicode hex="013C"/>
  <outline>
    <contour>
      <point x="97" y="694" type="line"/>
      <point x="280" y="694" type="line"/>
      <point x="280" y="138" type="line" smooth="yes"/>
      <point x="280" y="31"/>
      <point x="329" y="-12"/>
      <point x="415" y="-12" type="curve" smooth="yes"/>
      <point x="461" y="-12"/>
      <point x="494" y="3"/>
      <point x="532" y="18" type="curve"/>
      <point x="520" y="43" type="line"/>
      <point x="480" y="24"/>
      <point x="449" y="16"/>
      <point x="417" y="16" type="curve" smooth="yes"/>
      <point x="345" y="16"/>
      <point x="310" y="54"/>
      <point x="310" y="132" type="curve" smooth="yes"/>
      <point x="310" y="722" type="line"/>
      <point x="97" y="722" type="line"/>
    </contour>
    <contour>
      <point x="354" y="-52" type="curve"/>
      <point x="344" y="-78" type="line"/>
      <point x="372" y="-84"/>
      <point x="402" y="-96"/>
      <point x="402" y="-128" type="curve" smooth="yes"/>
      <point x="402" y="-156"/>
      <point x="364" y="-172"/>
      <point x="308" y="-180" type="curve"/>
      <point x="314" y="-206" type="line"/>
      <point x="374" y="-198"/>
      <point x="432" y="-174"/>
      <point x="432" y="-124" type="curve" smooth="yes"/>
      <point x="432" y="-84"/>
      <point x="404" y="-64"/>
    </contour>
  </outline>
</glyph>
<glyph name="Lcaron" format="1">
  <advance width="600"/>
  <unicode hex="013D"/>
  <outline>
    <contour>
      <point x="156" y="0" type="line"/>
      <point x="538" y="0" type="line"/>
      <point x="538" y="28" type="line"/>
      <point x="186" y="28" type="line"/>
      <point x="186" y="660" type="line"/>
      <point x="156" y="660" type="line"/>
    </contour>
    <contour>
      <point x="414" y="518" type="line"/>
      <point x="420" y="674" type="line"/>
      <point x="420" y="722" type="line"/>
      <point x="390" y="722" type="line"/>
      <point x="392" y="518" type="line"/>
    </contour>
  </outline>
</glyph>
<glyph name="Ldot" format="1">
  <advance width="600"/>
  <unicode hex="013F"/>
  <outline>
    <contour>
      <point x="156" y="0" type="line"/>
      <point x="538" y="0" type="line"/>
      <point x="538" y="28" type="line"/>
      <point x="186" y="28" type="line"/>
      <point x="186" y="660" type="line"/>
      <point x="156" y="660" type="line"/>
    </contour>
    <contour>
      <point x="412" y="300" type="curve" smooth="yes"/>
      <point x="434" y="300"/>
      <point x="452" y="316"/>
      <point x="452" y="342" type="curve" smooth="yes"/>
      <point x="452" y="368"/>
      <point x="434" y="384"/>
      <point x="412" y="384" type="curve" smooth="yes"/>
      <point x="390" y="384"/>
      <point x="372" y="368"/>
      <point x="372" y="342" type="curve" smooth="yes"/>
      <point x="372" y="316"/>
      <point x="390" y="300"/>
    </contour>
  </outline>
</glyph>
<glyph name="ldot" format="1">
  <advance width="600"/>
  <unicode hex="0140"/>
  <outline>
    <contour>
      <point x="67" y="694" type="line"/>
      <point x="250" y="694" type="line"/>
      <point x="250" y="138" type="line" smooth="yes"/>
      <point x="250" y="31"/>
      <point x="299" y="-12"/>
      <point x="385" y="-12" type="curve" smooth="yes"/>
      <point x="431" y="-12"/>
      <point x="464" y="3"/>
      <point x="502" y="18" type="curve"/>
      <point x="490" y="43" type="line"/>
      <point x="450" y="24"/>
      <point x="419" y="16"/>
      <point x="387" y="16" type="curve" smooth="yes"/>
      <point x="315" y="16"/>
      <point x="280" y="54"/>
      <point x="280" y="132" type="curve" smooth="yes"/>
      <point x="280" y="722" type="line"/>
      <point x="67" y="722" type="line"/>
    </contour>
    <contour>
      <point x="410" y="300" type="curve" smooth="yes"/>
      <point x="432" y="300"/>
      <point x="450" y="316"/>
      <point x="450" y="342" type="curve" smooth="yes"/>
      <point x="450" y="368"/>
      <point x="432" y="384"/>
      <point x="410" y="384" type="curve" smooth="yes"/>
      <point x="388" y="384"/>
      <point x="370" y="368"/>
      <point x="370" y="342" type="curve" smooth="yes"/>
      <point x="370" y="316"/>
      <point x="388" y="300"/>
    </contour>
  </outline>
</glyph>
<glyph name="Nacute" format="1">
  <advance width="600"/>
  <unicode hex="0143"/>
  <outline>
    <contour>
      <point x="96" y="0" type="line"/>
      <point x="126" y="0" type="line"/>
      <point x="126" y="433" type="line" smooth="yes"/>
      <point x="126" y="495"/>
      <point x="123" y="551"/>
      <point x="122" y="614" type="curve"/>
      <point x="124" y="614" type="line"/>
      <point x="197" y="486" type="line"/>
      <point x="471" y="0" type="line"/>
      <point x="504" y="0" type="line"/>
      <point x="504" y="660" type="line"/>
      <point x="474" y="660" type="line"/>
      <point x="474" y="231" type="line" smooth="yes"/>
      <point x="474" y="169"/>
      <point x="477" y="109"/>
      <point x="478" y="46" type="curve"/>
      <point x="476" y="46" type="line"/>
      <point x="403" y="174" type="line"/>
      <point x="129" y="660" type="line"/>
      <point x="96" y="660" type="line"/>
    </contour>
    <contour>
      <point x="412" y="814" type="line"/>
      <point x="368" y="814" type="line"/>
      <point x="274" y="710" type="line"/>
      <point x="304" y="710" type="line"/>
    </contour>
  </outline>
</glyph>
<glyph name="Ncommaaccent" format="1">
  <advance width="600"/>
  <unicode hex="0145"/>
  <outline>
    <contour>
      <point x="96" y="0" type="line"/>
      <point x="126" y="0" type="line"/>
      <point x="126" y="433" type="line" smooth="yes"/>
      <point x="126" y="495"/>
      <point x="123" y="551"/>
      <point x="122" y="614" type="curve"/>
      <point x="124" y="614" type="line"/>
      <point x="197" y="486" type="line"/>
      <point x="471" y="0" type="line"/>
      <point x="504" y="0" type="line"/>
      <point x="504" y="660" type="line"/>
      <point x="474" y="660" type="line"/>
      <point x="474" y="231" type="line" smooth="yes"/>
      <point x="474" y="169"/>
      <point x="477" y="109"/>
      <point x="478" y="46" type="curve"/>
      <point x="476" y="46" type="line"/>
      <point x="403" y="174" type="line"/>
      <point x="129" y="660" type="line"/>
      <point x="96" y="660" type="line"/>
    </contour>
    <contour>
      <point x="276" y="-52" type="curve"/>
      <point x="266" y="-78" type="line"/>
      <point x="294" y="-84"/>
      <point x="324" y="-96"/>
      <point x="324" y="-128" type="curve" smooth="yes"/>
      <point x="324" y="-156"/>
      <point x="286" y="-172"/>
      <point x="230" y="-180" type="curve"/>
      <point x="236" y="-206" type="line"/>
      <point x="296" y="-198"/>
      <point x="354" y="-174"/>
      <point x="354" y="-124" type="curve" smooth="yes"/>
      <point x="354" y="-84"/>
      <point x="326" y="-64"/>
    </contour>
  </outline>
</glyph>
<glyph name="ncommaaccent" format="1">
  <advance width="600"/>
  <unicode hex="0146"/>
  <outline>
    <contour>
      <point x="110" y="0" type="line"/>
      <point x="140" y="0" type="line"/>
      <point x="140" y="346" type="line"/>
      <point x="214" y="424"/>
      <point x="264" y="462"/>
      <point x="336" y="462" type="curve" smooth="yes"/>
      <point x="437" y="462"/>
      <point x="480" y="407"/>
      <point x="480" y="294" type="curve" smooth="yes"/>
      <point x="480" y="0" type="line"/>
      <point x="510" y="0" type="line"/>
      <point x="510" y="298" type="line" smooth="yes"/>
      <point x="510" y="429"/>
      <point x="453" y="490"/>
      <point x="336" y="490" type="curve" smooth="yes"/>
      <point x="258" y="490"/>
      <point x="201" y="444"/>
      <point x="144" y="382" type="curve"/>
      <point x="140" y="382" type="line"/>
      <point x="136" y="478" type="line"/>
      <point x="110" y="478" type="line"/>
    </contour>
    <contour>
      <point x="294" y="-52" type="curve"/>
      <point x="284" y="-78" type="line"/>
      <point x="312" y="-84"/>
      <point x="342" y="-96"/>
      <point x="342" y="-128" type="curve" smooth="yes"/>
      <point x="342" y="-156"/>
      <point x="304" y="-172"/>
      <point x="248" y="-180" type="curve"/>
      <point x="254" y="-206" type="line"/>
      <point x="314" y="-198"/>
      <point x="372" y="-174"/>
      <point x="372" y="-124" type="curve" smooth="yes"/>
      <point x="372" y="-84"/>
      <point x="344" y="-64"/>
    </contour>
  </outline>
</glyph>
<glyph name="Ncaron" format="1">
  <advance width="600"/>
  <unicode hex="0147"/>
  <outline>
    <contour>
      <point x="96" y="0" type="line"/>
      <point x="126" y="0" type="line"/>
      <point x="126" y="433" type="line" smooth="yes"/>
      <point x="126" y="495"/>
      <point x="123" y="551"/>
      <point x="122" y="614" type="curve"/>
      <point x="124" y="614" type="line"/>
      <point x="197" y="486" type="line"/>
      <point x="471" y="0" type="line"/>
      <point x="504" y="0" type="line"/>
      <point x="504" y="660" type="line"/>
      <point x="474" y="660" type="line"/>
      <point x="474" y="231" type="line" smooth="yes"/>
      <point x="474" y="169"/>
      <point x="477" y="109"/>
      <point x="478" y="46" type="curve"/>
      <point x="476" y="46" type="line"/>
      <point x="403" y="174" type="line"/>
      <point x="129" y="660" type="line"/>
      <point x="96" y="660" type="line"/>
    </contour>
    <contour>
      <point x="386" y="814" type="line"/>
      <point x="308" y="740" type="line"/>
      <point x="304" y="740" type="line"/>
      <point x="226" y="814" type="line"/>
      <point x="196" y="814" type="line"/>
      <point x="292" y="710" type="line"/>
      <point x="320" y="710" type="line"/>
      <point x="416" y="814" type="line"/>
    </contour>
  </outline>
</glyph>
<glyph name="napostrophe" format="1">
  <advance width="600"/>
  <unicode hex="0149"/>
  <outline>
    <contour>
      <point x="16" y="398" type="line"/>
      <point x="84" y="438"/>
      <point x="134" y="518"/>
      <point x="134" y="611" type="curve" smooth="yes"/>
      <point x="134" y="667"/>
      <point x="101" y="700"/>
      <point x="66" y="700" type="curve" smooth="yes"/>
      <point x="33" y="700"/>
      <point x="10" y="675"/>
      <point x="10" y="642" type="curve" smooth="yes"/>
      <point x="10" y="610"/>
      <point x="32" y="586"/>
      <point x="64" y="586" type="curve" smooth="yes"/>
      <point x="75" y="586"/>
      <point x="86" y="591"/>
      <point x="96" y="598" type="curve"/>
      <point x="92" y="523"/>
      <point x="55" y="462"/>
      <point x="-2" y="422" type="curve"/>
    </contour>
    <contour>
      <point x="210" y="392" type="line"/>
      <point x="206" y="478" type="line"/>
      <point x="180" y="478" type="line"/>
      <point x="180" y="0" type="line"/>
      <point x="210" y="0" type="line"/>
      <point x="210" y="356" type="line"/>
      <point x="280" y="427"/>
      <point x="328" y="462"/>
      <point x="396" y="462" type="curve" smooth="yes"/>
      <point x="490" y="462"/>
      <point x="530" y="410"/>
      <point x="530" y="304" type="curve" smooth="yes"/>
      <point x="530" y="0" type="line"/>
      <point x="560" y="0" type="line"/>
      <point x="560" y="308" type="line" smooth="yes"/>
      <point x="560" y="432"/>
      <point x="506" y="490"/>
      <point x="396" y="490" type="curve" smooth="yes"/>
      <point x="322" y="490"/>
      <point x="268" y="448"/>
      <point x="214" y="392" type="curve"/>
    </contour>
  </outline>
</glyph>
<glyph name="Eng" format="1">
  <advance width="610"/>
  <unicode hex="014A"/>
  <outline>
    <contour>
      <point x="392" y="-12" type="curve" smooth="yes"/>
      <point x="471" y="-12"/>
      <point x="544" y="70"/>
      <point x="544" y="338" type="curve" smooth="yes"/>
      <point x="544.0" y="584.0"/>
      <point x="447.436363636" y="672.0"/>
      <point x="318" y="672" type="curve" smooth="yes"/>
      <point x="248.25" y="672.0"/>
      <point x="177.374539801" y="621.292958036"/>
      <point x="132" y="570" type="curve"/>
      <point x="132" y="660" type="line"/>
      <point x="100" y="660" type="line"/>
      <point x="100" y="0" type="line"/>
      <point x="132" y="0" type="line"/>
      <point x="132" y="532" type="line"/>
      <point x="176.471343516" y="589.318620532"/>
      <point x="255.957894737" y="642.0"/>
      <point x="316" y="642" type="curve" smooth="yes"/>
      <point x="429.510638298" y="642.0"/>
      <point x="510.0" y="574.0"/>
      <point x="510" y="338" type="curve" smooth="yes"/>
      <point x="510" y="98"/>
      <point x="455" y="20"/>
      <point x="390" y="20" type="curve" smooth="yes"/>
      <point x="366" y="20"/>
      <point x="350" y="24"/>
      <point x="334" y="32" type="curve"/>
      <point x="322" y="0" type="line"/>
      <point x="340" y="-8"/>
      <point x="369" y="-12"/>
    </contour>
    <contour>
      <point x="322" y="682" type="move" name="aboveUC"/>
    </contour>
  </outline>
</glyph>
<glyph name="eng" format="1">
  <advance width="600"/>
  <unicode hex="014B"/>
  <outline>
    <contour>
      <point x="412" y="-234" type="curve" smooth="yes"/>
      <point x="478" y="-234"/>
      <point x="510" y="-194"/>
      <point x="510" y="-102" type="curve" smooth="yes"/>
      <point x="510" y="-102"/>
      <point x="510" y="298"/>
      <point x="510" y="298" type="curve" smooth="yes"/>
      <point x="510" y="429"/>
      <point x="453" y="490"/>
      <point x="336" y="490" type="curve" smooth="yes"/>
      <point x="258" y="490"/>
      <point x="201" y="444"/>
      <point x="144" y="382" type="curve"/>
      <point x="140" y="382" type="line"/>
      <point x="136" y="478" type="line"/>
      <point x="110" y="478" type="line"/>
      <point x="110" y="0" type="line"/>
      <point x="140" y="0" type="line"/>
      <point x="140" y="346" type="line"/>
      <point x="214" y="424"/>
      <point x="264" y="462"/>
      <point x="336" y="462" type="curve" smooth="yes"/>
      <point x="437" y="462"/>
      <point x="480" y="407"/>
      <point x="480" y="294" type="curve" smooth="yes"/>
      <point x="480" y="294"/>
      <point x="480" y="-98"/>
      <point x="480" y="-98" type="curve" smooth="yes"/>
      <point x="480" y="-160"/>
      <point x="470" y="-206"/>
      <point x="414" y="-206" type="curve" smooth="yes"/>
      <point x="394" y="-206"/>
      <point x="374" y="-200"/>
      <point x="362" y="-196" type="curve"/>
      <point x="354" y="-222" type="line"/>
      <point x="368" y="-228"/>
      <point x="392" y="-234"/>
    </contour>
  </outline>
</glyph>
<glyph name="Obreve" format="1">
  <advance width="600"/>
  <unicode hex="014E"/>
  <outline>
    <contour>
      <point x="300" y="-12" type="curve" smooth="yes"/>
      <point x="442" y="-12"/>
      <point x="544" y="124"/>
      <point x="544" y="332" type="curve" smooth="yes"/>
      <point x="544" y="540"/>
      <point x="442" y="672"/>
      <point x="300" y="672" type="curve" smooth="yes"/>
      <point x="158" y="672"/>
      <point x="56" y="540"/>
      <point x="56" y="332" type="curve" smooth="yes"/>
      <point x="56" y="124"/>
      <point x="158" y="-12"/>
    </contour>
    <contour>
      <point x="300" y="18" type="curve" smooth="yes"/>
      <point x="175" y="18"/>
      <point x="90" y="142"/>
      <point x="90" y="332" type="curve" smooth="yes"/>
      <point x="90" y="522"/>
      <point x="175" y="642"/>
      <point x="300" y="642" type="curve" smooth="yes"/>
      <point x="425" y="642"/>
      <point x="510" y="522"/>
      <point x="510" y="332" type="curve" smooth="yes"/>
      <point x="510" y="142"/>
      <point x="425" y="18"/>
    </contour>
    <contour>
      <point x="300" y="712" type="curve" smooth="yes"/>
      <point x="374" y="712"/>
      <point x="406" y="772"/>
      <point x="412" y="814" type="curve"/>
      <point x="386" y="814" type="line"/>
      <point x="380" y="778"/>
      <point x="354" y="738"/>
      <point x="300" y="738" type="curve" smooth="yes"/>
      <point x="246" y="738"/>
      <point x="220" y="778"/>
      <point x="214" y="814" type="curve"/>
      <point x="188" y="814" type="line"/>
      <point x="194" y="772"/>
      <point x="226" y="712"/>
    </contour>
  </outline>
</glyph>
<glyph name="oe" format="1">
  <advance width="600"/>
  <unicode hex="0153"/>
  <outline>
    <contour>
      <point x="42" y="239" type="curve" smooth="yes"/>
      <point x="42" y="371"/>
      <point x="91" y="463"/>
      <point x="178" y="463" type="curve" smooth="yes"/>
      <point x="258" y="463"/>
      <point x="312" y="371"/>
      <point x="312" y="239" type="curve" smooth="yes"/>
      <point x="312" y="107"/>
      <point x="258" y="14"/>
      <point x="178" y="14" type="curve" smooth="yes"/>
      <point x="91" y="14"/>
      <point x="42" y="107"/>
    </contour>
    <contour>
      <point x="10" y="239" type="curve" smooth="yes"/>
      <point x="10" y="80"/>
      <point x="81" y="-12"/>
      <point x="180" y="-12" type="curve" smooth="yes"/>
      <point x="245" y="-12"/>
      <point x="298" y="37"/>
      <point x="326" y="128" type="curve"/>
      <point x="354" y="37"/>
      <point x="407" y="-12"/>
      <point x="479" y="-12" type="curve" smooth="yes"/>
      <point x="529" y="-12"/>
      <point x="559" y="10"/>
      <point x="586" y="28" type="curve"/>
      <point x="574" y="50" type="line"/>
      <point x="546" y="32"/>
      <point x="519" y="15"/>
      <point x="480" y="15" type="curve" smooth="yes"/>
      <point x="386" y="15"/>
      <point x="343" y="111"/>
      <point x="343" y="238" type="curve"/>
      <point x="598" y="238" type="line"/>
      <point x="600" y="258"/>
      <point x="600" y="270"/>
      <point x="600" y="282" type="curve" smooth="yes"/>
      <point x="600" y="394"/>
      <point x="557" y="490"/>
      <point x="470" y="490" type="curve" smooth="yes"/>
      <point x="396" y="490"/>
      <point x="354" y="436"/>
      <point x="326" y="348" type="curve"/>
      <point x="298" y="439"/>
      <point x="245" y="490"/>
      <point x="179" y="490" type="curve" smooth="yes"/>
      <point x="81" y="490"/>
      <point x="10" y="398"/>
    </contour>
    <contour>
      <point x="343" y="264" type="line"/>
      <point x="351" y="381"/>
      <point x="389" y="462"/>
      <point x="468" y="462" type="curve" smooth="yes"/>
      <point x="545" y="462"/>
      <point x="570" y="368"/>
      <point x="570" y="264" type="curve"/>
    </contour>
  </outline>
</glyph>
<glyph name="Scedilla" format="1">
  <advance width="600"/>
  <unicode hex="015E"/>
  <outline>
    <contour>
      <point x="274" y="382" type="line" smooth="yes"/>
      <point x="223" y="403"/>
      <point x="148" y="434"/>
      <point x="148" y="516" type="curve" smooth="yes"/>
      <point x="148" y="592"/>
      <point x="214" y="642"/>
      <point x="312" y="642" type="curve" smooth="yes"/>
      <point x="384" y="642"/>
      <point x="442" y="614"/>
      <point x="482" y="572" type="curve"/>
      <point x="502" y="594" type="line"/>
      <point x="462" y="635"/>
      <point x="396" y="672"/>
      <point x="312" y="672" type="curve" smooth="yes"/>
      <point x="200" y="672"/>
      <point x="116" y="608"/>
      <point x="116" y="514" type="curve" smooth="yes"/>
      <point x="116" y="416"/>
      <point x="200" y="377"/>
      <point x="260" y="352" type="curve" smooth="yes"/>
      <point x="362" y="306" type="line" smooth="yes"/>
      <point x="433" y="276"/>
      <point x="494" y="248"/>
      <point x="494" y="160" type="curve" smooth="yes"/>
      <point x="494" y="76"/>
      <point x="422" y="18"/>
      <point x="310" y="18" type="curve" smooth="yes"/>
      <point x="226" y="18"/>
      <point x="152" y="54"/>
      <point x="102" y="110" type="curve"/>
      <point x="80" y="88" type="line"/>
      <point x="130" y="32"/>
      <point x="203" y="-9"/>
      <point x="301" y="-12" type="curve"/>
      <point x="268" y="-74" type="line"/>
      <point x="306" y="-84"/>
      <point x="336" y="-96"/>
      <point x="336" y="-128" type="curve" smooth="yes"/>
      <point x="336" y="-156"/>
      <point x="298" y="-172"/>
      <point x="242" y="-180" type="curve"/>
      <point x="248" y="-206" type="line"/>
      <point x="308" y="-198"/>
      <point x="366" y="-174"/>
      <point x="366" y="-124" type="curve" smooth="yes"/>
      <point x="366" y="-84"/>
      <point x="338" y="-66"/>
      <point x="306" y="-56" type="curve"/>
      <point x="329" y="-11" type="line"/>
      <point x="448" y="-5"/>
      <point x="526" y="67"/>
      <point x="526" y="162" type="curve" smooth="yes"/>
      <point x="526" y="264"/>
      <point x="454" y="303"/>
      <point x="376" y="336" type="curve" smooth="yes"/>
    </contour>
  </outline>
</glyph>
<glyph name="Tcommaaccent" format="1">
  <advance width="600"/>
  <unicode hex="0162"/>
  <outline>
    <contour>
      <point x="284" y="0" type="line"/>
      <point x="316" y="0" type="line"/>
      <point x="316" y="632" type="line"/>
      <point x="550" y="632" type="line"/>
      <point x="550" y="660" type="line"/>
      <point x="50" y="660" type="line"/>
      <point x="50" y="632" type="line"/>
      <point x="284" y="632" type="line"/>
    </contour>
    <contour>
      <point x="277" y="-52" type="curve"/>
      <point x="267" y="-78" type="line"/>
      <point x="295" y="-84"/>
      <point x="325" y="-96"/>
      <point x="325" y="-128" type="curve" smooth="yes"/>
      <point x="325" y="-156"/>
      <point x="287" y="-172"/>
      <point x="231" y="-180" type="curve"/>
      <point x="237" y="-206" type="line"/>
      <point x="297" y="-198"/>
      <point x="355" y="-174"/>
      <point x="355" y="-124" type="curve" smooth="yes"/>
      <point x="355" y="-84"/>
      <point x="327" y="-64"/>
    </contour>
  </outline>
</glyph>
<glyph name="Tcaron" format="1">
  <advance width="600"/>
  <unicode hex="0164"/>
  <outline>
    <contour>
      <point x="284" y="0" type="line"/>
      <point x="316" y="0" type="line"/>
      <point x="316" y="632" type="line"/>
      <point x="550" y="632" type="line"/>
      <point x="550" y="660" type="line"/>
      <point x="50" y="660" type="line"/>
      <point x="50" y="632" type="line"/>
      <point x="284" y="632" type="line"/>
    </contour>
    <contour>
      <point x="379" y="814" type="line"/>
      <point x="301" y="740" type="line"/>
      <point x="297" y="740" type="line"/>
      <point x="219" y="814" type="line"/>
      <point x="189" y="814" type="line"/>
      <point x="285" y="710" type="line"/>
      <point x="313" y="710" type="line"/>
      <point x="409" y="814" type="line"/>
    </contour>
  </outline>
</glyph>
<glyph name="Umacron" format="1">
  <advance width="600"/>
  <unicode hex="016A"/>
  <outline>
    <contour>
      <point x="92" y="246" type="line" smooth="yes"/>
      <point x="92" y="42"/>
      <point x="196" y="-12"/>
      <point x="300" y="-12" type="curve" smooth="yes"/>
      <point x="404" y="-12"/>
      <point x="508" y="42"/>
      <point x="508" y="246" type="curve" smooth="yes"/>
      <point x="508" y="660" type="line"/>
      <point x="478" y="660" type="line"/>
      <point x="478" y="254" type="line" smooth="yes"/>
      <point x="478" y="72"/>
      <point x="394" y="18"/>
      <point x="300" y="18" type="curve" smooth="yes"/>
      <point x="208" y="18"/>
      <point x="124" y="72"/>
      <point x="124" y="254" type="curve" smooth="yes"/>
      <point x="124" y="660" type="line"/>
      <point x="92" y="660" type="line"/>
    </contour>
    <contour>
      <point x="190" y="736" type="line"/>
      <point x="410" y="736" type="line"/>
      <point x="410" y="764" type="line"/>
      <point x="190" y="764" type="line"/>
    </contour>
  </outline>
</glyph>
<glyph name="Ubreve" format="1">
  <advance width="600"/>
  <unicode hex="016C"/>
  <outline>
    <contour>
      <point x="92" y="246" type="line" smooth="yes"/>
      <point x="92" y="42"/>
      <point x="196" y="-12"/>
      <point x="300" y="-12" type="curve" smooth="yes"/>
      <point x="404" y="-12"/>
      <point x="508" y="42"/>
      <point x="508" y="246" type="curve" smooth="yes"/>
      <point x="508" y="660" type="line"/>
      <point x="478" y="660" type="line"/>
      <point x="478" y="254" type="line" smooth="yes"/>
      <point x="478" y="72"/>
      <point x="394" y="18"/>
      <point x="300" y="18" type="curve" smooth="yes"/>
      <point x="208" y="18"/>
      <point x="124" y="72"/>
      <point x="124" y="254" type="curve" smooth="yes"/>
      <point x="124" y="660" type="line"/>
      <point x="92" y="660" type="line"/>
    </contour>
    <contour>
      <point x="300" y="712" type="curve" smooth="yes"/>
      <point x="374" y="712"/>
      <point x="406" y="772"/>
      <point x="412" y="814" type="curve"/>
      <point x="386" y="814" type="line"/>
      <point x="380" y="778"/>
      <point x="354" y="738"/>
      <point x="300" y="738" type="curve" smooth="yes"/>
      <point x="246" y="738"/>
      <point x="220" y="778"/>
      <point x="214" y="814" type="curve"/>
      <point x="188" y="814" type="line"/>
      <point x="194" y="772"/>
      <point x="226" y="712"/>
    </contour>
  </outline>
</glyph>
<glyph name="uring" format="1">
  <advance width="600"/>
  <unicode hex="016F"/>
  <outline>
    <contour>
      <point x="490" y="478" type="line"/>
      <point x="460" y="478" type="line"/>
      <point x="460" y="132" type="line"/>
      <point x="390" y="53"/>
      <point x="336" y="16"/>
      <point x="264" y="16" type="curve" smooth="yes"/>
      <point x="163" y="16"/>
      <point x="120" y="71"/>
      <point x="120" y="184" type="curve" smooth="yes"/>
      <point x="120" y="478" type="line"/>
      <point x="90" y="478" type="line"/>
      <point x="90" y="180" type="line" smooth="yes"/>
      <point x="90" y="49"/>
      <point x="147" y="-12"/>
      <point x="264" y="-12" type="curve" smooth="yes"/>
      <point x="342" y="-12"/>
      <point x="403" y="34"/>
      <point x="456" y="96" type="curve"/>
      <point x="460" y="96" type="line"/>
      <point x="464" y="0" type="line"/>
      <point x="490" y="0" type="line"/>
    </contour>
    <contour>
      <point x="294" y="538" type="curve" smooth="yes"/>
      <point x="338" y="538"/>
      <point x="372" y="572"/>
      <point x="372" y="622" type="curve" smooth="yes"/>
      <point x="372" y="672"/>
      <point x="338" y="706"/>
      <point x="294" y="706" type="curve" smooth="yes"/>
      <point x="250" y="706"/>
      <point x="216" y="672"/>
      <point x="216" y="622" type="curve" smooth="yes"/>
      <point x="216" y="572"/>
      <point x="250" y="538"/>
    </contour>
    <contour>
      <point x="294" y="560" type="curve" smooth="yes"/>
      <point x="264" y="560"/>
      <point x="240" y="584"/>
      <point x="240" y="622" type="curve" smooth="yes"/>
      <point x="240" y="660"/>
      <point x="264" y="684"/>
      <point x="294" y="684" type="curve" smooth="yes"/>
      <point x="324" y="684"/>
      <point x="348" y="660"/>
      <point x="348" y="622" type="curve" smooth="yes"/>
      <point x="348" y="584"/>
      <point x="324" y="560"/>
    </contour>
  </outline>
</glyph>
<glyph name="ycircumflex" format="1">
  <advance width="600"/>
  <unicode hex="0177"/>
  <outline>
    <contour>
      <point x="77" y="-184" type="curve"/>
      <point x="67" y="-212" type="line"/>
      <point x="80" y="-218"/>
      <point x="104" y="-222"/>
      <point x="122" y="-222" type="curve" smooth="yes"/>
      <point x="220" y="-222"/>
      <point x="280" y="-142"/>
      <point x="306" y="-68" type="curve"/>
      <point x="536" y="478" type="line"/>
      <point x="506" y="478" type="line"/>
      <point x="374" y="164" type="line" smooth="yes"/>
      <point x="357" y="124"/>
      <point x="336" y="72"/>
      <point x="316" y="30" type="curve"/>
      <point x="312" y="30" type="line"/>
      <point x="288" y="72"/>
      <point x="263" y="124"/>
      <point x="244" y="164" type="curve" smooth="yes"/>
      <point x="96" y="478" type="line"/>
      <point x="64" y="478" type="line"/>
      <point x="300" y="-12" type="line"/>
      <point x="282" y="-56" type="line" smooth="yes"/>
      <point x="251" y="-134"/>
      <point x="202" y="-192"/>
      <point x="125" y="-192" type="curve" smooth="yes"/>
      <point x="107" y="-192"/>
      <point x="89" y="-188"/>
    </contour>
    <contour>
      <point x="194" y="572" type="line"/>
      <point x="222" y="572" type="line"/>
      <point x="300" y="674" type="line"/>
      <point x="304" y="674" type="line"/>
      <point x="382" y="572" type="line"/>
      <point x="410" y="572" type="line"/>
      <point x="316" y="706" type="line"/>
      <point x="288" y="706" type="line"/>
    </contour>
  </outline>
</glyph>
<glyph name="Ydieresis" format="1">
  <advance width="600"/>
  <unicode hex="0178"/>
  <outline>
    <contour>
      <point x="284" y="0" type="line"/>
      <point x="316" y="0" type="line"/>
      <point x="316" y="245" type="line"/>
      <point x="544" y="660" type="line"/>
      <point x="514" y="660" type="line"/>
      <point x="394" y="435" type="line" smooth="yes"/>
      <point x="365" y="383"/>
      <point x="336" y="331"/>
      <point x="304" y="278" type="curve"/>
      <point x="300" y="278" type="line"/>
      <point x="269" y="331"/>
      <point x="243" y="383"/>
      <point x="212" y="434" type="curve" smooth="yes"/>
      <point x="88" y="660" type="line"/>
      <point x="56" y="660" type="line"/>
      <point x="284" y="245" type="line"/>
    </contour>
    <contour>
      <point x="224" y="728" type="curve" smooth="yes"/>
      <point x="242" y="728"/>
      <point x="256" y="740"/>
      <point x="256" y="760" type="curve" smooth="yes"/>
      <point x="256" y="780"/>
      <point x="242" y="792"/>
      <point x="224" y="792" type="curve" smooth="yes"/>
      <point x="206" y="792"/>
      <point x="192" y="780"/>
      <point x="192" y="760" type="curve" smooth="yes"/>
      <point x="192" y="740"/>
      <point x="206" y="728"/>
    </contour>
    <contour>
      <point x="376" y="728" type="curve" smooth="yes"/>
      <point x="394" y="728"/>
      <point x="408" y="740"/>
      <point x="408" y="760" type="curve" smooth="yes"/>
      <point x="408" y="780"/>
      <point x="394" y="792"/>
      <point x="376" y="792" type="curve" smooth="yes"/>
      <point x="358" y="792"/>
      <point x="344" y="780"/>
      <point x="344" y="760" type="curve" smooth="yes"/>
      <point x="344" y="740"/>
      <point x="358" y="728"/>
    </contour>
  </outline>
</glyph>
<glyph name="Zacute" format="1">
  <advance width="600"/>
  <unicode hex="0179"/>
  <outline>
    <contour>
      <point x="72" y="0" type="line"/>
      <point x="533" y="0" type="line"/>
      <point x="533" y="28" type="line"/>
      <point x="109" y="28" type="line"/>
      <point x="526" y="642" type="line"/>
      <point x="526" y="661" type="line"/>
      <point x="107" y="661" type="line"/>
      <point x="107" y="634" type="line"/>
      <point x="488" y="634" type="line"/>
      <point x="72" y="19" type="line"/>
    </contour>
    <contour>
      <point x="422" y="814" type="line"/>
      <point x="378" y="814" type="line"/>
      <point x="284" y="710" type="line"/>
      <point x="314" y="710" type="line"/>
    </contour>
  </outline>
</glyph>
<glyph name="zcaron" format="1">
  <advance width="600"/>
  <unicode hex="017E"/>
  <outline>
    <contour>
      <point x="72" y="0" type="line"/>
      <point x="524" y="0" type="line"/>
      <point x="524" y="28" type="line"/>
      <point x="120" y="28" type="line"/>
      <point x="512" y="462" type="line"/>
      <point x="512" y="478" type="line"/>
      <point x="114" y="478" type="line"/>
      <point x="114" y="450" type="line"/>
      <point x="464" y="450" type="line"/>
      <point x="72" y="16" type="line"/>
    </contour>
    <contour>
      <point x="304" y="572" type="line"/>
      <point x="332" y="572" type="line"/>
      <point x="426" y="706" type="line"/>
      <point x="398" y="706" type="line"/>
      <point x="320" y="604" type="line"/>
      <point x="316" y="604" type="line"/>
      <point x="238" y="706" type="line"/>
      <point x="210" y="706" type="line"/>
    </contour>
  </outline>
</glyph>
<glyph name="florin" format="1">
  <advance width="600"/>
  <unicode hex="0192"/>
  <outline>
    <contour>
      <point x="524" y="650" type="line"/>
      <point x="503" y="662"/>
      <point x="477" y="672"/>
      <point x="438" y="672" type="curve" smooth="yes"/>
      <point x="346" y="672"/>
      <point x="303" y="592"/>
      <point x="290" y="470" type="curve" smooth="yes"/>
      <point x="283" y="404" type="line"/>
      <point x="228" y="404" type="line"/>
      <point x="162" y="400" type="line"/>
      <point x="162" y="376" type="line"/>
      <point x="280" y="376" type="line"/>
      <point x="250" y="98" type="line" smooth="yes"/>
      <point x="239" y="6"/>
      <point x="209" y="-70"/>
      <point x="128" y="-70" type="curve" smooth="yes"/>
      <point x="104" y="-70"/>
      <point x="83" y="-62"/>
      <point x="64" y="-54" type="curve"/>
      <point x="52" y="-78" type="line"/>
      <point x="73" y="-88"/>
      <point x="96" y="-98"/>
      <point x="124" y="-98" type="curve" smooth="yes"/>
      <point x="222" y="-98"/>
      <point x="265" y="-24"/>
      <point x="280" y="100" type="curve" smooth="yes"/>
      <point x="310" y="376" type="line"/>
      <point x="476" y="376" type="line"/>
      <point x="476" y="404" type="line"/>
      <point x="313" y="404" type="line"/>
      <point x="320" y="472" type="line" smooth="yes"/>
      <point x="327" y="558"/>
      <point x="357" y="644"/>
      <point x="436" y="644" type="curve" smooth="yes"/>
      <point x="468" y="644"/>
      <point x="490" y="638"/>
      <point x="510" y="626" type="curve"/>
    </contour>
  </outline>
</glyph>
<glyph name="aturned" format="1">
  <advance width="512"/>
  <unicode hex="0250"/>
  <outline>
    <contour>
      <point x="96" y="404" type="line"/>
      <point x="98" y="404" type="line"/>
      <point x="134" y="481"/>
      <point x="210" y="530"/>
      <point x="306" y="530" type="curve" smooth="yes"/>
      <point x="399" y="530"/>
      <point x="456" y="473"/>
      <point x="456" y="380" type="curve" smooth="yes"/>
      <point x="456" y="298"/>
      <point x="406" y="200"/>
      <point x="166" y="200" type="curve" smooth="yes"/>
      <point x="96" y="200" type="line"/>
      <point x="96" y="150" type="line" smooth="yes"/>
      <point x="96" y="47"/>
      <point x="135" y="10"/>
      <point x="246" y="10" type="curve" smooth="yes"/>
      <point x="313" y="10"/>
      <point x="374" y="22"/>
      <point x="431" y="47" type="curve"/>
      <point x="431" y="25" type="line"/>
      <point x="376" y="2"/>
      <point x="314" y="-10"/>
      <point x="246" y="-10" type="curve" smooth="yes"/>
      <point x="123" y="-10"/>
      <point x="76" y="35"/>
      <point x="76" y="150" type="curve" smooth="yes"/>
      <point x="76" y="520" type="line"/>
      <point x="96" y="520" type="line"/>
    </contour>
    <contour>
      <point x="96" y="310" type="curve" smooth="yes"/>
      <point x="96" y="220" type="line"/>
      <point x="166" y="220" type="line" smooth="yes"/>
      <point x="346" y="220"/>
      <point x="436" y="273"/>
      <point x="436" y="380" type="curve" smooth="yes"/>
      <point x="436" y="461"/>
      <point x="387" y="510"/>
      <point x="306" y="510" type="curve" smooth="yes"/>
      <point x="245" y="510"/>
      <point x="195" y="491"/>
      <point x="155" y="453" type="curve" smooth="yes"/>
      <point x="116" y="416"/>
      <point x="96" y="368"/>
    </contour>
  </outline>
</glyph>
<glyph name="tturned" format="1">
  <advance width="487"/>
  <unicode hex="0287"/>
  <outline>
    <contour>
      <point x="81" y="40" type="line"/>
      <point x="286" y="40" type="line"/>
      <point x="286" y="380" type="line" smooth="yes"/>
      <point x="286" y="433"/>
      <point x="278" y="468"/>
      <point x="261" y="485" type="curve" smooth="yes"/>
      <point x="245" y="502"/>
      <point x="215" y="510"/>
      <point x="171" y="510" type="curve" smooth="yes"/>
      <point x="144" y="510"/>
      <point x="117" y="504"/>
      <point x="91" y="493" type="curve"/>
      <point x="91" y="515" type="line"/>
      <point x="116" y="525"/>
      <point x="142" y="530"/>
      <point x="171" y="530" type="curve" smooth="yes"/>
      <point x="222" y="530"/>
      <point x="258" y="519"/>
      <point x="277" y="498" type="curve" smooth="yes"/>
      <point x="296" y="477"/>
      <point x="306" y="437"/>
      <point x="306" y="380" type="curve" smooth="yes"/>
      <point x="306" y="40" type="line"/>
      <point x="431" y="40" type="line"/>
      <point x="431" y="20" type="line"/>
      <point x="306" y="20" type="line"/>
      <point x="306" y="-170" type="line"/>
      <point x="286" y="-170" type="line"/>
      <point x="286" y="20" type="line"/>
      <point x="81" y="20" type="line"/>
    </contour>
  </outline>
</glyph>
<glyph name="ogonek" format="1">
  <advance width="600"/>
  <unicode hex="02DB"/>
  <outline>
    <contour>
      <point x="250" y="-122" type="curve" smooth="yes"/>
      <point x="250" y="-176"/>
      <point x="284" y="-202"/>
      <point x="328" y="-202" type="curve" smooth="yes"/>
      <point x="348" y="-202"/>
      <point x="374" y="-192"/>
      <point x="388" y="-180" type="curve"/>
      <point x="374" y="-160" type="line"/>
      <point x="360" y="-170"/>
      <point x="348" y="-174"/>
      <point x="330" y="-174" type="curve" smooth="yes"/>
      <point x="304" y="-174"/>
      <point x="280" y="-156"/>
      <point x="280" y="-120" type="curve" smooth="yes"/>
      <point x="280" y="-76"/>
      <point x="312" y="-30"/>
      <point x="360" y="4" type="curve"/>
      <point x="322" y="4" type="line"/>
      <point x="284" y="-26"/>
      <point x="250" y="-72"/>
    </contour>
  </outline>
</glyph>
<glyph name="Xi" format="1">
  <advance width="600"/>
  <unicode hex="039E"/>
  <outline>
    <contour>
      <point x="74" y="0" type="line"/>
      <point x="526" y="0" type="line"/>
      <point x="526" y="28" type="line"/>
      <point x="74" y="28" type="line"/>
    </contour>
    <contour>
      <point x="154" y="338" type="line"/>
      <point x="446" y="338" type="line"/>
      <point x="446" y="366" type="line"/>
      <point x="154" y="366" type="line"/>
    </contour>
    <contour>
      <point x="84" y="632" type="line"/>
      <point x="516" y="632" type="line"/>
      <point x="516" y="660" type="line"/>
      <point x="84" y="660" type="line"/>
    </contour>
  </outline>
</glyph>
<glyph name="Sigma" format="1">
  <advance width="600"/>
  <unicode hex="03A3"/>
  <outline>
    <contour>
      <point x="84" y="0" type="line"/>
      <point x="526" y="0" type="line"/>
      <point x="526" y="28" type="line"/>
      <point x="128" y="28" type="line"/>
      <point x="364" y="336" type="line"/>
      <point x="132" y="632" type="line"/>
      <point x="494" y="632" type="line"/>
      <point x="494" y="660" type="line"/>
      <point x="90" y="660" type="line"/>
      <point x="90" y="642" type="line"/>
      <point x="330" y="336" type="line"/>
      <point x="84" y="18" type="line"/>
    </contour>
  </outline>
</glyph>
<glyph name="beta" format="1">
  <advance width="600"/>
  <unicode hex="03B2"/>
  <outline>
    <contour>
      <point x="110" y="-180" type="line"/>
      <point x="140" y="-180" type="line"/>
      <point x="140" y="-94"/>
      <point x="140" y="-16"/>
      <point x="138" y="68" type="curve"/>
      <point x="189.707697511" y="9.05322483712"/>
      <point x="262.923076923" y="-12.0"/>
      <point x="334" y="-12" type="curve" smooth="yes"/>
      <point x="441.608695652" y="-12.0"/>
      <point x="532.0" y="68.0"/>
      <point x="532" y="188" type="curve" smooth="yes"/>
      <point x="532.0" y="296.0"/>
      <point x="463.25163363" y="369.851501095"/>
      <point x="344" y="384" type="curve"/>
      <point x="344" y="388" type="line"/>
      <point x="425" y="432"/>
      <point x="468.0" y="492.0"/>
      <point x="468" y="568" type="curve" smooth="yes"/>
      <point x="468.0" y="678.0"/>
      <point x="387.358974359" y="734.0"/>
      <point x="298" y="734" type="curve" smooth="yes"/>
      <point x="171.586206897" y="734.0"/>
      <point x="110" y="640.0"/>
      <point x="110" y="512" type="curve" smooth="yes"/>
    </contour>
    <contour>
      <point x="334" y="16" type="curve" smooth="yes"/>
      <point x="269.333333333" y="16.0"/>
      <point x="195.632668972" y="32.9138118688"/>
      <point x="140" y="104" type="curve"/>
      <point x="140" y="236"/>
      <point x="140" y="366"/>
      <point x="140" y="498" type="curve" smooth="yes"/>
      <point x="140.0" y="638.0"/>
      <point x="203.561643836" y="706.0"/>
      <point x="300" y="706" type="curve" smooth="yes"/>
      <point x="373.573770492" y="706.0"/>
      <point x="436.0" y="660.0"/>
      <point x="436" y="568" type="curve" smooth="yes"/>
      <point x="436.0" y="496.0"/>
      <point x="381.510187486" y="410.14746169"/>
      <point x="248" y="380" type="curve"/>
      <point x="256" y="352" type="line"/>
      <point x="276" y="356"/>
      <point x="296" y="358"/>
      <point x="314" y="358" type="curve" smooth="yes"/>
      <point x="439.441860465" y="358.0"/>
      <point x="500.0" y="286.0"/>
      <point x="500" y="188" type="curve" smooth="yes"/>
      <point x="500.0" y="84.0"/>
      <point x="425.736842105" y="16.0"/>
    </contour>
  </outline>
</glyph>
<glyph name="zeta" format="1">
  <advance width="600"/>
  <unicode hex="03B6"/>
  <outline>
    <contour>
      <point x="471" y="-182" type="line"/>
      <point x="509" y="-134"/>
      <point x="525" y="-98"/>
      <point x="525" y="-72" type="curve" smooth="yes"/>
      <point x="525.0" y="-14.0"/>
      <point x="465.84522454" y="-1.42640446175"/>
      <point x="359" y="18" type="curve" smooth="yes"/>
      <point x="253.384625719" y="36.7760665388"/>
      <point x="161" y="76"/>
      <point x="161" y="218" type="curve" smooth="yes"/>
      <point x="161" y="394"/>
      <point x="362" y="588"/>
      <point x="515" y="694" type="curve"/>
      <point x="519" y="694" type="line"/>
      <point x="519" y="722" type="line"/>
      <point x="159" y="722" type="line"/>
      <point x="159" y="694" type="line"/>
      <point x="239.744675472" y="696.41028882"/>
      <point x="394.541795666" y="696.0"/>
      <point x="476" y="696" type="curve"/>
      <point x="339" y="605"/>
      <point x="129.0" y="404.0"/>
      <point x="129" y="218" type="curve" smooth="yes"/>
      <point x="129" y="62"/>
      <point x="223" y="14"/>
      <point x="341" y="-8" type="curve" smooth="yes"/>
      <point x="464" y="-31"/>
      <point x="495.0" y="-42.0"/>
      <point x="495" y="-74" type="curve" smooth="yes"/>
      <point x="495" y="-102"/>
      <point x="485" y="-116"/>
      <point x="445" y="-164" type="curve"/>
    </contour>
  </outline>
</glyph>
<glyph name="theta" format="1">
  <advance width="600"/>
  <unicode hex="03B8"/>
  <outline>
    <contour>
      <point x="300" y="-12" type="curve" smooth="yes"/>
      <point x="436.395604396" y="-12.0"/>
      <point x="514.0" y="98.0"/>
      <point x="514" y="364" type="curve" smooth="yes"/>
      <point x="514.0" y="598.0"/>
      <point x="436.395604396" y="734.0"/>
      <point x="300" y="734" type="curve" smooth="yes"/>
      <point x="163.604395604" y="734.0"/>
      <point x="86.0" y="598.0"/>
      <point x="86" y="364" type="curve" smooth="yes"/>
      <point x="86.0" y="98.0"/>
      <point x="163.604395604" y="-12.0"/>
    </contour>
    <contour>
      <point x="300" y="16" type="curve" smooth="yes"/>
      <point x="193.226666667" y="16.0"/>
      <point x="118.0" y="114.0"/>
      <point x="118" y="364" type="curve" smooth="yes"/>
      <point x="118.0" y="586.0"/>
      <point x="193.226666667" y="706.0"/>
      <point x="300" y="706" type="curve" smooth="yes"/>
      <point x="406.773333333" y="706.0"/>
      <point x="482.0" y="586.0"/>
      <point x="482" y="364" type="curve" smooth="yes"/>
      <point x="482.0" y="114.0"/>
      <point x="406.773333333" y="16.0"/>
    </contour>
    <contour>
      <point x="104" y="352" type="line"/>
      <point x="496" y="352" type="line"/>
      <point x="496" y="380" type="line"/>
      <point x="104" y="380" type="line"/>
    </contour>
  </outline>
</glyph>
<glyph name="iota" format="1">
  <advance width="600"/>
  <unicode hex="03B9"/>
  <outline>
    <contour>
      <point x="355" y="-12" type="curve" smooth="yes"/>
      <point x="386.666666667" y="-12.0"/>
      <point x="411.567444382" y="-2.63669138566"/>
      <point x="431" y="6" type="curve"/>
      <point x="421" y="32" type="line"/>
      <point x="402" y="22"/>
      <point x="377.363636364" y="16.0"/>
      <point x="357" y="16" type="curve" smooth="yes"/>
      <point x="323.421052632" y="16.0"/>
      <point x="299.0" y="37.5217391304"/>
      <point x="299" y="82" type="curve" smooth="yes"/>
      <point x="299.0" y="216.221153846"/>
      <point x="300.070419124" y="344.140353788"/>
      <point x="301" y="478" type="curve"/>
      <point x="271" y="478" type="line"/>
      <point x="271" y="88" type="line" smooth="yes"/>
      <point x="271" y="16.75"/>
      <point x="302.5" y="-12.0"/>
    </contour>
    <contour>
      <point x="276" y="500" type="move" name="aboveLC"/>
    </contour>
  </outline>
</glyph>
<glyph name="lambda" format="1">
  <advance width="600"/>
  <unicode hex="03BB"/>
  <outline>
    <contour>
      <point x="96" y="-6" type="line"/>
      <point x="316" y="458" type="line"/>
      <point x="320" y="458" type="line"/>
      <point x="512" y="0" type="line"/>
      <point x="544" y="0" type="line"/>
      <point x="322" y="530" type="line" smooth="yes"/>
      <point x="265" y="667"/>
      <point x="228.172839506" y="734.0"/>
      <point x="132" y="734" type="curve" smooth="yes"/>
      <point x="102" y="734"/>
      <point x="78" y="726"/>
      <point x="62" y="718" type="curve"/>
      <point x="74" y="690" type="line"/>
      <point x="88" y="698"/>
      <point x="106" y="706"/>
      <point x="130" y="706" type="curve" smooth="yes"/>
      <point x="208.617647059" y="706.0"/>
      <point x="245" y="654"/>
      <point x="292" y="526" type="curve"/>
      <point x="304" y="496" type="line"/>
      <point x="64" y="0" type="line"/>
    </contour>
  </outline>
</glyph>
<glyph name="xi" format="1">
  <advance width="600"/>
  <unicode hex="03BE"/>
  <outline>
    <contour>
      <point x="476" y="-182" type="line"/>
      <point x="514" y="-134"/>
      <point x="530" y="-98"/>
      <point x="530" y="-72" type="curve" smooth="yes"/>
      <point x="530.0" y="-14.0"/>
      <point x="470.84522454" y="-1.42640446175"/>
      <point x="364" y="18" type="curve" smooth="yes"/>
      <point x="259.263548812" y="36.6198135446"/>
      <point x="156.0" y="68.0"/>
      <point x="156" y="186" type="curve" smooth="yes"/>
      <point x="156.0" y="308.0"/>
      <point x="272.74137931" y="374.0"/>
      <point x="378" y="374" type="curve" smooth="yes"/>
      <point x="406.0" y="374.0"/>
      <point x="421.638352617" y="374.987338694"/>
      <point x="448" y="370" type="curve"/>
      <point x="448" y="404" type="line"/>
      <point x="419.804276042" y="399.065748307"/>
      <point x="408.137931034" y="400.0"/>
      <point x="380" y="400" type="curve" smooth="yes"/>
      <point x="308.130434783" y="400.0"/>
      <point x="206.0" y="458.0"/>
      <point x="206" y="548" type="curve" smooth="yes"/>
      <point x="206.0" y="642.0"/>
      <point x="290" y="694"/>
      <point x="373" y="694" type="curve" smooth="yes"/>
      <point x="524" y="694" type="line"/>
      <point x="524" y="722" type="line"/>
      <point x="108" y="722" type="line"/>
      <point x="108" y="694" type="line"/>
      <point x="177.086232994" y="696.125730246"/>
      <point x="208.078212291" y="696.0"/>
      <point x="277" y="696" type="curve"/>
      <point x="213.94132672" y="667.252663652"/>
      <point x="174.0" y="620.0"/>
      <point x="174" y="548" type="curve" smooth="yes"/>
      <point x="174.0" y="470.0"/>
      <point x="228.520041429" y="422.062839388"/>
      <point x="294" y="394" type="curve"/>
      <point x="294" y="390" type="line"/>
      <point x="202.98531995" y="366.298260404"/>
      <point x="124.0" y="290.0"/>
      <point x="124" y="186" type="curve" smooth="yes"/>
      <point x="124.0" y="56.0"/>
      <point x="227.401105521" y="13.8774659719"/>
      <point x="346" y="-8" type="curve" smooth="yes"/>
      <point x="469.50633138" y="-30.2311396484"/>
      <point x="500.0" y="-42.0"/>
      <point x="500" y="-74" type="curve" smooth="yes"/>
      <point x="500" y="-102"/>
      <point x="490" y="-116"/>
      <point x="450" y="-164" type="curve"/>
    </contour>
  </outline>
</glyph>
<glyph name="rho" format="1">
  <advance width="600"/>
  <unicode hex="03C1"/>
  <outline>
    <contour>
      <point x="110" y="-180" type="line"/>
      <point x="140" y="-180" type="line"/>
      <point x="140" y="-84"/>
      <point x="140" y="-28"/>
      <point x="138" y="68" type="curve"/>
      <point x="192.234207557" y="5.42206820299"/>
      <point x="252.146341463" y="-12.0"/>
      <point x="318" y="-12" type="curve" smooth="yes"/>
      <point x="426.163265306" y="-12.0"/>
      <point x="530.0" y="84.0"/>
      <point x="530" y="246" type="curve" smooth="yes"/>
      <point x="530.0" y="394.0"/>
      <point x="460.666666667" y="490.0"/>
      <point x="322" y="490" type="curve" smooth="yes"/>
      <point x="209.510204082" y="490.0"/>
      <point x="110" y="410.0"/>
      <point x="110" y="257" type="curve" smooth="yes"/>
    </contour>
    <contour>
      <point x="320" y="16" type="curve" smooth="yes"/>
      <point x="262.926829268" y="16.0"/>
      <point x="200.290282843" y="27.1568902642"/>
      <point x="140" y="102" type="curve"/>
      <point x="140" y="244" type="line" smooth="yes"/>
      <point x="140" y="396.0"/>
      <point x="227.804878049" y="462.0"/>
      <point x="320" y="462" type="curve" smooth="yes"/>
      <point x="447.456790123" y="462.0"/>
      <point x="498.0" y="368.0"/>
      <point x="498" y="246" type="curve" smooth="yes"/>
      <point x="498.0" y="112.0"/>
      <point x="418.888888889" y="16.0"/>
    </contour>
  </outline>
</glyph>
<glyph name="tau" format="1">
  <advance width="600"/>
  <unicode hex="03C4"/>
  <outline>
    <contour>
      <point x="369" y="-12" type="curve" smooth="yes"/>
      <point x="394.6" y="-12.0"/>
      <point x="420.548715618" y="-6.98051375275"/>
      <point x="433" y="-2" type="curve"/>
      <point x="427" y="24" type="line"/>
      <point x="411.353914228" y="18.7846380758"/>
      <point x="389.666666667" y="16.0"/>
      <point x="371" y="16" type="curve" smooth="yes"/>
      <point x="329.916666667" y="16.0"/>
      <point x="313.0" y="38.4"/>
      <point x="313" y="86" type="curve" smooth="yes"/>
      <point x="313.0" y="208.28125"/>
      <point x="313.104140947" y="327.717091055"/>
      <point x="315" y="450" type="curve"/>
      <point x="521" y="450" type="line"/>
      <point x="521" y="478" type="line"/>
      <point x="145" y="478" type="line"/>
      <point x="79" y="474" type="line"/>
      <point x="79" y="450" type="line"/>
      <point x="285" y="450" type="line"/>
      <point x="285" y="92" type="line" smooth="yes"/>
      <point x="285" y="17.7142857143"/>
      <point x="307.285714286" y="-12.0"/>
    </contour>
  </outline>
</glyph>
<glyph name="Wacute" format="1">
  <advance width="600"/>
  <unicode hex="1E82"/>
  <outline>
    <contour>
      <point x="127" y="0" type="line"/>
      <point x="169" y="0" type="line"/>
      <point x="267" y="331" type="line" smooth="yes"/>
      <point x="279" y="369"/>
      <point x="288" y="406"/>
      <point x="299" y="445" type="curve"/>
      <point x="302" y="445" type="line"/>
      <point x="313" y="406"/>
      <point x="321" y="369"/>
      <point x="332" y="331" type="curve" smooth="yes"/>
      <point x="433" y="0" type="line"/>
      <point x="475" y="0" type="line"/>
      <point x="584" y="661" type="line"/>
      <point x="556" y="661" type="line"/>
      <point x="481" y="196" type="line" smooth="yes"/>
      <point x="474" y="143"/>
      <point x="465" y="90"/>
      <point x="458" y="38" type="curve"/>
      <point x="454" y="38" type="line"/>
      <point x="438" y="90"/>
      <point x="422" y="143"/>
      <point x="408" y="196" type="curve" smooth="yes"/>
      <point x="318" y="488" type="line"/>
      <point x="283" y="488" type="line"/>
      <point x="195" y="196" type="line" smooth="yes"/>
      <point x="180" y="143"/>
      <point x="164" y="91"/>
      <point x="147" y="38" type="curve"/>
      <point x="145" y="38" type="line"/>
      <point x="138" y="91"/>
      <point x="128" y="143"/>
      <point x="122" y="196" type="curve"/>
      <point x="44" y="661" type="line"/>
      <point x="15" y="661" type="line"/>
    </contour>
    <contour>
      <point x="406" y="814" type="line"/>
      <point x="362" y="814" type="line"/>
      <point x="268" y="710" type="line"/>
      <point x="298" y="710" type="line"/>
    </contour>
  </outline>
</glyph>
<glyph name="figuredash" format="1">
  <advance width="600"/>
  <unicode hex="2012"/>
  <outline>
    <contour>
      <point x="80" y="272" type="line"/>
      <point x="520" y="272" type="line"/>
      <point x="520" y="312" type="line"/>
      <point x="80" y="312" type="line"/>
    </contour>
  </outline>
</glyph>
<glyph name="quotesinglbase" format="1">
  <advance width="600"/>
  <unicode hex="201A"/>
  <outline>
    <contour>
      <point x="248" y="-222" type="line"/>
      <point x="316" y="-182"/>
      <point x="366" y="-102"/>
      <point x="366" y="-9" type="curve" smooth="yes"/>
      <point x="366" y="47"/>
      <point x="333" y="80"/>
      <point x="298" y="80" type="curve" smooth="yes"/>
      <point x="265" y="80"/>
      <point x="242" y="55"/>
      <point x="242" y="22" type="curve" smooth="yes"/>
      <point x="242" y="-10"/>
      <point x="264" y="-34"/>
      <point x="296" y="-34" type="curve" smooth="yes"/>
      <point x="307" y="-34"/>
      <point x="318" y="-29"/>
      <point x="328" y="-22" type="curve"/>
      <point x="324" y="-97"/>
      <point x="287" y="-158"/>
      <point x="230" y="-198" type="curve"/>
    </contour>
  </outline>
</glyph>
<glyph name="quotedblbase" format="1">
  <advance width="600"/>
  <unicode hex="201E"/>
  <outline>
    <contour>
      <point x="148" y="-222" type="line"/>
      <point x="216" y="-182"/>
      <point x="266" y="-102"/>
      <point x="266" y="-9" type="curve" smooth="yes"/>
      <point x="266" y="47"/>
      <point x="233" y="80"/>
      <point x="198" y="80" type="curve" smooth="yes"/>
      <point x="165" y="80"/>
      <point x="142" y="55"/>
      <point x="142" y="22" type="curve" smooth="yes"/>
      <point x="142" y="-10"/>
      <point x="164" y="-34"/>
      <point x="196" y="-34" type="curve" smooth="yes"/>
      <point x="207" y="-34"/>
      <point x="218" y="-29"/>
      <point x="228" y="-22" type="curve"/>
      <point x="224" y="-97"/>
      <point x="187" y="-158"/>
      <point x="130" y="-198" type="curve"/>
    </contour>
    <contour>
      <point x="348" y="-222" type="line"/>
      <point x="416" y="-182"/>
      <point x="466" y="-102"/>
      <point x="466" y="-9" type="curve" smooth="yes"/>
      <point x="466" y="47"/>
      <point x="433" y="80"/>
      <point x="398" y="80" type="curve" smooth="yes"/>
      <point x="365" y="80"/>
      <point x="342" y="55"/>
      <point x="342" y="22" type="curve" smooth="yes"/>
      <point x="342" y="-10"/>
      <point x="364" y="-34"/>
      <point x="396" y="-34" type="curve" smooth="yes"/>
      <point x="407" y="-34"/>
      <point x="418" y="-29"/>
      <point x="428" y="-22" type="curve"/>
      <point x="424" y="-97"/>
      <point x="387" y="-158"/>
      <point x="330" y="-198" type="curve"/>
    </contour>
  </outline>
</glyph>
<glyph name="daggerdbl" format="1">
  <advance width="600"/>
  <unicode hex="2021"/>
  <outline>
    <contour>
      <point x="158" y="68" type="line"/>
      <point x="286" y="70" type="line"/>
      <point x="284" y="-80" type="line"/>
      <point x="316" y="-80" type="line"/>
      <point x="314" y="70" type="line"/>
      <point x="442" y="68" type="line"/>
      <point x="442" y="100" type="line"/>
      <point x="314" y="98" type="line"/>
      <point x="316" y="316" type="line"/>
      <point x="314" y="534" type="line"/>
      <point x="442" y="532" type="line"/>
      <point x="442" y="564" type="line"/>
      <point x="314" y="562" type="line"/>
      <point x="316" y="712" type="line"/>
      <point x="284" y="712" type="line"/>
      <point x="286" y="562" type="line"/>
      <point x="158" y="564" type="line"/>
      <point x="158" y="532" type="line"/>
      <point x="286" y="534" type="line"/>
      <point x="284" y="316" type="line"/>
      <point x="286" y="98" type="line"/>
      <point x="158" y="100" type="line"/>
    </contour>
  </outline>
</glyph>
<glyph name="bullet" format="1">
  <advance width="600"/>
  <unicode hex="2022"/>
  <outline>
    <contour>
      <point x="300" y="168" type="curve" smooth="yes"/>
      <point x="368" y="168"/>
      <point x="436" y="220"/>
      <point x="436" y="304" type="curve" smooth="yes"/>
      <point x="436" y="388"/>
      <point x="368" y="440"/>
      <point x="300" y="440" type="curve" smooth="yes"/>
      <point x="232" y="440"/>
      <point x="164" y="388"/>
      <point x="164" y="304" type="curve" smooth="yes"/>
      <point x="164" y="220"/>
      <point x="232" y="168"/>
    </contour>
  </outline>
</glyph>
<glyph name="perthousand" format="1">
  <advance width="600"/>
  <unicode hex="2030"/>
  <outline>
    <contour>
      <point x="170" y="390" type="curve" smooth="yes"/>
      <point x="236" y="390"/>
      <point x="278" y="436"/>
      <point x="278" y="522" type="curve" smooth="yes"/>
      <point x="278" y="604"/>
      <point x="236" y="652"/>
      <point x="170" y="652" type="curve" smooth="yes"/>
      <point x="104" y="652"/>
      <point x="62" y="604"/>
      <point x="62" y="522" type="curve" smooth="yes"/>
      <point x="62" y="436"/>
      <point x="104" y="390"/>
    </contour>
    <contour>
      <point x="170" y="416" type="curve" smooth="yes"/>
      <point x="124" y="416"/>
      <point x="92" y="452"/>
      <point x="92" y="522" type="curve" smooth="yes"/>
      <point x="92" y="588"/>
      <point x="124" y="626"/>
      <point x="170" y="626" type="curve" smooth="yes"/>
      <point x="216" y="626"/>
      <point x="248" y="588"/>
      <point x="248" y="522" type="curve" smooth="yes"/>
      <point x="248" y="452"/>
      <point x="216" y="416"/>
    </contour>
    <contour>
      <point x="556" y="508" type="line"/>
      <point x="115" y="303" type="line"/>
      <point x="124" y="284" type="line"/>
      <point x="570" y="478" type="line"/>
    </contour>
    <contour>
      <point x="170" y="-12" type="curve" smooth="yes"/>
      <point x="236" y="-12"/>
      <point x="278" y="34"/>
      <point x="278" y="120" type="curve" smooth="yes"/>
      <point x="278" y="202"/>
      <point x="236" y="250"/>
      <point x="170" y="250" type="curve" smooth="yes"/>
      <point x="104" y="250"/>
      <point x="62" y="202"/>
      <point x="62" y="120" type="curve" smooth="yes"/>
      <point x="62" y="34"/>
      <point x="104" y="-12"/>
    </contour>
    <contour>
      <point x="170" y="14" type="curve" smooth="yes"/>
      <point x="124" y="14"/>
      <point x="92" y="50"/>
      <point x="92" y="120" type="curve" smooth="yes"/>
      <point x="92" y="186"/>
      <point x="124" y="224"/>
      <point x="170" y="224" type="curve" smooth="yes"/>
      <point x="216" y="224"/>
      <point x="248" y="186"/>
      <point x="248" y="120" type="curve" smooth="yes"/>
      <point x="248" y="50"/>
      <point x="216" y="14"/>
    </contour>
    <contour>
      <point x="430" y="-12" type="curve" smooth="yes"/>
      <point x="496" y="-12"/>
      <point x="538" y="34"/>
      <point x="538" y="120" type="curve" smooth="yes"/>
      <point x="538" y="202"/>
      <point x="496" y="250"/>
      <point x="430" y="250" type="curve" smooth="yes"/>
      <point x="364" y="250"/>
      <point x="322" y="202"/>
      <point x="322" y="120" type="curve" smooth="yes"/>
      <point x="322" y="34"/>
      <point x="364" y="-12"/>
    </contour>
    <contour>
      <point x="430" y="14" type="curve" smooth="yes"/>
      <point x="384" y="14"/>
      <point x="352" y="50"/>
      <point x="352" y="120" type="curve" smooth="yes"/>
      <point x="352" y="186"/>
      <point x="384" y="224"/>
      <point x="430" y="224" type="curve" smooth="yes"/>
      <point x="476" y="224"/>
      <point x="508" y="186"/>
      <point x="508" y="120" type="curve" smooth="yes"/>
      <point x="508" y="50"/>
      <point x="476" y="14"/>
    </contour>
  </outline>
</glyph>
<glyph name="peseta" format="1">
  <advance width="600"/>
  <unicode hex="20A7"/>
  <outline>
    <contour>
      <point x="172" y="298" type="line"/>
      <point x="172" y="446" type="line"/>
      <point x="442" y="446" type="line"/>
      <point x="435" y="345"/>
      <point x="368" y="298"/>
      <point x="250" y="298" type="curve" smooth="yes"/>
    </contour>
    <contour>
      <point x="250" y="612" type="line" smooth="yes"/>
      <point x="369" y="612"/>
      <point x="437" y="577"/>
      <point x="442" y="474" type="curve"/>
      <point x="172" y="474" type="line"/>
      <point x="172" y="612" type="line"/>
    </contour>
    <contour>
      <point x="540" y="474" type="line"/>
      <point x="474" y="474" type="line"/>
      <point x="468" y="593"/>
      <point x="384" y="640"/>
      <point x="262" y="640" type="curve" smooth="yes"/>
      <point x="142" y="640" type="line"/>
      <point x="142" y="474" type="line"/>
      <point x="60" y="470" type="line"/>
      <point x="60" y="446" type="line"/>
      <point x="142" y="446" type="line"/>
      <point x="142" y="0" type="line"/>
      <point x="172" y="0" type="line"/>
      <point x="172" y="270" type="line"/>
      <point x="262" y="270" type="line" smooth="yes"/>
      <point x="383" y="270"/>
      <point x="467" y="327"/>
      <point x="474" y="446" type="curve"/>
      <point x="540" y="446" type="line"/>
    </contour>
  </outline>
</glyph>
<glyph name="dong" format="1">
  <advance width="600"/>
  <unicode hex="20AB"/>
  <outline>
    <contour>
      <point x="134" y="0" type="line"/>
      <point x="480" y="0" type="line"/>
      <point x="480" y="28" type="line"/>
      <point x="134" y="28" type="line"/>
    </contour>
    <contour>
      <point x="420" y="200" type="line"/>
      <point x="377" y="154"/>
      <point x="333" y="134"/>
      <point x="290" y="134" type="curve" smooth="yes"/>
      <point x="204" y="134"/>
      <point x="156" y="198"/>
      <point x="156" y="296" type="curve" smooth="yes"/>
      <point x="156" y="376"/>
      <point x="216" y="444"/>
      <point x="294" y="444" type="curve" smooth="yes"/>
      <point x="344" y="444"/>
      <point x="374" y="428"/>
      <point x="420" y="390" type="curve"/>
    </contour>
    <contour>
      <point x="450" y="594" type="line"/>
      <point x="450" y="676" type="line"/>
      <point x="420" y="676" type="line"/>
      <point x="420" y="594" type="line"/>
      <point x="264" y="594" type="line"/>
      <point x="264" y="566" type="line"/>
      <point x="420" y="566" type="line"/>
      <point x="420" y="516" type="line"/>
      <point x="424" y="420" type="line"/>
      <point x="385" y="452"/>
      <point x="352" y="472"/>
      <point x="296" y="472" type="curve" smooth="yes"/>
      <point x="205" y="472"/>
      <point x="124" y="402"/>
      <point x="124" y="294" type="curve" smooth="yes"/>
      <point x="124" y="172"/>
      <point x="188" y="106"/>
      <point x="288" y="106" type="curve" smooth="yes"/>
      <point x="344" y="106"/>
      <point x="385" y="132"/>
      <point x="418" y="164" type="curve"/>
      <point x="422" y="164" type="line"/>
      <point x="426" y="116" type="line"/>
      <point x="450" y="116" type="line"/>
      <point x="450" y="566" type="line"/>
      <point x="532" y="570" type="line"/>
      <point x="532" y="594" type="line"/>
    </contour>
  </outline>
</glyph>
<glyph name="onethird" format="1">
  <advance width="600"/>
  <unicode hex="2153"/>
  <outline>
    <contour>
      <point x="160" y="340" type="line"/>
      <point x="188" y="340" type="line"/>
      <point x="188" y="640" type="line"/>
      <point x="164" y="640" type="line"/>
      <point x="140" y="626"/>
      <point x="116" y="616"/>
      <point x="78" y="609" type="curve"/>
      <point x="78" y="585" type="line"/>
      <point x="160" y="585" type="line"/>
    </contour>
    <contour>
      <point x="64" y="36" type="line"/>
      <point x="236" y="242" type="line"/>
      <point x="218" y="258" type="line"/>
      <point x="38" y="58" type="line"/>
    </contour>
    <contour>
      <point x="536" y="624" type="line"/>
      <point x="364" y="418" type="line"/>
      <point x="382" y="402" type="line"/>
      <point x="562" y="602" type="line"/>
    </contour>
    <contour>
      <point x="318" y="52" type="line"/>
      <point x="340" y="19"/>
      <point x="388" y="-12"/>
      <point x="438" y="-12" type="curve" smooth="yes"/>
      <point x="502" y="-12"/>
      <point x="548" y="16"/>
      <point x="548" y="76" type="curve" smooth="yes"/>
      <point x="548" y="120"/>
      <point x="514" y="146"/>
      <point x="474" y="154" type="curve"/>
      <point x="512" y="168"/>
      <point x="532" y="192"/>
      <point x="532" y="232" type="curve" smooth="yes"/>
      <point x="532" y="284"/>
      <point x="494" y="312"/>
      <point x="436" y="312" type="curve" smooth="yes"/>
      <point x="396" y="312"/>
      <point x="356" y="293"/>
      <point x="334" y="264" type="curve"/>
      <point x="354" y="246" type="line"/>
      <point x="374" y="272"/>
      <point x="409" y="286"/>
      <point x="434" y="286" type="curve" smooth="yes"/>
      <point x="482" y="286"/>
      <point x="502" y="264"/>
      <point x="502" y="230" type="curve" smooth="yes"/>
      <point x="502" y="194"/>
      <point x="473" y="164"/>
      <point x="404" y="164" type="curve"/>
      <point x="404" y="140" type="line"/>
      <point x="480" y="140"/>
      <point x="518" y="119"/>
      <point x="518" y="76" type="curve" smooth="yes"/>
      <point x="518" y="32"/>
      <point x="486" y="14"/>
      <point x="440" y="14" type="curve" smooth="yes"/>
      <point x="398" y="14"/>
      <point x="362" y="38"/>
      <point x="342" y="70" type="curve"/>
    </contour>
  </outline>
</glyph>
<glyph name="threeeighths" format="1">
  <advance width="600"/>
  <unicode hex="215C"/>
  <outline>
    <contour>
      <point x="38" y="392" type="line"/>
      <point x="60" y="359"/>
      <point x="108" y="328"/>
      <point x="158" y="328" type="curve" smooth="yes"/>
      <point x="222" y="328"/>
      <point x="268" y="356"/>
      <point x="268" y="416" type="curve" smooth="yes"/>
      <point x="268" y="460"/>
      <point x="234" y="486"/>
      <point x="194" y="494" type="curve"/>
      <point x="232" y="508"/>
      <point x="252" y="532"/>
      <point x="252" y="572" type="curve" smooth="yes"/>
      <point x="252" y="624"/>
      <point x="214" y="652"/>
      <point x="156" y="652" type="curve" smooth="yes"/>
      <point x="116" y="652"/>
      <point x="76" y="633"/>
      <point x="54" y="604" type="curve"/>
      <point x="74" y="586" type="line"/>
      <point x="94" y="612"/>
      <point x="129" y="626"/>
      <point x="154" y="626" type="curve" smooth="yes"/>
      <point x="202" y="626"/>
      <point x="222" y="604"/>
      <point x="222" y="570" type="curve" smooth="yes"/>
      <point x="222" y="534"/>
      <point x="193" y="504"/>
      <point x="124" y="504" type="curve"/>
      <point x="124" y="480" type="line"/>
      <point x="200" y="480"/>
      <point x="238" y="459"/>
      <point x="238" y="416" type="curve" smooth="yes"/>
      <point x="238" y="372"/>
      <point x="206" y="354"/>
      <point x="160" y="354" type="curve" smooth="yes"/>
      <point x="118" y="354"/>
      <point x="82" y="378"/>
      <point x="62" y="410" type="curve"/>
    </contour>
    <contour>
      <point x="64" y="36" type="line"/>
      <point x="236" y="242" type="line"/>
      <point x="218" y="258" type="line"/>
      <point x="38" y="58" type="line"/>
    </contour>
    <contour>
      <point x="536" y="624" type="line"/>
      <point x="364" y="418" type="line"/>
      <point x="382" y="402" type="line"/>
      <point x="562" y="602" type="line"/>
    </contour>
    <contour>
      <point x="352" y="74" type="curve" smooth="yes"/>
      <point x="352" y="104"/>
      <point x="373" y="131"/>
      <point x="416" y="150" type="curve"/>
      <point x="471" y="133"/>
      <point x="528" y="122"/>
      <point x="528" y="73" type="curve" smooth="yes"/>
      <point x="528" y="38"/>
      <point x="484" y="14"/>
      <point x="440" y="14" type="curve" smooth="yes"/>
      <point x="391" y="14"/>
      <point x="352" y="41"/>
    </contour>
    <contour>
      <point x="466" y="164" type="curve"/>
      <point x="414" y="178"/>
      <point x="366" y="196"/>
      <point x="366" y="233" type="curve" smooth="yes"/>
      <point x="366" y="263"/>
      <point x="394" y="286"/>
      <point x="440" y="286" type="curve" smooth="yes"/>
      <point x="490" y="286"/>
      <point x="516" y="263"/>
      <point x="516" y="233" type="curve" smooth="yes"/>
      <point x="516" y="207"/>
      <point x="502" y="185"/>
    </contour>
    <contour>
      <point x="322" y="74" type="curve" smooth="yes"/>
      <point x="322" y="29"/>
      <point x="368" y="-12"/>
      <point x="440" y="-12" type="curve" smooth="yes"/>
      <point x="505" y="-12"/>
      <point x="558" y="24"/>
      <point x="558" y="74" type="curve" smooth="yes"/>
      <point x="558" y="115"/>
      <point x="528" y="138"/>
      <point x="493" y="152" type="curve"/>
      <point x="493" y="156" type="line"/>
      <point x="515" y="170"/>
      <point x="546" y="193"/>
      <point x="546" y="233" type="curve" smooth="yes"/>
      <point x="546" y="277"/>
      <point x="502" y="312"/>
      <point x="440" y="312" type="curve" smooth="yes"/>
      <point x="384" y="312"/>
      <point x="336" y="278"/>
      <point x="336" y="233" type="curve" smooth="yes"/>
      <point x="336" y="200"/>
      <point x="361" y="179"/>
      <point x="390" y="162" type="curve"/>
      <point x="390" y="158" type="line"/>
      <point x="354" y="141"/>
      <point x="322" y="115"/>
    </contour>
  </outline>
</glyph>
<glyph name="arrowright" format="1">
  <advance width="600"/>
  <unicode hex="2192"/>
  <outline>
    <contour>
      <point x="578" y="254" type="line"/>
      <point x="310" y="518" type="line"/>
      <point x="290" y="498" type="line"/>
      <point x="532" y="266" type="line"/>
      <point x="28" y="266" type="line"/>
      <point x="28" y="238" type="line"/>
      <point x="532" y="238" type="line"/>
      <point x="290" y="6" type="line"/>
      <point x="310" y="-14" type="line"/>
      <point x="578" y="250" type="line"/>
    </contour>
  </outline>
</glyph>
<glyph name="approxequal" format="1">
  <advance width="600"/>
  <unicode hex="2248"/>
  <outline>
    <contour>
      <point x="120" y="352" type="line"/>
      <point x="146" y="432"/>
      <point x="174" y="442"/>
      <point x="208" y="442" type="curve" smooth="yes"/>
      <point x="266" y="442"/>
      <point x="314" y="350"/>
      <point x="390" y="350" type="curve" smooth="yes"/>
      <point x="432" y="350"/>
      <point x="476" y="374"/>
      <point x="504" y="458" type="curve"/>
      <point x="480" y="468" type="line"/>
      <point x="454" y="386"/>
      <point x="426" y="378"/>
      <point x="392" y="378" type="curve" smooth="yes"/>
      <point x="334" y="378"/>
      <point x="286" y="470"/>
      <point x="210" y="470" type="curve" smooth="yes"/>
      <point x="168" y="470"/>
      <point x="124" y="446"/>
      <point x="96" y="360" type="curve"/>
    </contour>
    <contour>
      <point x="120" y="152" type="line"/>
      <point x="146" y="232"/>
      <point x="174" y="242"/>
      <point x="208" y="242" type="curve" smooth="yes"/>
      <point x="266" y="242"/>
      <point x="314" y="150"/>
      <point x="390" y="150" type="curve" smooth="yes"/>
      <point x="432" y="150"/>
      <point x="476" y="174"/>
      <point x="504" y="258" type="curve"/>
      <point x="480" y="268" type="line"/>
      <point x="454" y="186"/>
      <point x="426" y="178"/>
      <point x="392" y="178" type="curve" smooth="yes"/>
      <point x="334" y="178"/>
      <point x="286" y="270"/>
      <point x="210" y="270" type="curve" smooth="yes"/>
      <point x="168" y="270"/>
      <point x="124" y="246"/>
      <point x="96" y="160" type="curve"/>
    </contour>
  </outline>
</glyph>
<glyph name="AE" format="1">
  <advance width="600"/>
  <outline>
    <contour>
      <point x="0" y="0" type="line"/>
      <point x="36" y="0" type="line"/>
      <point x="212" y="394" type="line" smooth="yes"/>
      <point x="248" y="476"/>
      <point x="284" y="552"/>
      <point x="318" y="630" type="curve"/>
      <point x="322" y="630" type="line"/>
      <point x="322" y="0" type="line"/>
      <point x="588" y="0" type="line"/>
      <point x="588" y="28" type="line"/>
      <point x="354" y="28" type="line"/>
      <point x="354" y="338" type="line"/>
      <point x="524" y="338" type="line"/>
      <point x="524" y="366" type="line"/>
      <point x="354" y="366" type="line"/>
      <point x="354" y="632" type="line"/>
      <point x="578" y="632" type="line"/>
      <point x="578" y="660" type="line"/>
      <point x="302" y="660" type="line"/>
    </contour>
    <contour>
      <point x="130" y="226" type="line"/>
      <point x="348" y="226" type="line"/>
      <point x="348" y="254" type="line"/>
      <point x="130" y="254" type="line"/>
    </contour>
    <contour>
      <point x="484" y="694" type="move" name="aboveUC"/>
    </contour>
  </outline>
</glyph>
<glyph name="A" format="1">
  <advance width="600"/>
  <outline>
    <contour>
      <point x="50" y="0" type="line"/>
      <point x="82" y="0" type="line"/>
      <point x="222" y="396" type="line" smooth="yes"/>
      <point x="250" y="476"/>
      <point x="274" y="544"/>
      <point x="298" y="626" type="curve"/>
      <point x="302" y="626" type="line"/>
      <point x="326" y="544"/>
      <point x="350" y="476"/>
      <point x="378" y="396" type="curve" smooth="yes"/>
      <point x="516" y="0" type="line"/>
      <point x="550" y="0" type="line"/>
      <point x="314" y="660" type="line"/>
      <point x="286" y="660" type="line"/>
    </contour>
    <contour>
      <point x="152" y="236" type="line"/>
      <point x="445" y="236" type="line"/>
      <point x="445" y="264" type="line"/>
      <point x="152" y="264" type="line"/>
    </contour>
    <contour>
      <point x="300" y="682" type="move" name="aboveUC"/>
    </contour>
    <contour>
      <point x="300" y="-22" type="move" name="belowLC"/>
    </contour>
    <contour>
      <point x="496" y="0" type="move" name="ogonekUC"/>
    </contour>
  </outline>
</glyph>
<glyph name="Abrevedotbelow" format="1">
  <advance width="600"/>
  <outline>
    <contour>
      <point x="386" y="814" type="line"/>
      <point x="380" y="778"/>
      <point x="354" y="738"/>
      <point x="300" y="738" type="curve" smooth="yes"/>
      <point x="246" y="738"/>
      <point x="220" y="778"/>
      <point x="214" y="814" type="curve"/>
      <point x="188" y="814" type="line"/>
      <point x="194" y="772"/>
      <point x="226" y="712"/>
      <point x="300" y="712" type="curve" smooth="yes"/>
      <point x="374" y="712"/>
      <point x="406" y="772"/>
      <point x="412" y="814" type="curve"/>
    </contour>
    <contour>
      <point x="300" y="-120" type="curve" smooth="yes"/>
      <point x="278" y="-120"/>
      <point x="260" y="-136"/>
      <point x="260" y="-162" type="curve" smooth="yes"/>
      <point x="260" y="-188"/>
      <point x="278" y="-204"/>
      <point x="300" y="-204" type="curve" smooth="yes"/>
      <point x="322" y="-204"/>
      <point x="340" y="-188"/>
      <point x="340" y="-162" type="curve" smooth="yes"/>
      <point x="340" y="-136"/>
      <point x="322" y="-120"/>
    </contour>
    <contour>
      <point x="175" y="264" type="line"/>
      <point x="222" y="396" type="line" smooth="yes"/>
      <point x="250" y="476"/>
      <point x="274" y="544"/>
      <point x="298" y="626" type="curve"/>
      <point x="302" y="626" type="line"/>
      <point x="326" y="544"/>
      <point x="350" y="476"/>
      <point x="378" y="396" type="curve" smooth="yes"/>
      <point x="424" y="264" type="line"/>
    </contour>
    <contour>
      <point x="550" y="0" type="line"/>
      <point x="314" y="660" type="line"/>
      <point x="286" y="660" type="line"/>
      <point x="50" y="0" type="line"/>
      <point x="82" y="0" type="line"/>
      <point x="165" y="236" type="line"/>
      <point x="434" y="236" type="line"/>
      <point x="516" y="0" type="line"/>
    </contour>
  </outline>
</glyph>
<glyph name="Abrevetilde" format="1">
  <advance width="600"/>
  <outline>
    <contour>
      <point x="394" y="918" type="line"/>
      <point x="390" y="888"/>
      <point x="374" y="868"/>
      <point x="352" y="868" type="curve" smooth="yes"/>
      <point x="316" y="868"/>
      <point x="298" y="918"/>
      <point x="250" y="918" type="curve" smooth="yes"/>
      <point x="203" y="918"/>
      <point x="184" y="874"/>
      <point x="182" y="842" type="curve"/>
      <point x="206" y="842" type="line"/>
      <point x="210" y="872"/>
      <point x="226" y="892"/>
      <point x="248" y="892" type="curve" smooth="yes"/>
      <point x="284" y="892"/>
      <point x="302" y="842"/>
      <point x="350" y="842" type="curve" smooth="yes"/>
      <point x="397" y="842"/>
      <point x="416" y="886"/>
      <point x="418" y="918" type="curve"/>
    </contour>
    <contour>
      <point x="190" y="810" type="line"/>
      <point x="196" y="768"/>
      <point x="230" y="712"/>
      <point x="300" y="712" type="curve" smooth="yes"/>
      <point x="370" y="712"/>
      <point x="404" y="768"/>
      <point x="410" y="810" type="curve"/>
      <point x="384" y="810" type="line"/>
      <point x="376" y="774"/>
      <point x="352" y="738"/>
      <point x="300" y="738" type="curve" smooth="yes"/>
      <point x="248" y="738"/>
      <point x="224" y="774"/>
      <point x="216" y="810" type="curve"/>
    </contour>
    <contour>
      <point x="175" y="264" type="line"/>
      <point x="222" y="396" type="line" smooth="yes"/>
      <point x="250" y="476"/>
      <point x="274" y="544"/>
      <point x="298" y="626" type="curve"/>
      <point x="302" y="626" type="line"/>
      <point x="326" y="544"/>
      <point x="350" y="476"/>
      <point x="378" y="396" type="curve" smooth="yes"/>
      <point x="424" y="264" type="line"/>
    </contour>
    <contour>
      <point x="516" y="0" type="line"/>
      <point x="550" y="0" type="line"/>
      <point x="314" y="660" type="line"/>
      <point x="286" y="660" type="line"/>
      <point x="50" y="0" type="line"/>
      <point x="82" y="0" type="line"/>
      <point x="165" y="236" type="line"/>
      <point x="434" y="236" type="line"/>
    </contour>
  </outline>
</glyph>
<glyph name="Acircumflexhook" format="1">
  <advance width="600"/>
  <outline>
    <contour>
      <point x="397" y="758" type="line"/>
      <point x="431" y="768"/>
      <point x="471" y="786"/>
      <point x="471" y="830" type="curve" smooth="yes"/>
      <point x="471" y="878"/>
      <point x="423" y="894"/>
      <point x="371" y="896" type="curve"/>
      <point x="367" y="870" type="line"/>
      <point x="415" y="868"/>
      <point x="441" y="858"/>
      <point x="441" y="826" type="curve" smooth="yes"/>
      <point x="441" y="802"/>
      <point x="417" y="790"/>
      <point x="387" y="782" type="curve"/>
    </contour>
    <contour>
      <point x="298" y="778" type="line"/>
      <point x="302" y="778" type="line"/>
      <point x="374" y="710" type="line"/>
      <point x="404" y="710" type="line"/>
      <point x="314" y="808" type="line"/>
      <point x="286" y="808" type="line"/>
      <point x="196" y="710" type="line"/>
      <point x="226" y="710" type="line"/>
    </contour>
    <contour>
      <point x="175" y="264" type="line"/>
      <point x="222" y="396" type="line" smooth="yes"/>
      <point x="250" y="476"/>
      <point x="274" y="544"/>
      <point x="298" y="626" type="curve"/>
      <point x="302" y="626" type="line"/>
      <point x="326" y="544"/>
      <point x="350" y="476"/>
      <point x="378" y="396" type="curve" smooth="yes"/>
      <point x="424" y="264" type="line"/>
    </contour>
    <contour>
      <point x="516" y="0" type="line"/>
      <point x="550" y="0" type="line"/>
      <point x="314" y="660" type="line"/>
      <point x="286" y="660" type="line"/>
      <point x="50" y="0" type="line"/>
      <point x="82" y="0" type="line"/>
      <point x="165" y="236" type="line"/>
      <point x="434" y="236" type="line"/>
    </contour>
  </outline>
</glyph>
<glyph name="Ahook" format="1">
  <advance width="600"/>
  <outline>
    <contour>
      <point x="278" y="704" type="line"/>
      <point x="322" y="718"/>
      <point x="366" y="738"/>
      <point x="366" y="788" type="curve" smooth="yes"/>
      <point x="366" y="838"/>
      <point x="310" y="858"/>
      <point x="252" y="860" type="curve"/>
      <point x="250" y="834" type="line"/>
      <point x="304" y="832"/>
      <point x="336" y="816"/>
      <point x="336" y="784" type="curve" smooth="yes"/>
      <point x="336" y="754"/>
      <point x="308" y="738"/>
      <point x="270" y="726" type="curve"/>
    </contour>
    <contour>
      <point x="175" y="264" type="line"/>
      <point x="222" y="396" type="line" smooth="yes"/>
      <point x="250" y="476"/>
      <point x="274" y="544"/>
      <point x="298" y="626" type="curve"/>
      <point x="302" y="626" type="line"/>
      <point x="326" y="544"/>
      <point x="350" y="476"/>
      <point x="378" y="396" type="curve" smooth="yes"/>
      <point x="424" y="264" type="line"/>
    </contour>
    <contour>
      <point x="516" y="0" type="line"/>
      <point x="550" y="0" type="line"/>
      <point x="314" y="660" type="line"/>
      <point x="286" y="660" type="line"/>
      <point x="50" y="0" type="line"/>
      <point x="82" y="0" type="line"/>
      <point x="165" y="236" type="line"/>
      <point x="434" y="236" type="line"/>
    </contour>
  </outline>
</glyph>
<glyph name="Bstroke" format="1">
  <advance width="600"/>
  <outline>
    <contour>
      <point x="152" y="28" type="line"/>
      <point x="152" y="178" type="line"/>
      <point x="324" y="178" type="line"/>
      <point x="324" y="206" type="line"/>
      <point x="152" y="206" type="line"/>
      <point x="152" y="338" type="line"/>
      <point x="292" y="338" type="line" smooth="yes"/>
      <point x="434" y="338"/>
      <point x="516" y="290"/>
      <point x="516" y="190" type="curve" smooth="yes"/>
      <point x="516" y="78"/>
      <point x="430" y="28"/>
      <point x="292" y="28" type="curve" smooth="yes"/>
    </contour>
    <contour>
      <point x="152" y="632" type="line"/>
      <point x="278" y="632" type="line" smooth="yes"/>
      <point x="406" y="632"/>
      <point x="474" y="594"/>
      <point x="474" y="504" type="curve" smooth="yes"/>
      <point x="474" y="412"/>
      <point x="416" y="366"/>
      <point x="272" y="366" type="curve" smooth="yes"/>
      <point x="152" y="366" type="line"/>
    </contour>
    <contour>
      <point x="388" y="356" type="line"/>
      <point x="466" y="376"/>
      <point x="506" y="430"/>
      <point x="506" y="500" type="curve" smooth="yes"/>
      <point x="506" y="608"/>
      <point x="424" y="660"/>
      <point x="292" y="660" type="curve" smooth="yes"/>
      <point x="120" y="660" type="line"/>
      <point x="120" y="206" type="line"/>
      <point x="42" y="202" type="line"/>
      <point x="42" y="178" type="line"/>
      <point x="120" y="178" type="line"/>
      <point x="120" y="0" type="line"/>
      <point x="304" y="0" type="line" smooth="yes"/>
      <point x="454" y="0"/>
      <point x="548" y="66"/>
      <point x="548" y="192" type="curve" smooth="yes"/>
      <point x="548" y="284"/>
      <point x="486" y="338"/>
      <point x="388" y="352" type="curve"/>
    </contour>
  </outline>
</glyph>
<glyph name="C" format="1">
  <advance width="600"/>
  <outline>
    <contour>
      <point x="74" y="332" type="curve" smooth="yes"/>
      <point x="74" y="124"/>
      <point x="185" y="-12"/>
      <point x="347" y="-12" type="curve" smooth="yes"/>
      <point x="433" y="-12"/>
      <point x="491" y="24"/>
      <point x="541" y="82" type="curve"/>
      <point x="521" y="102" type="line"/>
      <point x="471" y="46"/>
      <point x="419" y="18"/>
      <point x="349" y="18" type="curve" smooth="yes"/>
      <point x="201" y="18"/>
      <point x="108" y="142"/>
      <point x="108" y="332" type="curve" smooth="yes"/>
      <point x="108" y="522"/>
      <point x="201" y="642"/>
      <point x="353" y="642" type="curve" smooth="yes"/>
      <point x="415" y="642"/>
      <point x="465" y="614"/>
      <point x="501" y="572" type="curve"/>
      <point x="521" y="594" type="line"/>
      <point x="487" y="634"/>
      <point x="429" y="672"/>
      <point x="353" y="672" type="curve" smooth="yes"/>
      <point x="185" y="672"/>
      <point x="74" y="540"/>
    </contour>
    <contour>
      <point x="342" y="682" type="move" name="aboveUC"/>
    </contour>
    <contour>
      <point x="346" y="-22" type="move" name="belowLC"/>
    </contour>
    <contour>
      <point x="346" y="0" type="move" name="baseLC"/>
    </contour>
  </outline>
</glyph>
<glyph name="Chedescender" format="1">
  <advance width="600"/>
  <outline>
    <contour>
      <point x="452" y="0" type="line"/>
      <point x="484" y="0" type="line"/>
      <point x="484" y="660" type="line"/>
      <point x="452" y="660" type="line"/>
      <point x="452" y="348" type="line"/>
      <point x="420" y="342"/>
      <point x="375" y="336"/>
      <point x="318" y="336" type="curve" smooth="yes"/>
      <point x="192" y="336"/>
      <point x="116" y="374"/>
      <point x="116" y="500" type="curve" smooth="yes"/>
      <point x="116" y="660" type="line"/>
      <point x="84" y="660" type="line"/>
      <point x="84" y="500" type="line" smooth="yes"/>
      <point x="84" y="356"/>
      <point x="172" y="306"/>
      <point x="316" y="306" type="curve" smooth="yes"/>
      <point x="374" y="306"/>
      <point x="418" y="312"/>
      <point x="452" y="318" type="curve"/>
    </contour>
    <contour>
      <point x="520" y="-188" type="line"/>
      <point x="546" y="-188" type="line"/>
      <point x="552" y="12" type="line"/>
      <point x="552" y="28" type="line"/>
      <point x="474" y="28" type="line"/>
      <point x="474" y="0" type="line"/>
      <point x="520" y="0" type="line"/>
    </contour>
  </outline>
</glyph>
<glyph name="De" format="1">
  <advance width="600"/>
  <outline>
    <contour>
      <point x="470" y="0" type="line"/>
      <point x="502" y="0" type="line"/>
      <point x="502" y="660" type="line"/>
      <point x="214" y="660" type="line"/>
      <point x="190" y="506"/>
      <point x="176" y="415"/>
      <point x="150" y="272" type="curve" smooth="yes"/>
      <point x="116" y="86"/>
      <point x="86" y="40"/>
      <point x="60" y="28" type="curve"/>
      <point x="86" y="14" type="line"/>
      <point x="114" y="30"/>
      <point x="144" y="68"/>
      <point x="180" y="264" type="curve" smooth="yes"/>
      <point x="205" y="399"/>
      <point x="216" y="494"/>
      <point x="240" y="632" type="curve"/>
      <point x="470" y="632" type="line"/>
    </contour>
    <contour>
      <point x="36" y="-188" type="line"/>
      <point x="62" y="-188" type="line"/>
      <point x="62" y="0" type="line"/>
      <point x="560" y="0" type="line"/>
      <point x="560" y="28" type="line"/>
      <point x="30" y="28" type="line"/>
      <point x="30" y="12" type="line"/>
    </contour>
    <contour>
      <point x="538" y="-188" type="line"/>
      <point x="564" y="-188" type="line"/>
      <point x="570" y="12" type="line"/>
      <point x="570" y="28" type="line"/>
      <point x="44" y="28" type="line"/>
      <point x="44" y="0" type="line"/>
      <point x="538" y="0" type="line"/>
    </contour>
  </outline>
</glyph>
<glyph name="Delta" format="1">
  <advance width="546"/>
  <outline>
    <contour>
      <point x="26" y="0" type="line"/>
      <point x="520" y="0" type="line"/>
      <point x="520" y="18" type="line"/>
      <point x="288" y="660" type="line"/>
      <point x="258" y="660" type="line"/>
      <point x="26" y="18" type="line"/>
    </contour>
    <contour>
      <point x="62" y="28" type="line"/>
      <point x="192" y="392" type="line"/>
      <point x="272" y="616" type="line"/>
      <point x="276" y="616" type="line"/>
      <point x="354" y="392" type="line"/>
      <point x="484" y="28" type="line"/>
    </contour>
  </outline>
</glyph>
<glyph name="Delta.math" format="1">
  <advance width="600"/>
  <outline>
    <contour>
      <point x="54" y="0" type="line"/>
      <point x="548" y="0" type="line"/>
      <point x="548" y="18" type="line"/>
      <point x="316" y="660" type="line"/>
      <point x="286" y="660" type="line"/>
      <point x="54" y="18" type="line"/>
    </contour>
    <contour>
      <point x="90" y="28" type="line"/>
      <point x="220" y="392" type="line"/>
      <point x="300" y="616" type="line"/>
      <point x="304" y="616" type="line"/>
      <point x="382" y="392" type="line"/>
      <point x="512" y="28" type="line"/>
    </contour>
  </outline>
</glyph>
<glyph name="Dlinebelow" format="1">
  <advance width="600"/>
  <outline>
    <contour>
      <point x="100" y="0" type="line"/>
      <point x="248" y="0" type="line" smooth="yes"/>
      <point x="452" y="0"/>
      <point x="544" y="136"/>
      <point x="544" y="332" type="curve" smooth="yes"/>
      <point x="544" y="528"/>
      <point x="452" y="660"/>
      <point x="248" y="660" type="curve" smooth="yes"/>
      <point x="100" y="660" type="line"/>
    </contour>
    <contour>
      <point x="132" y="28" type="line"/>
      <point x="132" y="632" type="line"/>
      <point x="244" y="632" type="line" smooth="yes"/>
      <point x="432" y="632"/>
      <point x="510" y="506"/>
      <point x="510" y="332" type="curve" smooth="yes"/>
      <point x="510" y="158"/>
      <point x="432" y="28"/>
      <point x="244" y="28" type="curve" smooth="yes"/>
    </contour>
    <contour>
      <point x="400" y="-128" type="line"/>
      <point x="178" y="-128" type="line"/>
      <point x="178" y="-156" type="line"/>
      <point x="400" y="-156" type="line"/>
    </contour>
  </outline>
</glyph>
<glyph name="Ecircumflexacute" format="1">
  <advance width="600"/>
  <outline>
    <contour>
      <point x="132" y="0" type="line"/>
      <point x="526" y="0" type="line"/>
      <point x="526" y="28" type="line"/>
      <point x="164" y="28" type="line"/>
      <point x="164" y="338" type="line"/>
      <point x="460" y="338" type="line"/>
      <point x="460" y="366" type="line"/>
      <point x="164" y="366" type="line"/>
      <point x="164" y="632" type="line"/>
      <point x="516" y="632" type="line"/>
      <point x="516" y="660" type="line"/>
      <point x="132" y="660" type="line"/>
    </contour>
    <contour>
      <point x="412" y="770" type="line"/>
      <point x="438" y="770" type="line"/>
      <point x="522" y="874" type="line"/>
      <point x="484" y="874" type="line"/>
    </contour>
    <contour>
      <point x="234" y="710" type="line"/>
      <point x="264" y="710" type="line"/>
      <point x="336" y="778" type="line"/>
      <point x="340" y="778" type="line"/>
      <point x="412" y="710" type="line"/>
      <point x="442" y="710" type="line"/>
      <point x="352" y="808" type="line"/>
      <point x="324" y="808" type="line"/>
    </contour>
  </outline>
</glyph>
<glyph name="Ecircumflexhook" format="1">
  <advance width="600"/>
  <outline>
    <contour>
      <point x="132" y="0" type="line"/>
      <point x="526" y="0" type="line"/>
      <point x="526" y="28" type="line"/>
      <point x="164" y="28" type="line"/>
      <point x="164" y="338" type="line"/>
      <point x="460" y="338" type="line"/>
      <point x="460" y="366" type="line"/>
      <point x="164" y="366" type="line"/>
      <point x="164" y="632" type="line"/>
      <point x="516" y="632" type="line"/>
      <point x="516" y="660" type="line"/>
      <point x="132" y="660" type="line"/>
    </contour>
    <contour>
      <point x="435" y="758" type="line"/>
      <point x="469" y="768"/>
      <point x="509" y="786"/>
      <point x="509" y="830" type="curve" smooth="yes"/>
      <point x="509" y="878"/>
      <point x="461" y="894"/>
      <point x="409" y="896" type="curve"/>
      <point x="405" y="870" type="line"/>
      <point x="453" y="868"/>
      <point x="479" y="858"/>
      <point x="479" y="826" type="curve" smooth="yes"/>
      <point x="479" y="802"/>
      <point x="455" y="790"/>
      <point x="425" y="782" type="curve"/>
    </contour>
    <contour>
      <point x="234" y="710" type="line"/>
      <point x="264" y="710" type="line"/>
      <point x="336" y="778" type="line"/>
      <point x="340" y="778" type="line"/>
      <point x="412" y="710" type="line"/>
      <point x="442" y="710" type="line"/>
      <point x="352" y="808" type="line"/>
      <point x="324" y="808" type="line"/>
    </contour>
  </outline>
</glyph>
<glyph name="Ecircumflextilde" format="1">
  <advance width="600"/>
  <outline>
    <contour>
      <point x="132" y="0" type="line"/>
      <point x="526" y="0" type="line"/>
      <point x="526" y="28" type="line"/>
      <point x="164" y="28" type="line"/>
      <point x="164" y="338" type="line"/>
      <point x="460" y="338" type="line"/>
      <point x="460" y="366" type="line"/>
      <point x="164" y="366" type="line"/>
      <point x="164" y="632" type="line"/>
      <point x="516" y="632" type="line"/>
      <point x="516" y="660" type="line"/>
      <point x="132" y="660" type="line"/>
    </contour>
    <contour>
      <point x="234" y="710" type="line"/>
      <point x="264" y="710" type="line"/>
      <point x="336" y="778" type="line"/>
      <point x="340" y="778" type="line"/>
      <point x="412" y="710" type="line"/>
      <point x="442" y="710" type="line"/>
      <point x="352" y="808" type="line"/>
      <point x="324" y="808" type="line"/>
    </contour>
    <contour>
      <point x="244" y="844" type="line"/>
      <point x="248" y="874"/>
      <point x="264" y="890"/>
      <point x="286" y="890" type="curve" smooth="yes"/>
      <point x="322" y="890"/>
      <point x="340" y="844"/>
      <point x="388" y="844" type="curve" smooth="yes"/>
      <point x="435" y="844"/>
      <point x="454" y="884"/>
      <point x="456" y="916" type="curve"/>
      <point x="432" y="916" type="line"/>
      <point x="428" y="886"/>
      <point x="412" y="870"/>
      <point x="390" y="870" type="curve" smooth="yes"/>
      <point x="354" y="870"/>
      <point x="336" y="916"/>
      <point x="288" y="916" type="curve" smooth="yes"/>
      <point x="241" y="916"/>
      <point x="222" y="876"/>
      <point x="220" y="844" type="curve"/>
    </contour>
  </outline>
</glyph>
<glyph name="Ef" format="1">
  <advance width="600"/>
  <outline>
    <contour>
      <point x="287" y="88" type="curve"/>
      <point x="313" y="88" type="line" smooth="yes"/>
      <point x="499" y="88"/>
      <point x="605" y="182"/>
      <point x="605" y="332" type="curve" smooth="yes"/>
      <point x="605" y="482"/>
      <point x="499" y="572"/>
      <point x="313" y="572" type="curve" smooth="yes"/>
      <point x="287" y="572" type="line" smooth="yes"/>
      <point x="101" y="572"/>
      <point x="-5" y="482"/>
      <point x="-5" y="332" type="curve" smooth="yes"/>
      <point x="-5" y="182"/>
      <point x="101" y="88"/>
    </contour>
    <contour>
      <point x="287" y="116" type="line" smooth="yes"/>
      <point x="117" y="116"/>
      <point x="29" y="202"/>
      <point x="29" y="332" type="curve" smooth="yes"/>
      <point x="29" y="462"/>
      <point x="117" y="544"/>
      <point x="287" y="544" type="curve" smooth="yes"/>
      <point x="313" y="544" type="line" smooth="yes"/>
      <point x="483" y="544"/>
      <point x="571" y="462"/>
      <point x="571" y="332" type="curve" smooth="yes"/>
      <point x="571" y="202"/>
      <point x="483" y="116"/>
      <point x="313" y="116" type="curve" smooth="yes"/>
    </contour>
    <contour>
      <point x="285" y="-12" type="line"/>
      <point x="315" y="-12" type="line"/>
      <point x="315" y="672" type="line"/>
      <point x="285" y="672" type="line"/>
    </contour>
  </outline>
</glyph>
<glyph name="Ehook" format="1">
  <advance width="600"/>
  <outline>
    <contour>
      <point x="132" y="0" type="line"/>
      <point x="526" y="0" type="line"/>
      <point x="526" y="28" type="line"/>
      <point x="164" y="28" type="line"/>
      <point x="164" y="338" type="line"/>
      <point x="460" y="338" type="line"/>
      <point x="460" y="366" type="line"/>
      <point x="164" y="366" type="line"/>
      <point x="164" y="632" type="line"/>
      <point x="516" y="632" type="line"/>
      <point x="516" y="660" type="line"/>
      <point x="132" y="660" type="line"/>
    </contour>
    <contour>
      <point x="316" y="704" type="line"/>
      <point x="360" y="718"/>
      <point x="404" y="738"/>
      <point x="404" y="788" type="curve" smooth="yes"/>
      <point x="404" y="838"/>
      <point x="348" y="858"/>
      <point x="290" y="860" type="curve"/>
      <point x="288" y="834" type="line"/>
      <point x="342" y="832"/>
      <point x="374" y="816"/>
      <point x="374" y="784" type="curve" smooth="yes"/>
      <point x="374" y="754"/>
      <point x="346" y="738"/>
      <point x="308" y="726" type="curve"/>
    </contour>
  </outline>
</glyph>
<glyph name="Eogonek" format="1">
  <advance width="600"/>
  <outline>
    <contour>
      <point x="132" y="0" type="line"/>
      <point x="470" y="0" type="line"/>
      <point x="430" y="-26"/>
      <point x="398" y="-72"/>
      <point x="398" y="-122" type="curve" smooth="yes"/>
      <point x="398" y="-176"/>
      <point x="434" y="-202"/>
      <point x="478" y="-202" type="curve" smooth="yes"/>
      <point x="498" y="-202"/>
      <point x="524" y="-192"/>
      <point x="538" y="-180" type="curve"/>
      <point x="524" y="-160" type="line"/>
      <point x="510" y="-170"/>
      <point x="498" y="-174"/>
      <point x="480" y="-174" type="curve" smooth="yes"/>
      <point x="454" y="-174"/>
      <point x="428" y="-156"/>
      <point x="428" y="-120" type="curve" smooth="yes"/>
      <point x="428" y="-60"/>
      <point x="479" y="-10"/>
      <point x="524" y="0" type="curve"/>
      <point x="526" y="0" type="line"/>
      <point x="526" y="28" type="line"/>
      <point x="164" y="28" type="line"/>
      <point x="164" y="338" type="line"/>
      <point x="460" y="338" type="line"/>
      <point x="460" y="366" type="line"/>
      <point x="164" y="366" type="line"/>
      <point x="164" y="632" type="line"/>
      <point x="516" y="632" type="line"/>
      <point x="516" y="660" type="line"/>
      <point x="132" y="660" type="line"/>
    </contour>
    <contour>
      <point x="338" y="682" type="move" name="aboveUC"/>
    </contour>
  </outline>
</glyph>
<glyph name="Euro" format="1">
  <advance width="600"/>
  <outline>
    <contour>
      <point x="68" y="358" type="line"/>
      <point x="494" y="358" type="line"/>
      <point x="494" y="386" type="line"/>
      <point x="134" y="386" type="line"/>
      <point x="68" y="382" type="line"/>
    </contour>
    <contour>
      <point x="68" y="250" type="line"/>
      <point x="454" y="250" type="line"/>
      <point x="454" y="278" type="line"/>
      <point x="132" y="278" type="line"/>
      <point x="68" y="274" type="line"/>
    </contour>
    <contour>
      <point x="130" y="322" type="curve" smooth="yes"/>
      <point x="130" y="120"/>
      <point x="224" y="-12"/>
      <point x="368" y="-12" type="curve" smooth="yes"/>
      <point x="452" y="-12"/>
      <point x="505" y="24"/>
      <point x="552" y="82" type="curve"/>
      <point x="530" y="100" type="line"/>
      <point x="483" y="44"/>
      <point x="436" y="16"/>
      <point x="370" y="16" type="curve" smooth="yes"/>
      <point x="240" y="16"/>
      <point x="164" y="138"/>
      <point x="164" y="322" type="curve" smooth="yes"/>
      <point x="164" y="506"/>
      <point x="244" y="624"/>
      <point x="384" y="624" type="curve" smooth="yes"/>
      <point x="440" y="624"/>
      <point x="484" y="596"/>
      <point x="520" y="554" type="curve"/>
      <point x="542" y="574" type="line"/>
      <point x="510" y="614"/>
      <point x="452" y="652"/>
      <point x="384" y="652" type="curve" smooth="yes"/>
      <point x="228" y="652"/>
      <point x="130" y="524"/>
    </contour>
  </outline>
</glyph>
<glyph name="F" format="1">
  <advance width="600"/>
  <outline>
    <contour>
      <point x="156" y="0" type="line"/>
      <point x="187" y="0" type="line"/>
      <point x="187" y="326" type="line"/>
      <point x="479" y="326" type="line"/>
      <point x="479" y="354" type="line"/>
      <point x="187" y="354" type="line"/>
      <point x="187" y="632" type="line"/>
      <point x="534" y="632" type="line"/>
      <point x="534" y="660" type="line"/>
      <point x="156" y="660" type="line"/>
    </contour>
    <contour>
      <point x="349" y="682" type="move" name="aboveUC"/>
    </contour>
    <contour>
      <point x="181" y="-22" type="move" name="belowLC"/>
    </contour>
  </outline>
</glyph>
<glyph name="Fita" format="1">
  <advance width="600"/>
  <outline>
    <contour>
      <point x="300" y="-12" type="curve" smooth="yes"/>
      <point x="443.850746269" y="-12.0"/>
      <point x="544.0" y="116.0"/>
      <point x="544" y="332" type="curve" smooth="yes"/>
      <point x="544.0" y="548.0"/>
      <point x="443.850746269" y="672.0"/>
      <point x="300" y="672" type="curve" smooth="yes"/>
      <point x="156.149253731" y="672.0"/>
      <point x="56.0" y="548.0"/>
      <point x="56" y="332" type="curve" smooth="yes"/>
      <point x="56.0" y="116.0"/>
      <point x="156.149253731" y="-12.0"/>
    </contour>
    <contour>
      <point x="300" y="18" type="curve" smooth="yes"/>
      <point x="172.440677966" y="18.0"/>
      <point x="88.0" y="132.0"/>
      <point x="88" y="338" type="curve" smooth="yes"/>
      <point x="88.0" y="528.0"/>
      <point x="172.440677966" y="642.0"/>
      <point x="300" y="642" type="curve" smooth="yes"/>
      <point x="427.559322034" y="642.0"/>
      <point x="512.0" y="528.0"/>
      <point x="512" y="338" type="curve" smooth="yes"/>
      <point x="512.0" y="132.0"/>
      <point x="427.559322034" y="18.0"/>
    </contour>
    <contour>
      <point x="76" y="338" type="line"/>
      <point x="520" y="338" type="line"/>
      <point x="520" y="366" type="line"/>
      <point x="76" y="366" type="line"/>
    </contour>
  </outline>
</glyph>
<glyph name="G" format="1">
  <advance width="600"/>
  <outline>
    <contour>
      <point x="61" y="332" type="curve" smooth="yes"/>
      <point x="61" y="124"/>
      <point x="169" y="-12"/>
      <point x="333" y="-12" type="curve" smooth="yes"/>
      <point x="418" y="-12"/>
      <point x="482" y="18"/>
      <point x="522" y="62" type="curve"/>
      <point x="522" y="318" type="line"/>
      <point x="329" y="318" type="line"/>
      <point x="329" y="290" type="line"/>
      <point x="489" y="290" type="line"/>
      <point x="489" y="72" type="line"/>
      <point x="456" y="38"/>
      <point x="398" y="18"/>
      <point x="335" y="18" type="curve" smooth="yes"/>
      <point x="185" y="18"/>
      <point x="95" y="142"/>
      <point x="95" y="332" type="curve" smooth="yes"/>
      <point x="95" y="522"/>
      <point x="189" y="642"/>
      <point x="343" y="642" type="curve" smooth="yes"/>
      <point x="415" y="642"/>
      <point x="462" y="610"/>
      <point x="496" y="572" type="curve"/>
      <point x="516" y="594" type="line"/>
      <point x="482" y="630"/>
      <point x="429" y="672"/>
      <point x="343" y="672" type="curve" smooth="yes"/>
      <point x="173" y="672"/>
      <point x="61" y="540"/>
    </contour>
    <contour>
      <point x="332" y="682" type="move" name="aboveUC"/>
    </contour>
    <contour>
      <point x="336" y="-22" type="move" name="belowLC"/>
    </contour>
  </outline>
</glyph>
<glyph name="Ghestroke" format="1">
  <advance width="600"/>
  <outline>
    <contour>
      <point x="170" y="0" type="line"/>
      <point x="202" y="0" type="line"/>
      <point x="202" y="632" type="line"/>
      <point x="522" y="632" type="line"/>
      <point x="522" y="660" type="line"/>
      <point x="170" y="660" type="line"/>
    </contour>
    <contour>
      <point x="88" y="326" type="line"/>
      <point x="370" y="326" type="line"/>
      <point x="370" y="354" type="line"/>
      <point x="172" y="354" type="line"/>
      <point x="88" y="352" type="line"/>
    </contour>
  </outline>
</glyph>
<glyph name="Gtilde" format="1">
  <advance width="600"/>
  <outline>
    <contour>
      <point x="61" y="332" type="curve" smooth="yes"/>
      <point x="61" y="124"/>
      <point x="169" y="-12"/>
      <point x="333" y="-12" type="curve" smooth="yes"/>
      <point x="418" y="-12"/>
      <point x="482" y="18"/>
      <point x="522" y="62" type="curve"/>
      <point x="522" y="318" type="line"/>
      <point x="329" y="318" type="line"/>
      <point x="329" y="290" type="line"/>
      <point x="489" y="290" type="line"/>
      <point x="489" y="72" type="line"/>
      <point x="456" y="38"/>
      <point x="398" y="18"/>
      <point x="335" y="18" type="curve" smooth="yes"/>
      <point x="185" y="18"/>
      <point x="95" y="142"/>
      <point x="95" y="332" type="curve" smooth="yes"/>
      <point x="95" y="522"/>
      <point x="189" y="642"/>
      <point x="343" y="642" type="curve" smooth="yes"/>
      <point x="415" y="642"/>
      <point x="462" y="610"/>
      <point x="496" y="572" type="curve"/>
      <point x="516" y="594" type="line"/>
      <point x="482" y="630"/>
      <point x="429" y="672"/>
      <point x="343" y="672" type="curve" smooth="yes"/>
      <point x="173" y="672"/>
      <point x="61" y="540"/>
    </contour>
    <contour>
      <point x="390" y="718" type="curve" smooth="yes"/>
      <point x="434" y="718"/>
      <point x="454" y="766"/>
      <point x="456" y="804" type="curve"/>
      <point x="434" y="804" type="line"/>
      <point x="430" y="770"/>
      <point x="414" y="746"/>
      <point x="392" y="746" type="curve" smooth="yes"/>
      <point x="350" y="746"/>
      <point x="326" y="804"/>
      <point x="274" y="804" type="curve" smooth="yes"/>
      <point x="230" y="804"/>
      <point x="210" y="756"/>
      <point x="208" y="718" type="curve"/>
      <point x="230" y="718" type="line"/>
      <point x="234" y="752"/>
      <point x="250" y="776"/>
      <point x="272" y="776" type="curve" smooth="yes"/>
      <point x="314" y="776"/>
      <point x="338" y="718"/>
    </contour>
  </outline>
</glyph>
<glyph name="H" format="1">
  <advance width="600"/>
  <outline>
    <contour>
      <point x="92" y="0" type="line"/>
      <point x="124" y="0" type="line"/>
      <point x="124" y="338" type="line"/>
      <point x="476" y="338" type="line"/>
      <point x="476" y="0" type="line"/>
      <point x="508" y="0" type="line"/>
      <point x="508" y="660" type="line"/>
      <point x="476" y="660" type="line"/>
      <point x="476" y="366" type="line"/>
      <point x="124" y="366" type="line"/>
      <point x="124" y="660" type="line"/>
      <point x="92" y="660" type="line"/>
    </contour>
    <contour>
      <point x="299" y="682" type="move" name="aboveUC"/>
    </contour>
    <contour>
      <point x="299" y="-22" type="move" name="belowLC"/>
    </contour>
  </outline>
</glyph>
<glyph name="Hdotbelow" format="1">
  <advance width="600"/>
  <outline>
    <contour>
      <point x="92" y="0" type="line"/>
      <point x="124" y="0" type="line"/>
      <point x="124" y="338" type="line"/>
      <point x="476" y="338" type="line"/>
      <point x="476" y="0" type="line"/>
      <point x="508" y="0" type="line"/>
      <point x="508" y="660" type="line"/>
      <point x="476" y="660" type="line"/>
      <point x="476" y="366" type="line"/>
      <point x="124" y="366" type="line"/>
      <point x="124" y="660" type="line"/>
      <point x="92" y="660" type="line"/>
    </contour>
    <contour>
      <point x="300" y="-204" type="curve" smooth="yes"/>
      <point x="322" y="-204"/>
      <point x="340" y="-188"/>
      <point x="340" y="-162" type="curve" smooth="yes"/>
      <point x="340" y="-136"/>
      <point x="322" y="-120"/>
      <point x="300" y="-120" type="curve" smooth="yes"/>
      <point x="278" y="-120"/>
      <point x="260" y="-136"/>
      <point x="260" y="-162" type="curve" smooth="yes"/>
      <point x="260" y="-188"/>
      <point x="278" y="-204"/>
    </contour>
  </outline>
</glyph>
<glyph name="I" format="1">
  <advance width="600"/>
  <outline>
    <contour>
      <point x="112" y="0" type="line"/>
      <point x="488" y="0" type="line"/>
      <point x="488" y="28" type="line"/>
      <point x="316" y="28" type="line"/>
      <point x="316" y="632" type="line"/>
      <point x="488" y="632" type="line"/>
      <point x="488" y="660" type="line"/>
      <point x="112" y="660" type="line"/>
      <point x="112" y="632" type="line"/>
      <point x="284" y="632" type="line"/>
      <point x="284" y="28" type="line"/>
      <point x="112" y="28" type="line"/>
    </contour>
    <contour>
      <point x="300" y="682" type="move" name="aboveUC"/>
    </contour>
    <contour>
      <point x="300" y="-22" type="move" name="belowLC"/>
    </contour>
    <contour>
      <point x="274" y="0" type="move" name="ogonekUC"/>
    </contour>
  </outline>
</glyph>
<glyph name="Ismall" format="1">
  <advance width="600"/>
  <outline>
    <contour>
      <point x="92" y="0" type="line"/>
      <point x="508" y="0" type="line"/>
      <point x="508" y="28" type="line"/>
      <point x="314" y="28" type="line"/>
      <point x="314" y="450" type="line"/>
      <point x="508" y="450" type="line"/>
      <point x="508" y="478" type="line"/>
      <point x="92" y="478" type="line"/>
      <point x="92" y="450" type="line"/>
      <point x="284" y="450" type="line"/>
      <point x="284" y="28" type="line"/>
      <point x="92" y="28" type="line"/>
    </contour>
    <contour>
      <point x="300" y="500" type="move" name="aboveLC"/>
    </contour>
  </outline>
</glyph>
<glyph name="Ihook" format="1">
  <advance width="600"/>
  <outline>
    <contour>
      <point x="112" y="0" type="line"/>
      <point x="488" y="0" type="line"/>
      <point x="488" y="28" type="line"/>
      <point x="316" y="28" type="line"/>
      <point x="316" y="632" type="line"/>
      <point x="488" y="632" type="line"/>
      <point x="488" y="660" type="line"/>
      <point x="112" y="660" type="line"/>
      <point x="112" y="632" type="line"/>
      <point x="284" y="632" type="line"/>
      <point x="284" y="28" type="line"/>
      <point x="112" y="28" type="line"/>
    </contour>
    <contour>
      <point x="278" y="704" type="line"/>
      <point x="322" y="718"/>
      <point x="366" y="738"/>
      <point x="366" y="788" type="curve" smooth="yes"/>
      <point x="366" y="838"/>
      <point x="310" y="858"/>
      <point x="252" y="860" type="curve"/>
      <point x="250" y="834" type="line"/>
      <point x="304" y="832"/>
      <point x="336" y="816"/>
      <point x="336" y="784" type="curve" smooth="yes"/>
      <point x="336" y="754"/>
      <point x="308" y="738"/>
      <point x="270" y="726" type="curve"/>
    </contour>
  </outline>
</glyph>
<glyph name="K" format="1">
  <advance width="600"/>
  <outline>
    <contour>
      <point x="122" y="0" type="line"/>
      <point x="154" y="0" type="line"/>
      <point x="154" y="234" type="line"/>
      <point x="299" y="394" type="line"/>
      <point x="530" y="0" type="line"/>
      <point x="568" y="0" type="line"/>
      <point x="323" y="418" type="line"/>
      <point x="539" y="660" type="line"/>
      <point x="500" y="660" type="line"/>
      <point x="156" y="280" type="line"/>
      <point x="154" y="280" type="line"/>
      <point x="154" y="660" type="line"/>
      <point x="122" y="660" type="line"/>
    </contour>
    <contour>
      <point x="329" y="682" type="move" name="aboveUC"/>
    </contour>
    <contour>
      <point x="349" y="-22" type="move" name="belowLC"/>
    </contour>
  </outline>
</glyph>
<glyph name="Ka" format="1">
  <advance width="600"/>
  <outline>
    <contour>
      <point x="127" y="0" type="line"/>
      <point x="159" y="0" type="line"/>
      <point x="159" y="338" type="line"/>
      <point x="304" y="338" type="line"/>
      <point x="529" y="0" type="line"/>
      <point x="567" y="0" type="line"/>
      <point x="323" y="366" type="line"/>
      <point x="159" y="366" type="line"/>
      <point x="159" y="660" type="line"/>
      <point x="127" y="660" type="line"/>
    </contour>
    <contour>
      <point x="330" y="349" type="line"/>
      <point x="431" y="536" type="line" smooth="yes"/>
      <point x="481" y="628"/>
      <point x="499" y="638"/>
      <point x="527" y="638" type="curve" smooth="yes"/>
      <point x="533" y="638"/>
      <point x="541" y="636"/>
      <point x="547" y="634" type="curve"/>
      <point x="553" y="668" type="line"/>
      <point x="547" y="670"/>
      <point x="539" y="672"/>
      <point x="531" y="672" type="curve" smooth="yes"/>
      <point x="484" y="672"/>
      <point x="461" y="654"/>
      <point x="403" y="546" type="curve" smooth="yes"/>
      <point x="300" y="355" type="line"/>
    </contour>
  </outline>
</glyph>
<glyph name="Kadescender" format="1">
  <advance width="600"/>
  <outline>
    <contour>
      <point x="102" y="0" type="line"/>
      <point x="134" y="0" type="line"/>
      <point x="134" y="338" type="line"/>
      <point x="279" y="338" type="line"/>
      <point x="504" y="0" type="line"/>
      <point x="542" y="0" type="line"/>
      <point x="298" y="366" type="line"/>
      <point x="134" y="366" type="line"/>
      <point x="134" y="660" type="line"/>
      <point x="102" y="660" type="line"/>
    </contour>
    <contour>
      <point x="305" y="349" type="line"/>
      <point x="406" y="536" type="line" smooth="yes"/>
      <point x="456" y="628"/>
      <point x="474" y="638"/>
      <point x="502" y="638" type="curve" smooth="yes"/>
      <point x="508" y="638"/>
      <point x="516" y="636"/>
      <point x="522" y="634" type="curve"/>
      <point x="528" y="668" type="line"/>
      <point x="522" y="670"/>
      <point x="514" y="672"/>
      <point x="506" y="672" type="curve" smooth="yes"/>
      <point x="459" y="672"/>
      <point x="436" y="654"/>
      <point x="378" y="546" type="curve" smooth="yes"/>
      <point x="275" y="355" type="line"/>
    </contour>
    <contour>
      <point x="530" y="-188" type="line"/>
      <point x="556" y="-188" type="line"/>
      <point x="562" y="12" type="line"/>
      <point x="562" y="28" type="line"/>
      <point x="506" y="28" type="line"/>
      <point x="506" y="0" type="line"/>
      <point x="530" y="0" type="line"/>
    </contour>
  </outline>
</glyph>
<glyph name="Lje" format="1">
  <advance width="600"/>
  <outline>
    <contour>
      <point x="-99" y="-12" type="curve" smooth="yes"/>
      <point x="-41" y="-12"/>
      <point x="-7" y="22"/>
      <point x="27" y="208" type="curve" smooth="yes"/>
      <point x="53" y="349"/>
      <point x="75" y="490"/>
      <point x="101" y="632" type="curve"/>
      <point x="309" y="632" type="line"/>
      <point x="309" y="0" type="line"/>
      <point x="341" y="0" type="line"/>
      <point x="341" y="660" type="line"/>
      <point x="75" y="660" type="line"/>
      <point x="47" y="500"/>
      <point x="23" y="363"/>
      <point x="-5" y="214" type="curve" smooth="yes"/>
      <point x="-37" y="46"/>
      <point x="-65" y="22"/>
      <point x="-101" y="22" type="curve" smooth="yes"/>
      <point x="-111" y="22"/>
      <point x="-119" y="24"/>
      <point x="-129" y="28" type="curve"/>
      <point x="-139" y="-4" type="line"/>
      <point x="-123" y="-10"/>
      <point x="-109" y="-12"/>
    </contour>
    <contour>
      <point x="309" y="0" type="line"/>
      <point x="465" y="0" type="line" smooth="yes"/>
      <point x="613" y="0"/>
      <point x="693" y="66"/>
      <point x="693" y="192" type="curve" smooth="yes"/>
      <point x="693" y="314"/>
      <point x="603" y="366"/>
      <point x="461" y="366" type="curve" smooth="yes"/>
      <point x="341" y="366" type="line"/>
      <point x="341" y="660" type="line"/>
      <point x="309" y="660" type="line"/>
    </contour>
    <contour>
      <point x="341" y="28" type="line"/>
      <point x="341" y="338" type="line"/>
      <point x="449" y="338" type="line" smooth="yes"/>
      <point x="589" y="338"/>
      <point x="661" y="294"/>
      <point x="661" y="190" type="curve" smooth="yes"/>
      <point x="661" y="78"/>
      <point x="591" y="28"/>
      <point x="453" y="28" type="curve" smooth="yes"/>
    </contour>
  </outline>
</glyph>
<glyph name="Lslash" format="1">
  <advance width="600"/>
  <outline>
    <contour>
      <point x="184" y="264" type="line"/>
      <point x="427" y="390" type="line"/>
      <point x="427" y="420" type="line"/>
      <point x="184" y="294" type="line"/>
      <point x="158" y="282" type="line"/>
      <point x="69" y="236" type="line"/>
      <point x="69" y="206" type="line"/>
      <point x="158" y="252" type="line"/>
    </contour>
    <component base="L"/>
  </outline>
</glyph>
<glyph name="N" format="1">
  <advance width="600"/>
  <outline>
    <contour>
      <point x="96" y="0" type="line"/>
      <point x="126" y="0" type="line"/>
      <point x="126" y="433" type="line" smooth="yes"/>
      <point x="126" y="495"/>
      <point x="123" y="551"/>
      <point x="122" y="614" type="curve"/>
      <point x="124" y="614" type="line"/>
      <point x="197" y="486" type="line"/>
      <point x="471" y="0" type="line"/>
      <point x="504" y="0" type="line"/>
      <point x="504" y="660" type="line"/>
      <point x="474" y="660" type="line"/>
      <point x="474" y="231" type="line" smooth="yes"/>
      <point x="474" y="169"/>
      <point x="477" y="109"/>
      <point x="478" y="46" type="curve"/>
      <point x="476" y="46" type="line"/>
      <point x="403" y="174" type="line"/>
      <point x="129" y="660" type="line"/>
      <point x="96" y="660" type="line"/>
    </contour>
    <contour>
      <point x="306" y="682" type="move" name="aboveUC"/>
    </contour>
    <contour>
      <point x="300" y="-22" type="move" name="belowLC"/>
    </contour>
  </outline>
</glyph>
<glyph name="Nsmall" format="1">
  <advance width="528"/>
  <outline>
    <contour>
      <point x="96" y="0" type="line"/>
      <point x="126" y="0" type="line"/>
      <point x="126" y="254" type="line" smooth="yes"/>
      <point x="126" y="307"/>
      <point x="124" y="368"/>
      <point x="122" y="432" type="curve"/>
      <point x="126" y="432" type="line"/>
      <point x="146" y="402"/>
      <point x="170" y="358"/>
      <point x="190" y="328" type="curve" smooth="yes"/>
      <point x="402" y="0" type="line"/>
      <point x="432" y="0" type="line"/>
      <point x="432" y="478" type="line"/>
      <point x="402" y="478" type="line"/>
      <point x="402" y="224" type="line" smooth="yes"/>
      <point x="402" y="171"/>
      <point x="404" y="110"/>
      <point x="406" y="46" type="curve"/>
      <point x="402" y="46" type="line"/>
      <point x="382" y="76"/>
      <point x="358" y="120"/>
      <point x="338" y="150" type="curve" smooth="yes"/>
      <point x="127" y="478" type="line"/>
      <point x="96" y="478" type="line"/>
    </contour>
  </outline>
</glyph>
<glyph name="Ndotbelow" format="1">
  <advance width="600"/>
  <outline>
    <contour>
      <point x="96" y="0" type="line"/>
      <point x="126" y="0" type="line"/>
      <point x="126" y="433" type="line" smooth="yes"/>
      <point x="126" y="495"/>
      <point x="123" y="551"/>
      <point x="122" y="614" type="curve"/>
      <point x="124" y="614" type="line"/>
      <point x="197" y="486" type="line"/>
      <point x="471" y="0" type="line"/>
      <point x="504" y="0" type="line"/>
      <point x="504" y="660" type="line"/>
      <point x="474" y="660" type="line"/>
      <point x="474" y="231" type="line" smooth="yes"/>
      <point x="474" y="169"/>
      <point x="477" y="109"/>
      <point x="478" y="46" type="curve"/>
      <point x="476" y="46" type="line"/>
      <point x="403" y="174" type="line"/>
      <point x="129" y="660" type="line"/>
      <point x="96" y="660" type="line"/>
    </contour>
    <contour>
      <point x="300" y="-204" type="curve" smooth="yes"/>
      <point x="322" y="-204"/>
      <point x="340" y="-188"/>
      <point x="340" y="-162" type="curve" smooth="yes"/>
      <point x="340" y="-136"/>
      <point x="322" y="-120"/>
      <point x="300" y="-120" type="curve" smooth="yes"/>
      <point x="278" y="-120"/>
      <point x="260" y="-136"/>
      <point x="260" y="-162" type="curve" smooth="yes"/>
      <point x="260" y="-188"/>
      <point x="278" y="-204"/>
    </contour>
  </outline>
</glyph>
<glyph name="Nje" format="1">
  <advance width="600"/>
  <outline>
    <contour>
      <point x="-63" y="0" type="line"/>
      <point x="-31" y="0" type="line"/>
      <point x="-31" y="338" type="line"/>
      <point x="329" y="338" type="line"/>
      <point x="329" y="0" type="line"/>
      <point x="361" y="0" type="line"/>
      <point x="361" y="660" type="line"/>
      <point x="329" y="660" type="line"/>
      <point x="329" y="366" type="line"/>
      <point x="-31" y="366" type="line"/>
      <point x="-31" y="660" type="line"/>
      <point x="-63" y="660" type="line"/>
    </contour>
    <contour>
      <point x="329" y="0" type="line"/>
      <point x="485" y="0" type="line" smooth="yes"/>
      <point x="633" y="0"/>
      <point x="713" y="66"/>
      <point x="713" y="192" type="curve" smooth="yes"/>
      <point x="713" y="314"/>
      <point x="623" y="366"/>
      <point x="481" y="366" type="curve" smooth="yes"/>
      <point x="361" y="366" type="line"/>
      <point x="361" y="660" type="line"/>
      <point x="329" y="660" type="line"/>
    </contour>
    <contour>
      <point x="361" y="28" type="line"/>
      <point x="361" y="338" type="line"/>
      <point x="469" y="338" type="line" smooth="yes"/>
      <point x="609" y="338"/>
      <point x="681" y="294"/>
      <point x="681" y="190" type="curve" smooth="yes"/>
      <point x="681" y="78"/>
      <point x="611" y="28"/>
      <point x="473" y="28" type="curve" smooth="yes"/>
    </contour>
  </outline>
</glyph>
